ISO-10303-21;
HEADER;
FILE_DESCRIPTION (( 'STEP AP203' ),
    '1' );
FILE_NAME ('Arduino_plate_new.STEP',
    '2026-06-26T14:30:41',
    ( '' ),
    ( '' ),
    'SwSTEP 2.0',
    'SolidWorks 2021',
    '' );
FILE_SCHEMA (( 'CONFIG_CONTROL_DESIGN' ));
ENDSEC;

DATA;
#1 = VERTEX_POINT ( 'NONE', #181 ) ;
#2 = CARTESIAN_POINT ( 'NONE',  ( -26.69999999999999574, 30.00000000000000000, 9.058845726812000620 ) ) ;
#3 = CARTESIAN_POINT ( 'NONE',  ( -69.99999999999998579, 30.00000000000000000, 25.00000000000001421 ) ) ;
#4 = VECTOR ( 'NONE', #585, 1000.000000000000000 ) ;
#5 = ORIENTED_EDGE ( 'NONE', *, *, #979, .T. ) ;
#6 = EDGE_CURVE ( 'NONE', #662, #41, #989, .T. ) ;
#7 = LINE ( 'NONE', #540, #378 ) ;
#8 = PERSON_AND_ORGANIZATION ( #473, #1019 ) ;
#9 = ORIENTED_EDGE ( 'NONE', *, *, #1026, .F. ) ;
#10 = CARTESIAN_POINT ( 'NONE',  ( 80.00000000000001421, 0.000000000000000000, 55.00000000000000000 ) ) ;
#11 = DIRECTION ( 'NONE',  ( -2.775557561562891844E-16, 0.000000000000000000, -1.000000000000000000 ) ) ;
#12 = ORIENTED_EDGE ( 'NONE', *, *, #950, .T. ) ;
#13 = EDGE_CURVE ( 'NONE', #92, #957, #681, .T. ) ;
#14 = ORIENTED_EDGE ( 'NONE', *, *, #262, .T. ) ;
#15 = FACE_OUTER_BOUND ( 'NONE', #694, .T. ) ;
#16 = CC_DESIGN_APPROVAL ( #999, ( #99 ) ) ;
#17 = DIRECTION ( 'NONE',  ( -0.000000000000000000, -0.000000000000000000, 1.000000000000000000 ) ) ;
#18 = CARTESIAN_POINT ( 'NONE',  ( 26.69999999999999574, 0.000000000000000000, 5.941154273188011814 ) ) ;
#19 = LINE ( 'NONE', #595, #951 ) ;
#20 = EDGE_LOOP ( 'NONE', ( #577, #24, #200, #636 ) ) ;
#21 = CARTESIAN_POINT ( 'NONE',  ( 0.000000000000000000, 30.00000000000000000, 0.000000000000000000 ) ) ;
#22 = LINE ( 'NONE', #607, #796 ) ;
#23 = CARTESIAN_POINT ( 'NONE',  ( 33.00000000000001421, -25.00000000000000711, 55.00000000000001421 ) ) ;
#24 = ORIENTED_EDGE ( 'NONE', *, *, #864, .F. ) ;
#25 = ORIENTED_EDGE ( 'NONE', *, *, #72, .T. ) ;
#26 = LINE ( 'NONE', #911, #309 ) ;
#27 = ADVANCED_FACE ( 'NONE', ( #602, #186, #996 ), #265, .T. ) ;
#28 = VECTOR ( 'NONE', #242, 1000.000000000000000 ) ;
#29 = EDGE_LOOP ( 'NONE', ( #921, #592, #856, #769, #966, #147, #708 ) ) ;
#30 = ORIENTED_EDGE ( 'NONE', *, *, #563, .T. ) ;
#31 = CARTESIAN_POINT ( 'NONE',  ( -60.00000000000001421, 0.000000000000000000, 1.102182119232618227E-14 ) ) ;
#32 = EDGE_CURVE ( 'NONE', #696, #776, #982, .T. ) ;
#33 = ORIENTED_EDGE ( 'NONE', *, *, #519, .T. ) ;
#34 = LINE ( 'NONE', #686, #385 ) ;
#35 = CARTESIAN_POINT ( 'NONE',  ( -60.00000000000000711, 30.00000000000000000, 1.653273178848927024E-14 ) ) ;
#36 = ORIENTED_EDGE ( 'NONE', *, *, #268, .T. ) ;
#37 = EDGE_CURVE ( 'NONE', #1022, #217, #598, .T. ) ;
#38 = VECTOR ( 'NONE', #102, 1000.000000000000000 ) ;
#39 = VERTEX_POINT ( 'NONE', #593 ) ;
#40 = VECTOR ( 'NONE', #225, 1000.000000000000000 ) ;
#41 = VERTEX_POINT ( 'NONE', #914 ) ;
#42 = CARTESIAN_POINT ( 'NONE',  ( -70.00000000000001421, 30.00000000000000000, -57.99999999999998579 ) ) ;
#43 = APPROVAL ( #1017, 'UNSPECIFIED' ) ;
#44 = CARTESIAN_POINT ( 'NONE',  ( 30.00000000000000711, -40.00000000000000711, 25.00000000000000355 ) ) ;
#45 = APPROVAL_PERSON_ORGANIZATION ( #863, #999, #304 ) ;
#46 = ORIENTED_EDGE ( 'NONE', *, *, #971, .F. ) ;
#47 = DIRECTION ( 'NONE',  ( -0.000000000000000000, 0.000000000000000000, 1.000000000000000000 ) ) ;
#48 = CC_DESIGN_PERSON_AND_ORGANIZATION_ASSIGNMENT ( #8, #877, ( #99 ) ) ;
#49 = DIRECTION ( 'NONE',  ( -1.000000000000000000, -4.513898307157582388E-32, 2.602085213965210149E-16 ) ) ;
#50 = CARTESIAN_POINT ( 'NONE',  ( 0.000000000000000000, 0.000000000000000000, 0.000000000000000000 ) ) ;
#51 = VERTEX_POINT ( 'NONE', #909 ) ;
#52 = ORIENTED_EDGE ( 'NONE', *, *, #979, .F. ) ;
#53 = FACE_OUTER_BOUND ( 'NONE', #29, .T. ) ;
#54 = VECTOR ( 'NONE', #807, 1000.000000000000000 ) ;
#55 = PERSON_AND_ORGANIZATION_ROLE ( 'creator' ) ;
#56 = LINE ( 'NONE', #63, #917 ) ;
#57 = EDGE_CURVE ( 'NONE', #306, #829, #525, .T. ) ;
#58 = VECTOR ( 'NONE', #539, 1000.000000000000000 ) ;
#59 = ORIENTED_EDGE ( 'NONE', *, *, #256, .F. ) ;
#60 = FACE_OUTER_BOUND ( 'NONE', #119, .T. ) ;
#61 = DIRECTION ( 'NONE',  ( 0.000000000000000000, 0.000000000000000000, 1.000000000000000000 ) ) ;
#62 = CARTESIAN_POINT ( 'NONE',  ( -21.29999999999999716, 0.000000000000000000, 5.941154273188018919 ) ) ;
#63 = CARTESIAN_POINT ( 'NONE',  ( -60.00000000000001421, 30.00000000000000000, -57.99999999999998579 ) ) ;
#64 = EDGE_CURVE ( 'NONE', #315, #891, #450, .T. ) ;
#65 = DIRECTION ( 'NONE',  ( 1.000000000000000000, -0.000000000000000000, -2.312964634635742957E-16 ) ) ;
#66 = LINE ( 'NONE', #845, #986 ) ;
#67 = COORDINATED_UNIVERSAL_TIME_OFFSET ( 9, 0, .AHEAD. ) ;
#68 = CARTESIAN_POINT ( 'NONE',  ( 80.00000000000001421, 0.000000000000000000, 55.00000000000000000 ) ) ;
#69 = LINE ( 'NONE', #641, #969 ) ;
#70 = PLANE ( 'NONE',  #293 ) ;
#71 = CARTESIAN_POINT ( 'NONE',  ( -21.29999999999999716, 0.000000000000000000, 5.941154273188018919 ) ) ;
#72 = EDGE_CURVE ( 'NONE', #421, #1, #823, .T. ) ;
#73 = PERSON_AND_ORGANIZATION ( #473, #1019 ) ;
#74 = ORIENTED_EDGE ( 'NONE', *, *, #460, .T. ) ;
#75 = VECTOR ( 'NONE', #644, 1000.000000000000000 ) ;
#76 = LINE ( 'NONE', #980, #865 ) ;
#77 = CLOSED_SHELL ( 'NONE', ( #220, #184, #213, #27, #624, #231, #780, #448, #152, #944, #453, #335, #858, #787, #1050, #930, #361, #328, #417, #139, #294, #554, #579, #173, #614, #1012, #471, #757, #647, #813, #410 ) ) ;
#78 = DIRECTION ( 'NONE',  ( -0.000000000000000000, 0.000000000000000000, 1.000000000000000000 ) ) ;
#79 = VECTOR ( 'NONE', #984, 1000.000000000000000 ) ;
#80 = PRODUCT ( 'Arduino_plate_new', 'Arduino_plate_new', '', ( #785 ) ) ;
#81 = CARTESIAN_POINT ( 'NONE',  ( 0.000000000000000000, 0.000000000000000000, 15.00000000000000533 ) ) ;
#82 = CARTESIAN_POINT ( 'NONE',  ( 23.99999999999999645, 0.000000000000000000, 10.61769145362398170 ) ) ;
#83 = PERSON_AND_ORGANIZATION_ROLE ( 'creator' ) ;
#84 = ORIENTED_EDGE ( 'NONE', *, *, #91, .F. ) ;
#85 = EDGE_CURVE ( 'NONE', #655, #199, #190, .T. ) ;
#86 = DIRECTION ( 'NONE',  ( -0.8660254037844388186, 0.000000000000000000, 0.4999999999999996669 ) ) ;
#87 = ORIENTED_EDGE ( 'NONE', *, *, #864, .T. ) ;
#88 = DIRECTION ( 'NONE',  ( -0.000000000000000000, 0.000000000000000000, 1.000000000000000000 ) ) ;
#89 = VERTEX_POINT ( 'NONE', #346 ) ;
#90 = FACE_OUTER_BOUND ( 'NONE', #415, .T. ) ;
#91 = EDGE_CURVE ( 'NONE', #566, #240, #836, .T. ) ;
#92 = VERTEX_POINT ( 'NONE', #431 ) ;
#93 = LINE ( 'NONE', #419, #899 ) ;
#94 = ORIENTED_EDGE ( 'NONE', *, *, #114, .F. ) ;
#95 = LINE ( 'NONE', #409, #715 ) ;
#96 = LINE ( 'NONE', #424, #506 ) ;
#97 = VECTOR ( 'NONE', #160, 1000.000000000000000 ) ;
#98 = VECTOR ( 'NONE', #395, 1000.000000000000000 ) ;
#99 = PRODUCT_DEFINITION_FORMATION_WITH_SPECIFIED_SOURCE ( 'ANY', '', #80, .NOT_KNOWN. ) ;
#100 = ORIENTED_EDGE ( 'NONE', *, *, #994, .T. ) ;
#101 = ORIENTED_EDGE ( 'NONE', *, *, #425, .T. ) ;
#102 = DIRECTION ( 'NONE',  ( -0.000000000000000000, 1.000000000000000000, -0.000000000000000000 ) ) ;
#103 = VERTEX_POINT ( 'NONE', #759 ) ;
#104 = CARTESIAN_POINT ( 'NONE',  ( 77.00000000000001421, 0.000000000000000000, 55.00000000000001421 ) ) ;
#105 = LOCAL_TIME ( 23, 30, 41.00000000000000000, #633 ) ;
#106 = DIRECTION ( 'NONE',  ( 1.000000000000000000, 0.000000000000000000, 0.000000000000000000 ) ) ;
#107 = ORIENTED_EDGE ( 'NONE', *, *, #303, .T. ) ;
#108 = CARTESIAN_POINT ( 'NONE',  ( -69.99999999999998579, 3.469446951953614189E-15, 25.00000000000001421 ) ) ;
#109 = EDGE_CURVE ( 'NONE', #51, #913, #34, .T. ) ;
#110 = CARTESIAN_POINT ( 'NONE',  ( -26.69999999999999574, 0.000000000000000000, 5.941154273188018919 ) ) ;
#111 = LOCAL_TIME ( 23, 30, 41.00000000000000000, #939 ) ;
#112 = VERTEX_POINT ( 'NONE', #606 ) ;
#113 = DIRECTION ( 'NONE',  ( 0.000000000000000000, -1.000000000000000000, 0.000000000000000000 ) ) ;
#114 = EDGE_CURVE ( 'NONE', #776, #334, #611, .T. ) ;
#115 = PLANE ( 'NONE',  #734 ) ;
#116 = VERTEX_POINT ( 'NONE', #691 ) ;
#117 = EDGE_LOOP ( 'NONE', ( #908, #978, #33, #180, #269, #572, #195, #135, #462 ) ) ;
#118 = DIRECTION ( 'NONE',  ( -0.8660254037844383745, -0.000000000000000000, 0.5000000000000003331 ) ) ;
#119 = EDGE_LOOP ( 'NONE', ( #902, #582, #938, #247 ) ) ;
#120 = ORIENTED_EDGE ( 'NONE', *, *, #109, .T. ) ;
#121 = LINE ( 'NONE', #578, #687 ) ;
#122 = APPLICATION_PROTOCOL_DEFINITION ( 'international standard', 'config_control_design', 1994, #502 ) ;
#123 = EDGE_CURVE ( 'NONE', #217, #334, #767, .T. ) ;
#124 = ORIENTED_EDGE ( 'NONE', *, *, #279, .F. ) ;
#125 = DIRECTION ( 'NONE',  ( -2.312964634635742957E-16, 0.000000000000000000, -1.000000000000000000 ) ) ;
#126 = VECTOR ( 'NONE', #515, 1000.000000000000000 ) ;
#127 = CARTESIAN_POINT ( 'NONE',  ( 0.000000000000000000, 0.000000000000000000, 0.000000000000000000 ) ) ;
#128 = AXIS2_PLACEMENT_3D ( 'NONE', #709, #1027, #948 ) ;
#129 = ORIENTED_EDGE ( 'NONE', *, *, #526, .T. ) ;
#130 = ORIENTED_EDGE ( 'NONE', *, *, #733, .F. ) ;
#131 = CARTESIAN_POINT ( 'NONE',  ( 0.000000000000000000, 0.000000000000000000, 25.00000000000000355 ) ) ;
#132 = DIRECTION ( 'NONE',  ( -1.000000000000000000, 0.000000000000000000, -0.000000000000000000 ) ) ;
#133 = APPLICATION_PROTOCOL_DEFINITION ( 'international standard', 'config_control_design', 1994, #697 ) ;
#134 = VERTEX_POINT ( 'NONE', #284 ) ;
#135 = ORIENTED_EDGE ( 'NONE', *, *, #37, .F. ) ;
#136 = LINE ( 'NONE', #218, #211 ) ;
#137 = DIRECTION ( 'NONE',  ( 0.000000000000000000, -0.000000000000000000, 1.000000000000000000 ) ) ;
#138 = DIRECTION ( 'NONE',  ( 0.000000000000000000, 0.000000000000000000, 1.000000000000000000 ) ) ;
#139 = ADVANCED_FACE ( 'NONE', ( #53 ), #1023, .T. ) ;
#140 = DIRECTION ( 'NONE',  ( -1.000000000000000000, 0.000000000000000000, 1.836970198721029934E-16 ) ) ;
#141 = ORIENTED_EDGE ( 'NONE', *, *, #719, .F. ) ;
#142 = DIRECTION ( 'NONE',  ( 2.312964634635742957E-16, 0.000000000000000000, 1.000000000000000000 ) ) ;
#143 = CARTESIAN_POINT ( 'NONE',  ( 23.99999999999999289, 30.00000000000000000, 4.382308546376023628 ) ) ;
#144 = AXIS2_PLACEMENT_3D ( 'NONE', #720, #170, #727 ) ;
#145 = APPROVAL_STATUS ( 'not_yet_approved' ) ;
#146 = EDGE_CURVE ( 'NONE', #134, #655, #933, .T. ) ;
#147 = ORIENTED_EDGE ( 'NONE', *, *, #532, .T. ) ;
#148 = ORIENTED_EDGE ( 'NONE', *, *, #850, .F. ) ;
#149 = DIRECTION ( 'NONE',  ( -2.602085213965210642E-16, 0.000000000000000000, -1.000000000000000000 ) ) ;
#150 = DIRECTION ( 'NONE',  ( 9.912705577010325549E-17, -1.000000000000000000, 0.000000000000000000 ) ) ;
#151 = ORIENTED_EDGE ( 'NONE', *, *, #519, .F. ) ;
#152 = ADVANCED_FACE ( 'NONE', ( #616 ), #376, .F. ) ;
#153 = CARTESIAN_POINT ( 'NONE',  ( 30.00000000000000711, 0.000000000000000000, 57.00000000000002132 ) ) ;
#154 = CARTESIAN_POINT ( 'NONE',  ( 80.00000000000000000, 0.000000000000000000, 14.99999999999999289 ) ) ;
#155 = VERTEX_POINT ( 'NONE', #42 ) ;
#156 = LINE ( 'NONE', #411, #228 ) ;
#157 = ORIENTED_EDGE ( 'NONE', *, *, #256, .T. ) ;
#158 = EDGE_CURVE ( 'NONE', #427, #51, #136, .T. ) ;
#159 = CARTESIAN_POINT ( 'NONE',  ( 7.897595264191655140, 30.00000000000000000, 13.67903625519528354 ) ) ;
#160 = DIRECTION ( 'NONE',  ( 0.000000000000000000, 1.000000000000000000, -0.000000000000000000 ) ) ;
#161 = DATE_AND_TIME ( #330, #476 ) ;
#162 = ORIENTED_EDGE ( 'NONE', *, *, #751, .F. ) ;
#163 = DIRECTION ( 'NONE',  ( -0.4999999999999996669, 0.000000000000000000, -0.8660254037844388186 ) ) ;
#164 = VECTOR ( 'NONE', #314, 1000.000000000000000 ) ;
#165 = ORIENTED_EDGE ( 'NONE', *, *, #685, .T. ) ;
#166 = CARTESIAN_POINT ( 'NONE',  ( 21.29999999999999716, 0.000000000000000000, 9.058845726811995291 ) ) ;
#167 = CC_DESIGN_DATE_AND_TIME_ASSIGNMENT ( #161, #885, ( #412 ) ) ;
#168 = AXIS2_PLACEMENT_3D ( 'NONE', #551, #861, #142 ) ;
#169 = ORIENTED_EDGE ( 'NONE', *, *, #390, .F. ) ;
#170 = DIRECTION ( 'NONE',  ( 0.000000000000000000, 0.000000000000000000, -1.000000000000000000 ) ) ;
#171 = DIRECTION ( 'NONE',  ( 0.8660254037844390407, 0.000000000000000000, -0.4999999999999992784 ) ) ;
#172 = ORIENTED_EDGE ( 'NONE', *, *, #532, .F. ) ;
#173 = ADVANCED_FACE ( 'NONE', ( #698 ), #282, .T. ) ;
#174 = CARTESIAN_POINT ( 'NONE',  ( 21.29999999999999716, 0.000000000000000000, 5.941154273188013590 ) ) ;
#175 = DIRECTION ( 'NONE',  ( -0.000000000000000000, 1.000000000000000000, -0.000000000000000000 ) ) ;
#176 = EDGE_LOOP ( 'NONE', ( #615, #758, #766, #700 ) ) ;
#177 = DIRECTION ( 'NONE',  ( 0.000000000000000000, 0.000000000000000000, 1.000000000000000000 ) ) ;
#178 = VECTOR ( 'NONE', #299, 1000.000000000000227 ) ;
#179 = VECTOR ( 'NONE', #594, 999.9999999999998863 ) ;
#180 = ORIENTED_EDGE ( 'NONE', *, *, #501, .T. ) ;
#181 = CARTESIAN_POINT ( 'NONE',  ( -23.99999999999999289, 30.00000000000000000, 4.382308546376029845 ) ) ;
#182 = DIRECTION ( 'NONE',  ( 0.000000000000000000, 0.000000000000000000, -1.000000000000000000 ) ) ;
#183 = CARTESIAN_POINT ( 'NONE',  ( 33.00000000000001421, 0.000000000000000000, 55.00000000000000000 ) ) ;
#184 = ADVANCED_FACE ( 'NONE', ( #60 ), #1005, .F. ) ;
#185 = ORIENTED_EDGE ( 'NONE', *, *, #707, .F. ) ;
#186 = FACE_BOUND ( 'NONE', #259, .T. ) ;
#187 = LINE ( 'NONE', #196, #179 ) ;
#188 = EDGE_LOOP ( 'NONE', ( #618, #59, #860, #645 ) ) ;
#189 = EDGE_CURVE ( 'NONE', #1022, #523, #630, .T. ) ;
#190 = LINE ( 'NONE', #104, #887 ) ;
#191 = CARTESIAN_POINT ( 'NONE',  ( 30.00000000000000000, 30.00000000000000000, -3.081487911019577365E-30 ) ) ;
#192 = PLANE ( 'NONE',  #832 ) ;
#193 = AXIS2_PLACEMENT_3D ( 'NONE', #50, #291, #842 ) ;
#194 = EDGE_LOOP ( 'NONE', ( #922, #992, #561, #690 ) ) ;
#195 = ORIENTED_EDGE ( 'NONE', *, *, #123, .F. ) ;
#196 = CARTESIAN_POINT ( 'NONE',  ( 4.102404735808340419, 30.00000000000000000, -7.105573435631232115 ) ) ;
#197 = EDGE_CURVE ( 'NONE', #116, #217, #469, .T. ) ;
#198 = VECTOR ( 'NONE', #464, 1000.000000000000000 ) ;
#199 = VERTEX_POINT ( 'NONE', #936 ) ;
#200 = ORIENTED_EDGE ( 'NONE', *, *, #685, .F. ) ;
#201 = CARTESIAN_POINT ( 'NONE',  ( -23.99999999999999645, 30.00000000000000000, 10.61769145362398703 ) ) ;
#202 = EDGE_CURVE ( 'NONE', #39, #622, #371, .T. ) ;
#203 = ORIENTED_EDGE ( 'NONE', *, *, #392, .F. ) ;
#204 = DIRECTION ( 'NONE',  ( 1.836970198721029934E-16, -0.000000000000000000, 1.000000000000000000 ) ) ;
#205 = ORIENTED_EDGE ( 'NONE', *, *, #596, .F. ) ;
#206 = LOCAL_TIME ( 23, 30, 41.00000000000000000, #705 ) ;
#207 = AXIS2_PLACEMENT_3D ( 'NONE', #649, #560, #965 ) ;
#208 = VECTOR ( 'NONE', #915, 1000.000000000000000 ) ;
#209 = CARTESIAN_POINT ( 'NONE',  ( -29.99999999999999645, 0.000000000000000000, 15.00000000000001066 ) ) ;
#210 = PLANE ( 'NONE',  #437 ) ;
#211 = VECTOR ( 'NONE', #770, 1000.000000000000000 ) ;
#212 = EDGE_LOOP ( 'NONE', ( #955, #961, #931, #463, #1051, #87, #352, #810 ) ) ;
#213 = ADVANCED_FACE ( 'NONE', ( #777 ), #857, .F. ) ;
#214 = CARTESIAN_POINT ( 'NONE',  ( 26.69999999999999574, 30.00000000000000000, 0.000000000000000000 ) ) ;
#215 = DATE_AND_TIME ( #531, #111 ) ;
#216 = DIRECTION ( 'NONE',  ( -0.8660254037844385966, 0.000000000000000000, -0.5000000000000001110 ) ) ;
#217 = VERTEX_POINT ( 'NONE', #296 ) ;
#218 = CARTESIAN_POINT ( 'NONE',  ( 30.00000000000001421, 0.000000000000000000, 55.00000000000001421 ) ) ;
#219 = CARTESIAN_POINT ( 'NONE',  ( -23.99999999999999289, 0.000000000000000000, 4.382308546376029845 ) ) ;
#220 = ADVANCED_FACE ( 'NONE', ( #625 ), #942, .F. ) ;
#221 = CALENDAR_DATE ( 2026, 26, 6 ) ;
#222 = CARTESIAN_POINT ( 'NONE',  ( 33.00000000000001421, 0.000000000000000000, 55.00000000000002132 ) ) ;
#223 = ORIENTED_EDGE ( 'NONE', *, *, #919, .F. ) ;
#224 = ORIENTED_EDGE ( 'NONE', *, *, #57, .T. ) ;
#225 = DIRECTION ( 'NONE',  ( -0.000000000000000000, -0.000000000000000000, -1.000000000000000000 ) ) ;
#226 = CARTESIAN_POINT ( 'NONE',  ( 30.00000000000000355, 0.000000000000000000, 15.00000000000000533 ) ) ;
#227 = VECTOR ( 'NONE', #667, 1000.000000000000227 ) ;
#228 = VECTOR ( 'NONE', #482, 1000.000000000000000 ) ;
#229 = PERSON_AND_ORGANIZATION_ROLE ( 'classification_officer' ) ;
#230 = AXIS2_PLACEMENT_3D ( 'NONE', #21, #511, #827 ) ;
#231 = ADVANCED_FACE ( 'NONE', ( #783 ), #391, .F. ) ;
#232 = DIRECTION ( 'NONE',  ( -1.000000000000000000, -0.000000000000000000, 1.836970198721029934E-16 ) ) ;
#233 = FACE_OUTER_BOUND ( 'NONE', #815, .T. ) ;
#234 = SECURITY_CLASSIFICATION_LEVEL ( 'unclassified' ) ;
#235 = ORIENTED_EDGE ( 'NONE', *, *, #390, .T. ) ;
#236 = PLANE ( 'NONE',  #670 ) ;
#237 = PRODUCT_DEFINITION ( 'UNKNOWN', '', #99, #680 ) ;
#238 = LINE ( 'NONE', #153, #575 ) ;
#239 = DIRECTION ( 'NONE',  ( 1.000000000000000000, 0.000000000000000000, 0.000000000000000000 ) ) ;
#240 = VERTEX_POINT ( 'NONE', #302 ) ;
#241 = DIRECTION ( 'NONE',  ( 0.000000000000000000, -1.000000000000000000, 0.000000000000000000 ) ) ;
#242 = DIRECTION ( 'NONE',  ( 0.000000000000000000, 1.000000000000000000, 0.000000000000000000 ) ) ;
#243 = FACE_OUTER_BOUND ( 'NONE', #449, .T. ) ;
#244 = ORIENTED_EDGE ( 'NONE', *, *, #197, .T. ) ;
#245 = CARTESIAN_POINT ( 'NONE',  ( -23.99999999999999289, 0.000000000000000000, 4.382308546376029845 ) ) ;
#246 = AXIS2_PLACEMENT_3D ( 'NONE', #10, #967, #182 ) ;
#247 = ORIENTED_EDGE ( 'NONE', *, *, #838, .T. ) ;
#248 = CARTESIAN_POINT ( 'NONE',  ( -30.00000000000000000, 30.00000000000000000, 1.102182119232617596E-14 ) ) ;
#249 = AXIS2_PLACEMENT_3D ( 'NONE', #382, #701, #125 ) ;
#250 = EDGE_CURVE ( 'NONE', #89, #947, #557, .T. ) ;
#251 = ORIENTED_EDGE ( 'NONE', *, *, #653, .T. ) ;
#252 = DIRECTION ( 'NONE',  ( -4.956352788505162775E-17, 1.000000000000000000, -0.000000000000000000 ) ) ;
#253 = PLANE ( 'NONE',  #1035 ) ;
#254 = LINE ( 'NONE', #792, #441 ) ;
#255 = ORIENTED_EDGE ( 'NONE', *, *, #443, .F. ) ;
#256 = EDGE_CURVE ( 'NONE', #315, #92, #882, .T. ) ;
#257 = DIRECTION ( 'NONE',  ( -0.000000000000000000, 1.000000000000000000, -0.000000000000000000 ) ) ;
#258 = CARTESIAN_POINT ( 'NONE',  ( 77.00000000000001421, 0.000000000000000000, -57.99999999999997868 ) ) ;
#259 = EDGE_LOOP ( 'NONE', ( #740, #782, #726, #162, #124, #46 ) ) ;
#260 = VERTEX_POINT ( 'NONE', #307 ) ;
#261 = CARTESIAN_POINT ( 'NONE',  ( 80.00000000000000000, -40.00000000000000711, 14.99999999999999289 ) ) ;
#262 = EDGE_CURVE ( 'NONE', #891, #957, #716, .T. ) ;
#263 = VECTOR ( 'NONE', #374, 1000.000000000000000 ) ;
#264 = VERTEX_POINT ( 'NONE', #484 ) ;
#265 = PLANE ( 'NONE',  #230 ) ;
#266 = VECTOR ( 'NONE', #65, 1000.000000000000000 ) ;
#267 = CARTESIAN_POINT ( 'NONE',  ( 23.99999999999999645, 30.00000000000000000, 10.61769145362398170 ) ) ;
#268 = EDGE_CURVE ( 'NONE', #155, #684, #1037, .T. ) ;
#269 = ORIENTED_EDGE ( 'NONE', *, *, #983, .F. ) ;
#270 = CARTESIAN_POINT ( 'NONE',  ( 23.99999999999999289, 0.000000000000000000, 4.382308546376023628 ) ) ;
#271 = DIRECTION ( 'NONE',  ( 0.000000000000000000, 0.000000000000000000, -1.000000000000000000 ) ) ;
#272 = ORIENTED_EDGE ( 'NONE', *, *, #583, .F. ) ;
#273 = EDGE_CURVE ( 'NONE', #306, #523, #399, .T. ) ;
#274 = ORIENTED_EDGE ( 'NONE', *, *, #719, .T. ) ;
#275 = CARTESIAN_POINT ( 'NONE',  ( 30.00000000000000711, 0.000000000000000000, 57.00000000000002132 ) ) ;
#276 = VECTOR ( 'NONE', #1003, 1000.000000000000000 ) ;
#277 = ORIENTED_EDGE ( 'NONE', *, *, #64, .F. ) ;
#278 = DIRECTION ( 'NONE',  ( 2.602085213965210149E-16, -0.000000000000000000, 1.000000000000000000 ) ) ;
#279 = EDGE_CURVE ( 'NONE', #434, #498, #871, .T. ) ;
#280 = CARTESIAN_POINT ( 'NONE',  ( 21.29999999999999716, 0.000000000000000000, 5.941154273188013590 ) ) ;
#281 = ORIENTED_EDGE ( 'NONE', *, *, #13, .T. ) ;
#282 = PLANE ( 'NONE',  #510 ) ;
#283 = ORIENTED_EDGE ( 'NONE', *, *, #501, .F. ) ;
#284 = CARTESIAN_POINT ( 'NONE',  ( 77.00000000000001421, -25.00000000000000711, 14.99999999999997158 ) ) ;
#285 = DIRECTION ( 'NONE',  ( 1.000000000000000000, 0.000000000000000000, 0.000000000000000000 ) ) ;
#286 = EDGE_CURVE ( 'NONE', #957, #39, #496, .T. ) ;
#287 = ORIENTED_EDGE ( 'NONE', *, *, #486, .T. ) ;
#288 =( GEOMETRIC_REPRESENTATION_CONTEXT ( 3 ) GLOBAL_UNCERTAINTY_ASSIGNED_CONTEXT ( ( #524 ) ) GLOBAL_UNIT_ASSIGNED_CONTEXT ( ( #1006, #377, #535 ) ) REPRESENTATION_CONTEXT ( 'NONE', 'WORKASPACE' ) );
#289 = DIRECTION ( 'NONE',  ( 1.000000000000000000, 0.000000000000000000, -1.836970198721029934E-16 ) ) ;
#290 = APPROVAL_ROLE ( '' ) ;
#291 = DIRECTION ( 'NONE',  ( -0.000000000000000000, 1.000000000000000000, 0.000000000000000000 ) ) ;
#292 = CARTESIAN_POINT ( 'NONE',  ( -1.402404735808338021, 30.00000000000000000, -2.429036255195254235 ) ) ;
#293 = AXIS2_PLACEMENT_3D ( 'NONE', #958, #581, #803 ) ;
#294 = ADVANCED_FACE ( 'NONE', ( #964 ), #70, .T. ) ;
#295 = ORIENTED_EDGE ( 'NONE', *, *, #900, .T. ) ;
#296 = CARTESIAN_POINT ( 'NONE',  ( -29.99999999999998934, -40.00000000000000711, 15.00000000000000533 ) ) ;
#297 = PLANE ( 'NONE',  #587 ) ;
#298 = DIRECTION ( 'NONE',  ( 0.5000000000000001110, 0.000000000000000000, -0.8660254037844385966 ) ) ;
#299 = DIRECTION ( 'NONE',  ( 0.8660254037844390407, 0.000000000000000000, -0.4999999999999992228 ) ) ;
#300 = EDGE_LOOP ( 'NONE', ( #722, #101, #30, #946, #1025, #274 ) ) ;
#301 = PRODUCT_RELATED_PRODUCT_CATEGORY ( 'detail', '', ( #80 ) ) ;
#302 = CARTESIAN_POINT ( 'NONE',  ( 33.00000000000001421, -25.00000000000000711, 55.00000000000001421 ) ) ;
#303 = EDGE_CURVE ( 'NONE', #264, #913, #238, .T. ) ;
#304 = APPROVAL_ROLE ( '' ) ;
#305 = LINE ( 'NONE', #68, #765 ) ;
#306 = VERTEX_POINT ( 'NONE', #564 ) ;
#307 = CARTESIAN_POINT ( 'NONE',  ( 80.00000000000000000, 0.000000000000000000, 14.99999999999999289 ) ) ;
#308 = CARTESIAN_POINT ( 'NONE',  ( -26.69999999999999574, 0.000000000000000000, 5.941154273188018919 ) ) ;
#309 = VECTOR ( 'NONE', #516, 1000.000000000000000 ) ;
#310 = PERSON_AND_ORGANIZATION ( #473, #1019 ) ;
#311 = EDGE_CURVE ( 'NONE', #533, #1045, #254, .T. ) ;
#312 = LINE ( 'NONE', #895, #987 ) ;
#313 = CARTESIAN_POINT ( 'NONE',  ( -29.99999999999999645, 30.00000000000000000, 25.00000000000000355 ) ) ;
#314 = DIRECTION ( 'NONE',  ( -0.000000000000000000, 1.000000000000000000, -0.000000000000000000 ) ) ;
#315 = VERTEX_POINT ( 'NONE', #166 ) ;
#316 = CARTESIAN_POINT ( 'NONE',  ( 23.99999999999999645, 0.000000000000000000, 10.61769145362398170 ) ) ;
#317 = LINE ( 'NONE', #959, #97 ) ;
#318 = VERTEX_POINT ( 'NONE', #478 ) ;
#319 = CARTESIAN_POINT ( 'NONE',  ( -23.99999999999999289, 0.000000000000000000, 4.382308546376029845 ) ) ;
#320 = EDGE_LOOP ( 'NONE', ( #338, #835, #517, #418 ) ) ;
#321 = LINE ( 'NONE', #648, #28 ) ;
#322 = FACE_OUTER_BOUND ( 'NONE', #341, .T. ) ;
#323 = APPROVAL_ROLE ( '' ) ;
#324 = EDGE_LOOP ( 'NONE', ( #357, #467, #840, #488 ) ) ;
#325 = DIRECTION ( 'NONE',  ( -4.625929269271485914E-16, -1.000000000000000000, 1.027162637006525861E-31 ) ) ;
#326 = CARTESIAN_POINT ( 'NONE',  ( 80.00000000000001421, -40.00000000000000711, 57.00000000000002132 ) ) ;
#327 = ORIENTED_EDGE ( 'NONE', *, *, #311, .F. ) ;
#328 = ADVANCED_FACE ( 'NONE', ( #393 ), #797, .F. ) ;
#329 = FACE_OUTER_BOUND ( 'NONE', #1013, .T. ) ;
#330 = CALENDAR_DATE ( 2026, 26, 6 ) ;
#331 = VERTEX_POINT ( 'NONE', #711 ) ;
#332 = VECTOR ( 'NONE', #824, 1000.000000000000000 ) ;
#333 = LINE ( 'NONE', #976, #781 ) ;
#334 = VERTEX_POINT ( 'NONE', #638 ) ;
#335 = ADVANCED_FACE ( 'NONE', ( #809 ), #503, .F. ) ;
#336 = DIRECTION ( 'NONE',  ( -0.8660254037844384856, 0.000000000000000000, 0.5000000000000004441 ) ) ;
#337 = DATE_AND_TIME ( #480, #912 ) ;
#338 = ORIENTED_EDGE ( 'NONE', *, *, #202, .T. ) ;
#339 = FACE_OUTER_BOUND ( 'NONE', #413, .T. ) ;
#340 = VERTEX_POINT ( 'NONE', #723 ) ;
#341 = EDGE_LOOP ( 'NONE', ( #731, #362, #849, #151 ) ) ;
#342 = EDGE_CURVE ( 'NONE', #776, #264, #321, .T. ) ;
#343 = LINE ( 'NONE', #663, #699 ) ;
#344 = LINE ( 'NONE', #664, #536 ) ;
#345 = ORIENTED_EDGE ( 'NONE', *, *, #568, .F. ) ;
#346 = CARTESIAN_POINT ( 'NONE',  ( 30.00000000000000000, 30.00000000000000000, -3.081487911019577365E-30 ) ) ;
#347 = EDGE_CURVE ( 'NONE', #493, #481, #414, .T. ) ;
#348 = CARTESIAN_POINT ( 'NONE',  ( 23.99999999999999645, 0.000000000000000000, 10.61769145362398170 ) ) ;
#349 = LINE ( 'NONE', #817, #970 ) ;
#350 = VECTOR ( 'NONE', #997, 1000.000000000000000 ) ;
#351 = VECTOR ( 'NONE', #744, 1000.000000000000000 ) ;
#352 = ORIENTED_EDGE ( 'NONE', *, *, #838, .F. ) ;
#353 = ORIENTED_EDGE ( 'NONE', *, *, #923, .F. ) ;
#354 = VECTOR ( 'NONE', #657, 1000.000000000000000 ) ;
#355 = CARTESIAN_POINT ( 'NONE',  ( 80.00000000000000000, 0.000000000000000000, 14.99999999999999289 ) ) ;
#356 = FACE_OUTER_BOUND ( 'NONE', #821, .T. ) ;
#357 = ORIENTED_EDGE ( 'NONE', *, *, #508, .T. ) ;
#358 = DIRECTION ( 'NONE',  ( 0.8660254037844390407, 0.000000000000000000, 0.4999999999999992784 ) ) ;
#359 = CC_DESIGN_SECURITY_CLASSIFICATION ( #412, ( #99 ) ) ;
#360 = CARTESIAN_POINT ( 'NONE',  ( 33.00000000000001421, -25.00000000000000711, 14.99999999999997158 ) ) ;
#361 = ADVANCED_FACE ( 'NONE', ( #329 ), #654, .F. ) ;
#362 = ORIENTED_EDGE ( 'NONE', *, *, #963, .T. ) ;
#363 = ORIENTED_EDGE ( 'NONE', *, *, #1043, .F. ) ;
#364 = CARTESIAN_POINT ( 'NONE',  ( 0.000000000000000000, -25.00000000000000711, 15.00000000000000533 ) ) ;
#365 = LINE ( 'NONE', #261, #367 ) ;
#366 = CC_DESIGN_APPROVAL ( #43, ( #237 ) ) ;
#367 = VECTOR ( 'NONE', #428, 1000.000000000000000 ) ;
#368 = EDGE_LOOP ( 'NONE', ( #710, #363, #141, #25 ) ) ;
#369 = DIRECTION ( 'NONE',  ( -0.000000000000000000, -0.000000000000000000, 1.000000000000000000 ) ) ;
#370 = ORIENTED_EDGE ( 'NONE', *, *, #919, .T. ) ;
#371 = LINE ( 'NONE', #214, #1039 ) ;
#372 = CARTESIAN_POINT ( 'NONE',  ( 80.00000000000000000, 1.354169492147274684E-30, -1.937107881507434799E-14 ) ) ;
#373 = EDGE_CURVE ( 'NONE', #1022, #427, #93, .T. ) ;
#374 = DIRECTION ( 'NONE',  ( -1.000000000000000000, 0.000000000000000000, 1.836970198721029934E-16 ) ) ;
#375 = ORIENTED_EDGE ( 'NONE', *, *, #762, .T. ) ;
#376 = PLANE ( 'NONE',  #456 ) ;
#377 =( NAMED_UNIT ( * ) PLANE_ANGLE_UNIT ( ) SI_UNIT ( $, .RADIAN. ) );
#378 = VECTOR ( 'NONE', #862, 1000.000000000000000 ) ;
#379 = EDGE_CURVE ( 'NONE', #843, #498, #7, .T. ) ;
#380 = ORIENTED_EDGE ( 'NONE', *, *, #971, .T. ) ;
#381 = VECTOR ( 'NONE', #573, 1000.000000000000000 ) ;
#382 = CARTESIAN_POINT ( 'NONE',  ( -30.00000000000000000, 30.00000000000000000, 1.102182119232617596E-14 ) ) ;
#383 = LINE ( 'NONE', #621, #396 ) ;
#384 = PLANE ( 'NONE',  #487 ) ;
#385 = VECTOR ( 'NONE', #278, 1000.000000000000000 ) ;
#386 = LINE ( 'NONE', #628, #263 ) ;
#387 = VECTOR ( 'NONE', #1052, 1000.000000000000000 ) ;
#388 = APPROVAL ( #725, 'UNSPECIFIED' ) ;
#389 = ORIENTED_EDGE ( 'NONE', *, *, #601, .T. ) ;
#390 = EDGE_CURVE ( 'NONE', #426, #199, #383, .T. ) ;
#391 = PLANE ( 'NONE',  #128 ) ;
#392 = EDGE_CURVE ( 'NONE', #804, #481, #852, .T. ) ;
#393 = FACE_OUTER_BOUND ( 'NONE', #117, .T. ) ;
#394 = CARTESIAN_POINT ( 'NONE',  ( 30.00000000000000355, 30.00000000000000000, 25.00000000000000355 ) ) ;
#395 = DIRECTION ( 'NONE',  ( -1.000000000000000000, -0.000000000000000000, -0.000000000000000000 ) ) ;
#396 = VECTOR ( 'NONE', #61, 1000.000000000000000 ) ;
#397 = ORIENTED_EDGE ( 'NONE', *, *, #640, .T. ) ;
#398 = VECTOR ( 'NONE', #639, 1000.000000000000000 ) ;
#399 = LINE ( 'NONE', #559, #266 ) ;
#400 = CARTESIAN_POINT ( 'NONE',  ( 21.29999999999999716, 30.00000000000000000, 5.941154273188013590 ) ) ;
#401 = CC_DESIGN_PERSON_AND_ORGANIZATION_ASSIGNMENT ( #73, #229, ( #412 ) ) ;
#402 = AXIS2_PLACEMENT_3D ( 'NONE', #62, #298, #1029 ) ;
#403 = COORDINATED_UNIVERSAL_TIME_OFFSET ( 9, 0, .AHEAD. ) ;
#404 = EDGE_LOOP ( 'NONE', ( #935, #185, #129, #224 ) ) ;
#405 = LINE ( 'NONE', #1049, #521 ) ;
#406 = DIRECTION ( 'NONE',  ( 1.000000000000000000, 0.000000000000000000, 0.000000000000000000 ) ) ;
#407 = DIRECTION ( 'NONE',  ( -0.4999999999999992784, 0.000000000000000000, 0.8660254037844390407 ) ) ;
#408 = ORIENTED_EDGE ( 'NONE', *, *, #268, .F. ) ;
#409 = CARTESIAN_POINT ( 'NONE',  ( -60.00000000000000000, 30.00000000000000000, 1.102182119232617911E-14 ) ) ;
#410 = ADVANCED_FACE ( 'NONE', ( #703 ), #534, .F. ) ;
#411 = CARTESIAN_POINT ( 'NONE',  ( 33.00000000000001421, -25.00000000000000711, -57.99999999999997868 ) ) ;
#412 = SECURITY_CLASSIFICATION ( '', '', #234 ) ;
#413 = EDGE_LOOP ( 'NONE', ( #886, #205, #665, #737 ) ) ;
#414 = LINE ( 'NONE', #730, #387 ) ;
#415 = EDGE_LOOP ( 'NONE', ( #84, #555, #799, #775 ) ) ;
#416 = PLANE ( 'NONE',  #814 ) ;
#417 = ADVANCED_FACE ( 'NONE', ( #778 ), #297, .F. ) ;
#418 = ORIENTED_EDGE ( 'NONE', *, *, #658, .T. ) ;
#419 = CARTESIAN_POINT ( 'NONE',  ( -29.99999999999999645, 0.000000000000000000, 15.00000000000001066 ) ) ;
#420 = DATE_AND_TIME ( #841, #105 ) ;
#421 = VERTEX_POINT ( 'NONE', #219 ) ;
#422 = PLANE ( 'NONE',  #246 ) ;
#423 = AXIS2_PLACEMENT_3D ( 'NONE', #110, #818, #682 ) ;
#424 = CARTESIAN_POINT ( 'NONE',  ( -69.99999999999998579, 30.00000000000000000, 25.00000000000001421 ) ) ;
#425 = EDGE_CURVE ( 'NONE', #483, #866, #928, .T. ) ;
#426 = VERTEX_POINT ( 'NONE', #943 ) ;
#427 = VERTEX_POINT ( 'NONE', #226 ) ;
#428 = DIRECTION ( 'NONE',  ( 0.000000000000000000, 1.000000000000000000, 0.000000000000000000 ) ) ;
#429 = ORIENTED_EDGE ( 'NONE', *, *, #707, .T. ) ;
#430 = EDGE_CURVE ( 'NONE', #51, #642, #552, .T. ) ;
#431 = CARTESIAN_POINT ( 'NONE',  ( 21.29999999999999716, 30.00000000000000000, 9.058845726811995291 ) ) ;
#432 = CARTESIAN_POINT ( 'NONE',  ( 26.69999999999999574, 30.00000000000000000, 5.941154273188011814 ) ) ;
#433 = DIRECTION ( 'NONE',  ( -0.5000000000000004441, 0.000000000000000000, -0.8660254037844384856 ) ) ;
#434 = VERTEX_POINT ( 'NONE', #143 ) ;
#435 = VERTEX_POINT ( 'NONE', #771 ) ;
#436 = LINE ( 'NONE', #355, #617 ) ;
#437 = AXIS2_PLACEMENT_3D ( 'NONE', #543, #786, #140 ) ;
#438 = AXIS2_PLACEMENT_3D ( 'NONE', #127, #138, #285 ) ;
#439 = ORIENTED_EDGE ( 'NONE', *, *, #596, .T. ) ;
#440 = ORIENTED_EDGE ( 'NONE', *, *, #262, .F. ) ;
#441 = VECTOR ( 'NONE', #875, 1000.000000000000114 ) ;
#442 = LINE ( 'NONE', #23, #637 ) ;
#443 = EDGE_CURVE ( 'NONE', #523, #116, #66, .T. ) ;
#444 = ORIENTED_EDGE ( 'NONE', *, *, #425, .F. ) ;
#445 = CARTESIAN_POINT ( 'NONE',  ( 33.00000000000001421, 0.000000000000000000, 55.00000000000001421 ) ) ;
#446 = CARTESIAN_POINT ( 'NONE',  ( -7.897595264191649811, 30.00000000000000000, 13.67903625519528354 ) ) ;
#447 = LINE ( 'NONE', #608, #38 ) ;
#448 = ADVANCED_FACE ( 'NONE', ( #243 ), #570, .F. ) ;
#449 = EDGE_LOOP ( 'NONE', ( #281, #440, #277, #157 ) ) ;
#450 = LINE ( 'NONE', #764, #1021 ) ;
#451 = VECTOR ( 'NONE', #118, 1000.000000000000227 ) ;
#452 = ORIENTED_EDGE ( 'NONE', *, *, #820, .T. ) ;
#453 = ADVANCED_FACE ( 'NONE', ( #233 ), #876, .F. ) ;
#454 = DIRECTION ( 'NONE',  ( 0.000000000000000000, 0.000000000000000000, -1.000000000000000000 ) ) ;
#455 = CARTESIAN_POINT ( 'NONE',  ( -4.102404735808343084, 30.00000000000000000, -7.105573435631233892 ) ) ;
#456 = AXIS2_PLACEMENT_3D ( 'NONE', #474, #1009, #458 ) ;
#457 = EDGE_LOOP ( 'NONE', ( #839, #272, #408, #148, #130, #375 ) ) ;
#458 = DIRECTION ( 'NONE',  ( -0.000000000000000000, 0.000000000000000000, 1.000000000000000000 ) ) ;
#459 = DIRECTION ( 'NONE',  ( -4.956352788505162775E-17, 1.000000000000000000, -0.000000000000000000 ) ) ;
#460 = EDGE_CURVE ( 'NONE', #866, #1045, #485, .T. ) ;
#461 = PERSON_AND_ORGANIZATION ( #473, #1019 ) ;
#462 = ORIENTED_EDGE ( 'NONE', *, *, #373, .T. ) ;
#463 = ORIENTED_EDGE ( 'NONE', *, *, #526, .F. ) ;
#464 = DIRECTION ( 'NONE',  ( 3.469446951953616161E-16, 3.469446951953616161E-16, 1.000000000000000000 ) ) ;
#465 = APPROVAL_DATE_TIME ( #215, #43 ) ;
#466 = EDGE_CURVE ( 'NONE', #103, #483, #717, .T. ) ;
#467 = ORIENTED_EDGE ( 'NONE', *, *, #72, .F. ) ;
#468 = VECTOR ( 'NONE', #805, 1000.000000000000000 ) ;
#469 = LINE ( 'NONE', #844, #40 ) ;
#470 = CARTESIAN_POINT ( 'NONE',  ( -26.69999999999999574, 0.000000000000000000, 5.941154273188018919 ) ) ;
#471 = ADVANCED_FACE ( 'NONE', ( #322 ), #953, .F. ) ;
#472 = ORIENTED_EDGE ( 'NONE', *, *, #601, .F. ) ;
#473 = PERSON ( 'UNSPECIFIED', 'UNSPECIFIED', 'UNSPECIFIED', ('UNSPECIFIED'), ('UNSPECIFIED'), ('UNSPECIFIED') ) ;
#474 = CARTESIAN_POINT ( 'NONE',  ( 21.29999999999999716, 0.000000000000000000, 9.058845726811995291 ) ) ;
#475 = CARTESIAN_POINT ( 'NONE',  ( -26.69999999999999574, 0.000000000000000000, 9.058845726812000620 ) ) ;
#476 = LOCAL_TIME ( 23, 30, 41.00000000000000000, #67 ) ;
#477 = ORIENTED_EDGE ( 'NONE', *, *, #983, .T. ) ;
#478 = CARTESIAN_POINT ( 'NONE',  ( -70.00000000000001421, 0.000000000000000000, -57.99999999999998579 ) ) ;
#479 = LINE ( 'NONE', #793, #652 ) ;
#480 = CALENDAR_DATE ( 2026, 26, 6 ) ;
#481 = VERTEX_POINT ( 'NONE', #1038 ) ;
#482 = DIRECTION ( 'NONE',  ( -0.000000000000000000, -0.000000000000000000, 1.000000000000000000 ) ) ;
#483 = VERTEX_POINT ( 'NONE', #872 ) ;
#484 = CARTESIAN_POINT ( 'NONE',  ( 80.00000000000001421, 0.000000000000000000, 57.00000000000002132 ) ) ;
#485 = LINE ( 'NONE', #798, #398 ) ;
#486 = EDGE_CURVE ( 'NONE', #981, #427, #565, .T. ) ;
#487 = AXIS2_PLACEMENT_3D ( 'NONE', #372, #49, #1010 ) ;
#488 = ORIENTED_EDGE ( 'NONE', *, *, #347, .T. ) ;
#489 = LINE ( 'NONE', #893, #522 ) ;
#490 = EDGE_LOOP ( 'NONE', ( #586, #100, #650, #549, #528 ) ) ;
#491 = AXIS2_PLACEMENT_3D ( 'NONE', #81, #88, #406 ) ;
#492 = DIRECTION ( 'NONE',  ( -0.4999999999999997224, 0.000000000000000000, 0.8660254037844388186 ) ) ;
#493 = VERTEX_POINT ( 'NONE', #71 ) ;
#494 = EDGE_CURVE ( 'NONE', #116, #629, #479, .T. ) ;
#495 = FACE_OUTER_BOUND ( 'NONE', #610, .T. ) ;
#496 = LINE ( 'NONE', #1046, #354 ) ;
#497 = PRODUCT_DEFINITION_SHAPE ( 'NONE', 'NONE',  #237 ) ;
#498 = VERTEX_POINT ( 'NONE', #400 ) ;
#499 = FACE_OUTER_BOUND ( 'NONE', #20, .T. ) ;
#500 = LINE ( 'NONE', #812, #556 ) ;
#501 = EDGE_CURVE ( 'NONE', #134, #426, #317, .T. ) ;
#502 = APPLICATION_CONTEXT ( 'configuration controlled 3d designs of mechanical parts and assemblies' ) ;
#503 = PLANE ( 'NONE',  #704 ) ;
#504 = VECTOR ( 'NONE', #1047, 1000.000000000000000 ) ;
#505 = VERTEX_POINT ( 'NONE', #668 ) ;
#506 = VECTOR ( 'NONE', #11, 1000.000000000000000 ) ;
#507 = FACE_OUTER_BOUND ( 'NONE', #176, .T. ) ;
#508 = EDGE_CURVE ( 'NONE', #481, #1, #755, .T. ) ;
#509 = ORIENTED_EDGE ( 'NONE', *, *, #37, .T. ) ;
#510 = AXIS2_PLACEMENT_3D ( 'NONE', #1015, #546, #620 ) ;
#511 = DIRECTION ( 'NONE',  ( -0.000000000000000000, 1.000000000000000000, 0.000000000000000000 ) ) ;
#512 = FACE_BOUND ( 'NONE', #300, .T. ) ;
#513 = PLANE ( 'NONE',  #604 ) ;
#514 = ORIENTED_EDGE ( 'NONE', *, *, #508, .F. ) ;
#515 = DIRECTION ( 'NONE',  ( 1.000000000000000000, 0.000000000000000000, 0.000000000000000000 ) ) ;
#516 = DIRECTION ( 'NONE',  ( 0.8660254037844385966, -0.000000000000000000, -0.5000000000000001110 ) ) ;
#517 = ORIENTED_EDGE ( 'NONE', *, *, #653, .F. ) ;
#518 = DIRECTION ( 'NONE',  ( -0.000000000000000000, 1.000000000000000000, -0.000000000000000000 ) ) ;
#519 = EDGE_CURVE ( 'NONE', #1004, #134, #760, .T. ) ;
#520 = CARTESIAN_POINT ( 'NONE',  ( -23.99999999999999645, 0.000000000000000000, 10.61769145362398703 ) ) ;
#521 = VECTOR ( 'NONE', #562, 1000.000000000000000 ) ;
#522 = VECTOR ( 'NONE', #177, 1000.000000000000000 ) ;
#523 = VERTEX_POINT ( 'NONE', #1002 ) ;
#524 = UNCERTAINTY_MEASURE_WITH_UNIT (LENGTH_MEASURE( 1.000000000000000082E-05 ), #1006, 'distance_accuracy_value', 'NONE');
#525 = LINE ( 'NONE', #108, #351 ) ;
#526 = EDGE_CURVE ( 'NONE', #318, #306, #22, .T. ) ;
#527 = LINE ( 'NONE', #837, #451 ) ;
#528 = ORIENTED_EDGE ( 'NONE', *, *, #430, .F. ) ;
#529 = CARTESIAN_POINT ( 'NONE',  ( -29.99999999999999645, 30.00000000000000000, 15.00000000000000533 ) ) ;
#530 = DIRECTION ( 'NONE',  ( 2.312964634635742957E-16, 0.000000000000000000, 1.000000000000000000 ) ) ;
#531 = CALENDAR_DATE ( 2026, 26, 6 ) ;
#532 = EDGE_CURVE ( 'NONE', #629, #51, #121, .T. ) ;
#533 = VERTEX_POINT ( 'NONE', #2 ) ;
#534 = PLANE ( 'NONE',  #1033 ) ;
#535 =( NAMED_UNIT ( * ) SI_UNIT ( $, .STERADIAN. ) SOLID_ANGLE_UNIT ( ) );
#536 = VECTOR ( 'NONE', #985, 1000.000000000000000 ) ;
#537 = CC_DESIGN_PERSON_AND_ORGANIZATION_ASSIGNMENT ( #779, #55, ( #237 ) ) ;
#538 = ORIENTED_EDGE ( 'NONE', *, *, #673, .F. ) ;
#539 = DIRECTION ( 'NONE',  ( 1.000000000000000000, 0.000000000000000000, 0.000000000000000000 ) ) ;
#540 = CARTESIAN_POINT ( 'NONE',  ( 21.29999999999999716, 0.000000000000000000, 5.941154273188013590 ) ) ;
#541 = PERSON_AND_ORGANIZATION ( #473, #1019 ) ;
#542 = DIRECTION ( 'NONE',  ( -1.000000000000000000, 4.625929269271486900E-16, 1.836970198721029934E-16 ) ) ;
#543 = CARTESIAN_POINT ( 'NONE',  ( -1.065442715258197367E-14, 0.000000000000000000, -58.00000000000000000 ) ) ;
#544 = ORIENTED_EDGE ( 'NONE', *, *, #392, .T. ) ;
#545 = ORIENTED_EDGE ( 'NONE', *, *, #123, .T. ) ;
#546 = DIRECTION ( 'NONE',  ( -1.000000000000000000, -4.513898307157582388E-32, 2.602085213965210149E-16 ) ) ;
#547 = DIRECTION ( 'NONE',  ( 0.000000000000000000, 1.000000000000000000, 0.000000000000000000 ) ) ;
#548 = CARTESIAN_POINT ( 'NONE',  ( -29.99999999999999645, 0.000000000000000000, 15.00000000000001066 ) ) ;
#549 = ORIENTED_EDGE ( 'NONE', *, *, #762, .F. ) ;
#550 = MANIFOLD_SOLID_BREP ( '보스-돌출6', #77 ) ;
#551 = CARTESIAN_POINT ( 'NONE',  ( 30.00000000000000000, 30.00000000000000000, -3.081487911019577365E-30 ) ) ;
#552 = LINE ( 'NONE', #394, #1014 ) ;
#553 = FACE_OUTER_BOUND ( 'NONE', #324, .T. ) ;
#554 = ADVANCED_FACE ( 'NONE', ( #499 ), #811, .F. ) ;
#555 = ORIENTED_EDGE ( 'NONE', *, *, #820, .F. ) ;
#556 = VECTOR ( 'NONE', #732, 1000.000000000000000 ) ;
#557 = LINE ( 'NONE', #248, #721 ) ;
#558 = PERSON_AND_ORGANIZATION ( #473, #1019 ) ;
#559 = CARTESIAN_POINT ( 'NONE',  ( -69.99999999999998579, 3.469446951953614189E-15, 25.00000000000001421 ) ) ;
#560 = DIRECTION ( 'NONE',  ( 0.000000000000000000, -1.000000000000000000, 0.000000000000000000 ) ) ;
#561 = ORIENTED_EDGE ( 'NONE', *, *, #114, .T. ) ;
#562 = DIRECTION ( 'NONE',  ( 0.000000000000000000, 0.000000000000000000, -1.000000000000000000 ) ) ;
#563 = EDGE_CURVE ( 'NONE', #866, #112, #859, .T. ) ;
#564 = CARTESIAN_POINT ( 'NONE',  ( -69.99999999999998579, 3.469446951953614189E-15, 25.00000000000001421 ) ) ;
#565 = LINE ( 'NONE', #154, #75 ) ;
#566 = VERTEX_POINT ( 'NONE', #222 ) ;
#567 = CARTESIAN_POINT ( 'NONE',  ( 33.00000000000001421, 0.000000000000000000, -57.99999999999997868 ) ) ;
#568 = EDGE_CURVE ( 'NONE', #260, #264, #305, .T. ) ;
#569 = DIRECTION ( 'NONE',  ( 1.000000000000000000, -0.000000000000000000, -1.836970198721030427E-16 ) ) ;
#570 = PLANE ( 'NONE',  #588 ) ;
#571 = APPROVAL_PERSON_ORGANIZATION ( #461, #43, #290 ) ;
#572 = ORIENTED_EDGE ( 'NONE', *, *, #907, .F. ) ;
#573 = DIRECTION ( 'NONE',  ( -0.000000000000000000, 1.000000000000000000, -0.000000000000000000 ) ) ;
#574 = VECTOR ( 'NONE', #569, 1000.000000000000000 ) ;
#575 = VECTOR ( 'NONE', #977, 1000.000000000000000 ) ;
#576 = DIRECTION ( 'NONE',  ( 0.4999999999999992784, 0.000000000000000000, 0.8660254037844390407 ) ) ;
#577 = ORIENTED_EDGE ( 'NONE', *, *, #609, .T. ) ;
#578 = CARTESIAN_POINT ( 'NONE',  ( 30.00000000000000355, 30.00000000000000000, 25.00000000000000355 ) ) ;
#579 = ADVANCED_FACE ( 'NONE', ( #945 ), #210, .T. ) ;
#580 = DIRECTION ( 'NONE',  ( -1.000000000000000000, -0.000000000000000000, 1.836970198721029934E-16 ) ) ;
#581 = DIRECTION ( 'NONE',  ( -1.000000000000000000, 0.000000000000000000, 2.312964634635742957E-16 ) ) ;
#582 = ORIENTED_EDGE ( 'NONE', *, *, #250, .F. ) ;
#583 = EDGE_CURVE ( 'NONE', #684, #947, #56, .T. ) ;
#584 = LINE ( 'NONE', #313, #98 ) ;
#585 = DIRECTION ( 'NONE',  ( -0.000000000000000000, 1.000000000000000000, -0.000000000000000000 ) ) ;
#586 = ORIENTED_EDGE ( 'NONE', *, *, #158, .F. ) ;
#587 = AXIS2_PLACEMENT_3D ( 'NONE', #626, #547, #137 ) ;
#588 = AXIS2_PLACEMENT_3D ( 'NONE', #82, #407, #724 ) ;
#589 = DIRECTION ( 'NONE',  ( 0.8660254037844390407, -0.000000000000000000, 0.4999999999999992228 ) ) ;
#590 = VECTOR ( 'NONE', #790, 1000.000000000000000 ) ;
#591 = CARTESIAN_POINT ( 'NONE',  ( -26.69999999999999574, 30.00000000000000000, 0.000000000000000000 ) ) ;
#592 = ORIENTED_EDGE ( 'NONE', *, *, #57, .F. ) ;
#593 = CARTESIAN_POINT ( 'NONE',  ( 26.69999999999999574, 30.00000000000000000, 9.058845726811993515 ) ) ;
#594 = DIRECTION ( 'NONE',  ( -0.8660254037844390407, 0.000000000000000000, -0.4999999999999995004 ) ) ;
#595 = CARTESIAN_POINT ( 'NONE',  ( 26.69999999999999574, 0.000000000000000000, 5.941154273188011814 ) ) ;
#596 = EDGE_CURVE ( 'NONE', #483, #533, #869, .T. ) ;
#597 = ORIENTED_EDGE ( 'NONE', *, *, #806, .F. ) ;
#598 = LINE ( 'NONE', #529, #848 ) ;
#599 = CARTESIAN_POINT ( 'NONE',  ( 30.00000000000000000, 0.000000000000000000, -3.081487911019577365E-30 ) ) ;
#600 = ORIENTED_EDGE ( 'NONE', *, *, #32, .T. ) ;
#601 = EDGE_CURVE ( 'NONE', #1045, #804, #1020, .T. ) ;
#602 = FACE_BOUND ( 'NONE', #623, .T. ) ;
#603 = LINE ( 'NONE', #191, #332 ) ;
#604 = AXIS2_PLACEMENT_3D ( 'NONE', #671, #106, #271 ) ;
#605 = EDGE_LOOP ( 'NONE', ( #544, #988, #743, #12 ) ) ;
#606 = CARTESIAN_POINT ( 'NONE',  ( -21.29999999999999716, 0.000000000000000000, 9.058845726811998844 ) ) ;
#607 = CARTESIAN_POINT ( 'NONE',  ( -70.00000000000000000, 0.000000000000000000, 2.027367973086914818E-14 ) ) ;
#608 = CARTESIAN_POINT ( 'NONE',  ( -21.29999999999999716, 0.000000000000000000, 9.058845726812000620 ) ) ;
#609 = EDGE_CURVE ( 'NONE', #947, #897, #95, .T. ) ;
#610 = EDGE_LOOP ( 'NONE', ( #794, #916, #597, #816 ) ) ;
#611 = LINE ( 'NONE', #867, #973 ) ;
#612 = CC_DESIGN_APPROVAL ( #388, ( #412 ) ) ;
#613 = DIRECTION ( 'NONE',  ( -0.000000000000000000, 1.000000000000000000, -0.000000000000000000 ) ) ;
#614 = ADVANCED_FACE ( 'NONE', ( #15 ), #422, .F. ) ;
#615 = ORIENTED_EDGE ( 'NONE', *, *, #279, .T. ) ;
#616 = FACE_OUTER_BOUND ( 'NONE', #188, .T. ) ;
#617 = VECTOR ( 'NONE', #676, 1000.000000000000000 ) ;
#618 = ORIENTED_EDGE ( 'NONE', *, *, #751, .T. ) ;
#619 = EDGE_LOOP ( 'NONE', ( #165, #397, #429, #36 ) ) ;
#620 = DIRECTION ( 'NONE',  ( 2.602085213965210149E-16, 0.000000000000000000, 1.000000000000000000 ) ) ;
#621 = CARTESIAN_POINT ( 'NONE',  ( 77.00000000000001421, 0.000000000000000000, 55.00000000000000000 ) ) ;
#622 = VERTEX_POINT ( 'NONE', #432 ) ;
#623 = EDGE_LOOP ( 'NONE', ( #327, #353, #9, #514, #203, #472 ) ) ;
#624 = ADVANCED_FACE ( 'NONE', ( #512, #746, #854 ), #940, .F. ) ;
#625 = FACE_OUTER_BOUND ( 'NONE', #490, .T. ) ;
#626 = CARTESIAN_POINT ( 'NONE',  ( -29.99999999999998934, -40.00000000000000711, 25.00000000000000355 ) ) ;
#627 = DATE_TIME_ROLE ( 'creation_date' ) ;
#628 = CARTESIAN_POINT ( 'NONE',  ( -60.00000000000002842, 0.000000000000000000, -57.99999999999998579 ) ) ;
#629 = VERTEX_POINT ( 'NONE', #44 ) ;
#630 = LINE ( 'NONE', #209, #198 ) ;
#631 = DIRECTION ( 'NONE',  ( 0.8660254037844388186, 0.000000000000000000, 0.4999999999999997224 ) ) ;
#632 = CC_DESIGN_PERSON_AND_ORGANIZATION_ASSIGNMENT ( #558, #83, ( #99 ) ) ;
#633 = COORDINATED_UNIVERSAL_TIME_OFFSET ( 9, 0, .AHEAD. ) ;
#634 = DIRECTION ( 'NONE',  ( 1.836970198721030181E-16, -0.000000000000000000, 1.000000000000000000 ) ) ;
#635 = AXIS2_PLACEMENT_3D ( 'NONE', #1042, #542, #1018 ) ;
#636 = ORIENTED_EDGE ( 'NONE', *, *, #583, .T. ) ;
#637 = VECTOR ( 'NONE', #742, 1000.000000000000000 ) ;
#638 = CARTESIAN_POINT ( 'NONE',  ( 80.00000000000000000, -40.00000000000000711, 14.99999999999999289 ) ) ;
#639 = DIRECTION ( 'NONE',  ( -0.000000000000000000, 1.000000000000000000, -0.000000000000000000 ) ) ;
#640 = EDGE_CURVE ( 'NONE', #340, #318, #386, .T. ) ;
#641 = CARTESIAN_POINT ( 'NONE',  ( 33.00000000000001421, 0.000000000000000000, 15.00000000000000533 ) ) ;
#642 = VERTEX_POINT ( 'NONE', #1011 ) ;
#643 = CARTESIAN_POINT ( 'NONE',  ( 21.29999999999999716, 0.000000000000000000, 9.058845726811995291 ) ) ;
#644 = DIRECTION ( 'NONE',  ( -1.000000000000000000, -0.000000000000000000, 2.312964634635743450E-16 ) ) ;
#645 = ORIENTED_EDGE ( 'NONE', *, *, #379, .T. ) ;
#646 = LINE ( 'NONE', #962, #590 ) ;
#647 = ADVANCED_FACE ( 'NONE', ( #356 ), #192, .F. ) ;
#648 = CARTESIAN_POINT ( 'NONE',  ( 80.00000000000001421, -40.00000000000000711, 57.00000000000002132 ) ) ;
#649 = CARTESIAN_POINT ( 'NONE',  ( 33.00000000000001421, -25.00000000000000711, -57.99999999999997868 ) ) ;
#650 = ORIENTED_EDGE ( 'NONE', *, *, #870, .F. ) ;
#651 = CARTESIAN_POINT ( 'NONE',  ( 30.00000000000000711, 0.000000000000000000, 55.00000000000002132 ) ) ;
#652 = VECTOR ( 'NONE', #239, 1000.000000000000000 ) ;
#653 = EDGE_CURVE ( 'NONE', #505, #662, #19, .T. ) ;
#654 = PLANE ( 'NONE',  #975 ) ;
#655 = VERTEX_POINT ( 'NONE', #894 ) ;
#656 = DIRECTION ( 'NONE',  ( 0.8660254037844385966, 0.000000000000000000, -0.5000000000000001110 ) ) ;
#657 = DIRECTION ( 'NONE',  ( 0.8660254037844385966, 0.000000000000000000, -0.5000000000000001110 ) ) ;
#658 = EDGE_CURVE ( 'NONE', #505, #39, #739, .T. ) ;
#659 = ORIENTED_EDGE ( 'NONE', *, *, #563, .F. ) ;
#660 = PLANE ( 'NONE',  #423 ) ;
#661 = ORIENTED_EDGE ( 'NONE', *, *, #85, .T. ) ;
#662 = VERTEX_POINT ( 'NONE', #18 ) ;
#663 = CARTESIAN_POINT ( 'NONE',  ( 21.29999999999999716, 0.000000000000000000, 9.058845726811995291 ) ) ;
#664 = CARTESIAN_POINT ( 'NONE',  ( 30.00000000000001421, -40.00000000000000711, 55.00000000000000711 ) ) ;
#665 = ORIENTED_EDGE ( 'NONE', *, *, #466, .F. ) ;
#666 = VECTOR ( 'NONE', #745, 1000.000000000000000 ) ;
#667 = DIRECTION ( 'NONE',  ( -0.8660254037844389297, -0.000000000000000000, -0.4999999999999994449 ) ) ;
#668 = CARTESIAN_POINT ( 'NONE',  ( 26.69999999999999574, 0.000000000000000000, 9.058845726811993515 ) ) ;
#669 = VECTOR ( 'NONE', #358, 1000.000000000000000 ) ;
#670 = AXIS2_PLACEMENT_3D ( 'NONE', #245, #163, #86 ) ;
#671 = CARTESIAN_POINT ( 'NONE',  ( -21.29999999999999716, 0.000000000000000000, 9.058845726812000620 ) ) ;
#672 = DIRECTION ( 'NONE',  ( 0.000000000000000000, 0.000000000000000000, -1.000000000000000000 ) ) ;
#673 = EDGE_CURVE ( 'NONE', #696, #629, #344, .T. ) ;
#674 = ORIENTED_EDGE ( 'NONE', *, *, #6, .T. ) ;
#675 = CARTESIAN_POINT ( 'NONE',  ( 30.00000000000000711, -40.00000000000000711, 57.00000000000002132 ) ) ;
#676 = DIRECTION ( 'NONE',  ( -1.000000000000000000, -0.000000000000000000, 2.312964634635743450E-16 ) ) ;
#677 = DIRECTION ( 'NONE',  ( -0.000000000000000000, -0.000000000000000000, -1.000000000000000000 ) ) ;
#678 = EDGE_CURVE ( 'NONE', #493, #421, #349, .T. ) ;
#679 = ORIENTED_EDGE ( 'NONE', *, *, #189, .F. ) ;
#680 = DESIGN_CONTEXT ( 'detailed design', #697, 'design' ) ;
#681 = LINE ( 'NONE', #754, #669 ) ;
#682 = DIRECTION ( 'NONE',  ( 0.000000000000000000, 0.000000000000000000, 1.000000000000000000 ) ) ;
#683 = DIRECTION ( 'NONE',  ( 1.000000000000000000, 0.000000000000000000, 0.000000000000000000 ) ) ;
#684 = VERTEX_POINT ( 'NONE', #706 ) ;
#685 = EDGE_CURVE ( 'NONE', #684, #340, #312, .T. ) ;
#686 = CARTESIAN_POINT ( 'NONE',  ( 30.00000000000001421, 0.000000000000000000, 55.00000000000001421 ) ) ;
#687 = VECTOR ( 'NONE', #252, 1000.000000000000000 ) ;
#688 = CARTESIAN_POINT ( 'NONE',  ( -60.00000000000002842, 0.000000000000000000, -57.99999999999998579 ) ) ;
#689 = ADVANCED_BREP_SHAPE_REPRESENTATION ( 'Arduino_plate_new', ( #550, #438 ), #288 ) ;
#690 = ORIENTED_EDGE ( 'NONE', *, *, #907, .T. ) ;
#691 = CARTESIAN_POINT ( 'NONE',  ( -29.99999999999998934, -40.00000000000000711, 25.00000000000000355 ) ) ;
#692 = CC_DESIGN_PERSON_AND_ORGANIZATION_ASSIGNMENT ( #541, #853, ( #80 ) ) ;
#693 = LINE ( 'NONE', #455, #934 ) ;
#694 = EDGE_LOOP ( 'NONE', ( #477, #235, #452, #295, #287, #1036, #120, #749, #345 ) ) ;
#695 = DIRECTION ( 'NONE',  ( 1.000000000000000000, 0.000000000000000000, 0.000000000000000000 ) ) ;
#696 = VERTEX_POINT ( 'NONE', #729 ) ;
#697 = APPLICATION_CONTEXT ( 'configuration controlled 3d designs of mechanical parts and assemblies' ) ;
#698 = FACE_OUTER_BOUND ( 'NONE', #974, .T. ) ;
#699 = VECTOR ( 'NONE', #17, 1000.000000000000000 ) ;
#700 = ORIENTED_EDGE ( 'NONE', *, *, #826, .T. ) ;
#701 = DIRECTION ( 'NONE',  ( 1.000000000000000000, 0.000000000000000000, -2.312964634635742957E-16 ) ) ;
#702 = VECTOR ( 'NONE', #113, 1000.000000000000000 ) ;
#703 = FACE_OUTER_BOUND ( 'NONE', #1001, .T. ) ;
#704 = AXIS2_PLACEMENT_3D ( 'NONE', #952, #492, #890 ) ;
#705 = COORDINATED_UNIVERSAL_TIME_OFFSET ( 9, 0, .AHEAD. ) ;
#706 = CARTESIAN_POINT ( 'NONE',  ( -60.00000000000001421, 30.00000000000000000, -57.99999999999998579 ) ) ;
#707 = EDGE_CURVE ( 'NONE', #318, #155, #76, .T. ) ;
#708 = ORIENTED_EDGE ( 'NONE', *, *, #430, .T. ) ;
#709 = CARTESIAN_POINT ( 'NONE',  ( 26.69999999999999574, 0.000000000000000000, 5.941154273188011814 ) ) ;
#710 = ORIENTED_EDGE ( 'NONE', *, *, #1026, .T. ) ;
#711 = CARTESIAN_POINT ( 'NONE',  ( 30.00000000000000000, 0.000000000000000000, -3.081487911019577365E-30 ) ) ;
#712 = DIRECTION ( 'NONE',  ( -0.8660254037844389297, 0.000000000000000000, -0.4999999999999994449 ) ) ;
#713 = LINE ( 'NONE', #319, #1000 ) ;
#714 = VECTOR ( 'NONE', #631, 1000.000000000000114 ) ;
#715 = VECTOR ( 'NONE', #325, 1000.000000000000000 ) ;
#716 = LINE ( 'NONE', #316, #889 ) ;
#717 = LINE ( 'NONE', #308, #504 ) ;
#718 = EDGE_LOOP ( 'NONE', ( #679, #509, #802, #255 ) ) ;
#719 = EDGE_CURVE ( 'NONE', #421, #103, #713, .T. ) ;
#720 = CARTESIAN_POINT ( 'NONE',  ( 0.000000000000000000, 0.000000000000000000, 55.00000000000002132 ) ) ;
#721 = VECTOR ( 'NONE', #232, 1000.000000000000000 ) ;
#722 = ORIENTED_EDGE ( 'NONE', *, *, #466, .T. ) ;
#723 = CARTESIAN_POINT ( 'NONE',  ( -60.00000000000002842, 0.000000000000000000, -57.99999999999998579 ) ) ;
#724 = DIRECTION ( 'NONE',  ( 0.8660254037844390407, 0.000000000000000000, 0.4999999999999992784 ) ) ;
#725 = APPROVAL_STATUS ( 'not_yet_approved' ) ;
#726 = ORIENTED_EDGE ( 'NONE', *, *, #13, .F. ) ;
#727 = DIRECTION ( 'NONE',  ( -1.000000000000000000, 0.000000000000000000, -0.000000000000000000 ) ) ;
#728 = EDGE_LOOP ( 'NONE', ( #5, #251, #674, #926, #1041, #991 ) ) ;
#729 = CARTESIAN_POINT ( 'NONE',  ( 30.00000000000000711, -40.00000000000000711, 57.00000000000002132 ) ) ;
#730 = CARTESIAN_POINT ( 'NONE',  ( -21.29999999999999716, 0.000000000000000000, 5.941154273188018919 ) ) ;
#731 = ORIENTED_EDGE ( 'NONE', *, *, #806, .T. ) ;
#732 = DIRECTION ( 'NONE',  ( -0.000000000000000000, 1.000000000000000000, -0.000000000000000000 ) ) ;
#733 = EDGE_CURVE ( 'NONE', #642, #829, #584, .T. ) ;
#734 = AXIS2_PLACEMENT_3D ( 'NONE', #280, #433, #990 ) ;
#735 = DIRECTION ( 'NONE',  ( 1.000000000000000000, 0.000000000000000000, -1.734723475976807094E-16 ) ) ;
#736 = APPROVAL_DATE_TIME ( #420, #999 ) ;
#737 = ORIENTED_EDGE ( 'NONE', *, *, #1043, .T. ) ;
#738 = CARTESIAN_POINT ( 'NONE',  ( 26.69999999999999574, 0.000000000000000000, 9.058845726811993515 ) ) ;
#739 = LINE ( 'NONE', #868, #4 ) ;
#740 = ORIENTED_EDGE ( 'NONE', *, *, #202, .F. ) ;
#741 = ORIENTED_EDGE ( 'NONE', *, *, #460, .F. ) ;
#742 = DIRECTION ( 'NONE',  ( 1.000000000000000000, 0.000000000000000000, 0.000000000000000000 ) ) ;
#743 = ORIENTED_EDGE ( 'NONE', *, *, #791, .F. ) ;
#744 = DIRECTION ( 'NONE',  ( 0.000000000000000000, 1.000000000000000000, 0.000000000000000000 ) ) ;
#745 = DIRECTION ( 'NONE',  ( 1.000000000000000000, 0.000000000000000000, 0.000000000000000000 ) ) ;
#746 = FACE_BOUND ( 'NONE', #728, .T. ) ;
#747 = EDGE_CURVE ( 'NONE', #662, #622, #898, .T. ) ;
#748 = FACE_OUTER_BOUND ( 'NONE', #605, .T. ) ;
#749 = ORIENTED_EDGE ( 'NONE', *, *, #303, .F. ) ;
#750 = CARTESIAN_POINT ( 'NONE',  ( -23.99999999999999289, 0.000000000000000000, 4.382308546376029845 ) ) ;
#751 = EDGE_CURVE ( 'NONE', #498, #92, #489, .T. ) ;
#752 = LINE ( 'NONE', #688, #350 ) ;
#753 = ORIENTED_EDGE ( 'NONE', *, *, #109, .F. ) ;
#754 = CARTESIAN_POINT ( 'NONE',  ( 1.402404735808340686, 30.00000000000000000, -2.429036255195258676 ) ) ;
#755 = LINE ( 'NONE', #446, #880 ) ;
#756 = DIRECTION ( 'NONE',  ( -2.312964634635742957E-16, -0.000000000000000000, -1.000000000000000000 ) ) ;
#757 = ADVANCED_FACE ( 'NONE', ( #495 ), #416, .F. ) ;
#758 = ORIENTED_EDGE ( 'NONE', *, *, #379, .F. ) ;
#759 = CARTESIAN_POINT ( 'NONE',  ( -26.69999999999999574, 0.000000000000000000, 5.941154273188018919 ) ) ;
#760 = LINE ( 'NONE', #364, #666 ) ;
#761 = FACE_OUTER_BOUND ( 'NONE', #194, .T. ) ;
#762 = EDGE_CURVE ( 'NONE', #642, #89, #646, .T. ) ;
#763 = EDGE_LOOP ( 'NONE', ( #881, #855, #52, #14 ) ) ;
#764 = CARTESIAN_POINT ( 'NONE',  ( 23.99999999999999645, 0.000000000000000000, 10.61769145362398170 ) ) ;
#765 = VECTOR ( 'NONE', #774, 1000.000000000000000 ) ;
#766 = ORIENTED_EDGE ( 'NONE', *, *, #1007, .F. ) ;
#767 = LINE ( 'NONE', #788, #58 ) ;
#768 = CARTESIAN_POINT ( 'NONE',  ( -21.29999999999999716, 30.00000000000000000, 0.000000000000000000 ) ) ;
#769 = ORIENTED_EDGE ( 'NONE', *, *, #443, .T. ) ;
#770 = DIRECTION ( 'NONE',  ( 2.602085213965210149E-16, -0.000000000000000000, 1.000000000000000000 ) ) ;
#771 = CARTESIAN_POINT ( 'NONE',  ( -26.69999999999999574, 30.00000000000000000, 5.941154273188018919 ) ) ;
#772 = LINE ( 'NONE', #470, #847 ) ;
#773 = EDGE_CURVE ( 'NONE', #981, #1004, #69, .T. ) ;
#774 = DIRECTION ( 'NONE',  ( 2.602085213965210149E-16, -0.000000000000000000, 1.000000000000000000 ) ) ;
#775 = ORIENTED_EDGE ( 'NONE', *, *, #963, .F. ) ;
#776 = VERTEX_POINT ( 'NONE', #326 ) ;
#777 = FACE_OUTER_BOUND ( 'NONE', #718, .T. ) ;
#778 = FACE_OUTER_BOUND ( 'NONE', #822, .T. ) ;
#779 = PERSON_AND_ORGANIZATION ( #473, #1019 ) ;
#780 = ADVANCED_FACE ( 'NONE', ( #879 ), #253, .F. ) ;
#781 = VECTOR ( 'NONE', #580, 1000.000000000000000 ) ;
#782 = ORIENTED_EDGE ( 'NONE', *, *, #286, .F. ) ;
#783 = FACE_OUTER_BOUND ( 'NONE', #320, .T. ) ;
#784 = VECTOR ( 'NONE', #1031, 1000.000000000000000 ) ;
#785 = MECHANICAL_CONTEXT ( 'NONE', #502, 'mechanical' ) ;
#786 = DIRECTION ( 'NONE',  ( -1.836970198721029934E-16, -1.773932161022188353E-32, -1.000000000000000000 ) ) ;
#787 = ADVANCED_FACE ( 'NONE', ( #956 ), #236, .F. ) ;
#788 = CARTESIAN_POINT ( 'NONE',  ( -29.99999999999998934, -40.00000000000000711, 15.00000000000000533 ) ) ;
#789 = DIRECTION ( 'NONE',  ( 0.000000000000000000, 0.000000000000000000, -1.000000000000000000 ) ) ;
#790 = DIRECTION ( 'NONE',  ( -2.312964634635742957E-16, -0.000000000000000000, -1.000000000000000000 ) ) ;
#791 = EDGE_CURVE ( 'NONE', #112, #493, #405, .T. ) ;
#792 = CARTESIAN_POINT ( 'NONE',  ( -10.59759526419164111, 30.00000000000000000, 18.35557343563125698 ) ) ;
#793 = CARTESIAN_POINT ( 'NONE',  ( -29.99999999999998934, -40.00000000000000711, 25.00000000000000355 ) ) ;
#794 = ORIENTED_EDGE ( 'NONE', *, *, #900, .F. ) ;
#795 = PLANE ( 'NONE',  #144 ) ;
#796 = VECTOR ( 'NONE', #530, 1000.000000000000000 ) ;
#797 = PLANE ( 'NONE',  #491 ) ;
#798 = CARTESIAN_POINT ( 'NONE',  ( -23.99999999999999645, 0.000000000000000000, 10.61769145362398703 ) ) ;
#799 = ORIENTED_EDGE ( 'NONE', *, *, #85, .F. ) ;
#800 = DIRECTION ( 'NONE',  ( -1.000000000000000000, 0.000000000000000000, -0.000000000000000000 ) ) ;
#801 = VECTOR ( 'NONE', #336, 999.9999999999998863 ) ;
#802 = ORIENTED_EDGE ( 'NONE', *, *, #197, .F. ) ;
#803 = DIRECTION ( 'NONE',  ( 2.312964634635742957E-16, 0.000000000000000000, 1.000000000000000000 ) ) ;
#804 = VERTEX_POINT ( 'NONE', #874 ) ;
#805 = DIRECTION ( 'NONE',  ( 0.8660254037844390407, 0.000000000000000000, -0.4999999999999992784 ) ) ;
#806 = EDGE_CURVE ( 'NONE', #1004, #240, #156, .T. ) ;
#807 = DIRECTION ( 'NONE',  ( -1.000000000000000000, -0.000000000000000000, -0.000000000000000000 ) ) ;
#808 = ORIENTED_EDGE ( 'NONE', *, *, #826, .F. ) ;
#809 = FACE_OUTER_BOUND ( 'NONE', #878, .T. ) ;
#810 = ORIENTED_EDGE ( 'NONE', *, *, #994, .F. ) ;
#811 = PLANE ( 'NONE',  #635 ) ;
#812 = CARTESIAN_POINT ( 'NONE',  ( 23.99999999999999289, 0.000000000000000000, 4.382308546376023628 ) ) ;
#813 = ADVANCED_FACE ( 'NONE', ( #90 ), #795, .T. ) ;
#814 = AXIS2_PLACEMENT_3D ( 'NONE', #567, #800, #78 ) ;
#815 = EDGE_LOOP ( 'NONE', ( #380, #808, #1048, #825 ) ) ;
#816 = ORIENTED_EDGE ( 'NONE', *, *, #773, .F. ) ;
#817 = CARTESIAN_POINT ( 'NONE',  ( -21.29999999999999716, 0.000000000000000000, 5.941154273188018919 ) ) ;
#818 = DIRECTION ( 'NONE',  ( -1.000000000000000000, 0.000000000000000000, 0.000000000000000000 ) ) ;
#819 = DIRECTION ( 'NONE',  ( -4.625929269271485914E-16, -1.000000000000000000, 1.027162637006525861E-31 ) ) ;
#820 = EDGE_CURVE ( 'NONE', #199, #566, #1044, .T. ) ;
#821 = EDGE_LOOP ( 'NONE', ( #998, #661, #169, #283 ) ) ;
#822 = EDGE_LOOP ( 'NONE', ( #545, #94, #995, #941, #873, #244 ) ) ;
#823 = LINE ( 'NONE', #750, #905 ) ;
#824 = DIRECTION ( 'NONE',  ( -0.000000000000000000, -1.000000000000000000, -0.000000000000000000 ) ) ;
#825 = ORIENTED_EDGE ( 'NONE', *, *, #747, .T. ) ;
#826 = EDGE_CURVE ( 'NONE', #41, #434, #500, .T. ) ;
#827 = DIRECTION ( 'NONE',  ( 0.000000000000000000, -0.000000000000000000, 1.000000000000000000 ) ) ;
#828 = CARTESIAN_POINT ( 'NONE',  ( 33.00000000000001421, 0.000000000000000000, 14.99999999999997158 ) ) ;
#829 = VERTEX_POINT ( 'NONE', #3 ) ;
#830 = AXIS2_PLACEMENT_3D ( 'NONE', #883, #1032, #712 ) ;
#831 = DIRECTION ( 'NONE',  ( -0.000000000000000000, 1.000000000000000000, -0.000000000000000000 ) ) ;
#832 = AXIS2_PLACEMENT_3D ( 'NONE', #258, #683, #672 ) ;
#833 = LINE ( 'NONE', #183, #79 ) ;
#834 = AXIS2_PLACEMENT_3D ( 'NONE', #927, #204, #289 ) ;
#835 = ORIENTED_EDGE ( 'NONE', *, *, #747, .F. ) ;
#836 = LINE ( 'NONE', #445, #702 ) ;
#837 = CARTESIAN_POINT ( 'NONE',  ( 21.29999999999999716, 0.000000000000000000, 5.941154273188013590 ) ) ;
#838 = EDGE_CURVE ( 'NONE', #331, #897, #333, .T. ) ;
#839 = ORIENTED_EDGE ( 'NONE', *, *, #250, .T. ) ;
#840 = ORIENTED_EDGE ( 'NONE', *, *, #678, .F. ) ;
#841 = CALENDAR_DATE ( 2026, 26, 6 ) ;
#842 = DIRECTION ( 'NONE',  ( 0.000000000000000000, -0.000000000000000000, 1.000000000000000000 ) ) ;
#843 = VERTEX_POINT ( 'NONE', #174 ) ;
#844 = CARTESIAN_POINT ( 'NONE',  ( -29.99999999999998934, -40.00000000000000711, 25.00000000000000355 ) ) ;
#845 = CARTESIAN_POINT ( 'NONE',  ( -29.99999999999999645, 30.00000000000000000, 25.00000000000000355 ) ) ;
#846 = DIRECTION ( 'NONE',  ( -0.8660254037844388186, 0.000000000000000000, 0.4999999999999996669 ) ) ;
#847 = VECTOR ( 'NONE', #613, 1000.000000000000000 ) ;
#848 = VECTOR ( 'NONE', #918, 1000.000000000000000 ) ;
#849 = ORIENTED_EDGE ( 'NONE', *, *, #146, .F. ) ;
#850 = EDGE_CURVE ( 'NONE', #829, #155, #96, .T. ) ;
#851 = CARTESIAN_POINT ( 'NONE',  ( 77.00000000000001421, -25.00000000000000711, -57.99999999999997868 ) ) ;
#852 = LINE ( 'NONE', #768, #932 ) ;
#853 = PERSON_AND_ORGANIZATION_ROLE ( 'design_owner' ) ;
#854 = FACE_OUTER_BOUND ( 'NONE', #212, .T. ) ;
#855 = ORIENTED_EDGE ( 'NONE', *, *, #658, .F. ) ;
#856 = ORIENTED_EDGE ( 'NONE', *, *, #273, .T. ) ;
#857 = PLANE ( 'NONE',  #249 ) ;
#858 = ADVANCED_FACE ( 'NONE', ( #339 ), #660, .F. ) ;
#859 = LINE ( 'NONE', #1030, #178 ) ;
#860 = ORIENTED_EDGE ( 'NONE', *, *, #884, .F. ) ;
#861 = DIRECTION ( 'NONE',  ( -1.000000000000000000, 0.000000000000000000, 2.312964634635742957E-16 ) ) ;
#862 = DIRECTION ( 'NONE',  ( -0.000000000000000000, 1.000000000000000000, -0.000000000000000000 ) ) ;
#863 = PERSON_AND_ORGANIZATION ( #473, #1019 ) ;
#864 = EDGE_CURVE ( 'NONE', #340, #897, #752, .T. ) ;
#865 = VECTOR ( 'NONE', #257, 1000.000000000000000 ) ;
#866 = VERTEX_POINT ( 'NONE', #520 ) ;
#867 = CARTESIAN_POINT ( 'NONE',  ( 80.00000000000001421, -40.00000000000000711, 54.99999999999999289 ) ) ;
#868 = CARTESIAN_POINT ( 'NONE',  ( 26.69999999999999574, 0.000000000000000000, 9.058845726811993515 ) ) ;
#869 = LINE ( 'NONE', #475, #164 ) ;
#870 = EDGE_CURVE ( 'NONE', #89, #331, #603, .T. ) ;
#871 = LINE ( 'NONE', #159, #801 ) ;
#872 = CARTESIAN_POINT ( 'NONE',  ( -26.69999999999999574, 0.000000000000000000, 9.058845726812000620 ) ) ;
#873 = ORIENTED_EDGE ( 'NONE', *, *, #494, .F. ) ;
#874 = CARTESIAN_POINT ( 'NONE',  ( -21.29999999999999716, 30.00000000000000000, 9.058845726812000620 ) ) ;
#875 = DIRECTION ( 'NONE',  ( 0.8660254037844388186, 0.000000000000000000, 0.4999999999999997224 ) ) ;
#876 = PLANE ( 'NONE',  #830 ) ;
#877 = PERSON_AND_ORGANIZATION_ROLE ( 'design_supplier' ) ;
#878 = EDGE_LOOP ( 'NONE', ( #925, #741, #444, #439 ) ) ;
#879 = FACE_OUTER_BOUND ( 'NONE', #763, .T. ) ;
#880 = VECTOR ( 'NONE', #910, 1000.000000000000000 ) ;
#881 = ORIENTED_EDGE ( 'NONE', *, *, #286, .T. ) ;
#882 = LINE ( 'NONE', #643, #784 ) ;
#883 = CARTESIAN_POINT ( 'NONE',  ( 23.99999999999999289, 0.000000000000000000, 4.382308546376023628 ) ) ;
#884 = EDGE_CURVE ( 'NONE', #843, #315, #343, .T. ) ;
#885 = DATE_TIME_ROLE ( 'classification_date' ) ;
#886 = ORIENTED_EDGE ( 'NONE', *, *, #923, .T. ) ;
#887 = VECTOR ( 'NONE', #518, 1000.000000000000000 ) ;
#888 = DIRECTION ( 'NONE',  ( 0.5000000000000001110, 0.000000000000000000, 0.8660254037844385966 ) ) ;
#889 = VECTOR ( 'NONE', #175, 1000.000000000000000 ) ;
#890 = DIRECTION ( 'NONE',  ( 0.8660254037844388186, 0.000000000000000000, 0.4999999999999997224 ) ) ;
#891 = VERTEX_POINT ( 'NONE', #348 ) ;
#892 = CC_DESIGN_DATE_AND_TIME_ASSIGNMENT ( #1024, #627, ( #237 ) ) ;
#893 = CARTESIAN_POINT ( 'NONE',  ( 21.29999999999999716, 30.00000000000000000, 0.000000000000000000 ) ) ;
#894 = CARTESIAN_POINT ( 'NONE',  ( 77.00000000000001421, -25.00000000000000711, 55.00000000000001421 ) ) ;
#895 = CARTESIAN_POINT ( 'NONE',  ( -60.00000000000001421, 30.00000000000000000, -57.99999999999998579 ) ) ;
#896 = CARTESIAN_POINT ( 'NONE',  ( -60.00000000000001421, 30.00000000000000000, -57.99999999999998579 ) ) ;
#897 = VERTEX_POINT ( 'NONE', #31 ) ;
#898 = LINE ( 'NONE', #1034, #381 ) ;
#899 = VECTOR ( 'NONE', #735, 1000.000000000000000 ) ;
#900 = EDGE_CURVE ( 'NONE', #566, #981, #833, .T. ) ;
#901 = VECTOR ( 'NONE', #756, 1000.000000000000000 ) ;
#902 = ORIENTED_EDGE ( 'NONE', *, *, #609, .F. ) ;
#903 = ORIENTED_EDGE ( 'NONE', *, *, #342, .T. ) ;
#904 = CARTESIAN_POINT ( 'NONE',  ( 30.00000000000000711, -40.00000000000000711, 57.00000000000002132 ) ) ;
#905 = VECTOR ( 'NONE', #831, 1000.000000000000000 ) ;
#906 = VECTOR ( 'NONE', #369, 1000.000000000000000 ) ;
#907 = EDGE_CURVE ( 'NONE', #334, #260, #365, .T. ) ;
#908 = ORIENTED_EDGE ( 'NONE', *, *, #486, .F. ) ;
#909 = CARTESIAN_POINT ( 'NONE',  ( 30.00000000000000711, 0.000000000000000000, 25.00000000000000355 ) ) ;
#910 = DIRECTION ( 'NONE',  ( -0.8660254037844385966, 0.000000000000000000, -0.5000000000000001110 ) ) ;
#911 = CARTESIAN_POINT ( 'NONE',  ( 26.69999999999999574, 0.000000000000000000, 9.058845726811993515 ) ) ;
#912 = LOCAL_TIME ( 23, 30, 41.00000000000000000, #403 ) ;
#913 = VERTEX_POINT ( 'NONE', #275 ) ;
#914 = CARTESIAN_POINT ( 'NONE',  ( 23.99999999999999289, 0.000000000000000000, 4.382308546376022740 ) ) ;
#915 = DIRECTION ( 'NONE',  ( -0.000000000000000000, -1.000000000000000000, -0.000000000000000000 ) ) ;
#916 = ORIENTED_EDGE ( 'NONE', *, *, #91, .T. ) ;
#917 = VECTOR ( 'NONE', #634, 1000.000000000000000 ) ;
#918 = DIRECTION ( 'NONE',  ( 9.912705577010325549E-17, -1.000000000000000000, 0.000000000000000000 ) ) ;
#919 = EDGE_CURVE ( 'NONE', #913, #696, #924, .T. ) ;
#920 = LINE ( 'NONE', #591, #276 ) ;
#921 = ORIENTED_EDGE ( 'NONE', *, *, #733, .T. ) ;
#922 = ORIENTED_EDGE ( 'NONE', *, *, #568, .T. ) ;
#923 = EDGE_CURVE ( 'NONE', #435, #533, #920, .T. ) ;
#924 = LINE ( 'NONE', #904, #208 ) ;
#925 = ORIENTED_EDGE ( 'NONE', *, *, #311, .T. ) ;
#926 = ORIENTED_EDGE ( 'NONE', *, *, #1007, .T. ) ;
#927 = CARTESIAN_POINT ( 'NONE',  ( -30.00000000000000000, 30.00000000000000000, 1.102182119232617596E-14 ) ) ;
#928 = LINE ( 'NONE', #1016, #714 ) ;
#929 = PLANE ( 'NONE',  #402 ) ;
#930 = ADVANCED_FACE ( 'NONE', ( #748 ), #513, .F. ) ;
#931 = ORIENTED_EDGE ( 'NONE', *, *, #273, .F. ) ;
#932 = VECTOR ( 'NONE', #937, 1000.000000000000000 ) ;
#933 = LINE ( 'NONE', #851, #906 ) ;
#934 = VECTOR ( 'NONE', #846, 1000.000000000000114 ) ;
#935 = ORIENTED_EDGE ( 'NONE', *, *, #850, .T. ) ;
#936 = CARTESIAN_POINT ( 'NONE',  ( 77.00000000000001421, 0.000000000000000000, 55.00000000000000000 ) ) ;
#937 = DIRECTION ( 'NONE',  ( 0.000000000000000000, 0.000000000000000000, -1.000000000000000000 ) ) ;
#938 = ORIENTED_EDGE ( 'NONE', *, *, #870, .T. ) ;
#939 = COORDINATED_UNIVERSAL_TIME_OFFSET ( 9, 0, .AHEAD. ) ;
#940 = PLANE ( 'NONE',  #193 ) ;
#941 = ORIENTED_EDGE ( 'NONE', *, *, #673, .T. ) ;
#942 = PLANE ( 'NONE',  #168 ) ;
#943 = CARTESIAN_POINT ( 'NONE',  ( 77.00000000000001421, 0.000000000000000000, 14.99999999999997158 ) ) ;
#944 = ADVANCED_FACE ( 'NONE', ( #507 ), #115, .F. ) ;
#945 = FACE_OUTER_BOUND ( 'NONE', #619, .T. ) ;
#946 = ORIENTED_EDGE ( 'NONE', *, *, #791, .T. ) ;
#947 = VERTEX_POINT ( 'NONE', #35 ) ;
#948 = DIRECTION ( 'NONE',  ( -0.000000000000000000, 0.000000000000000000, -1.000000000000000000 ) ) ;
#949 = SHAPE_DEFINITION_REPRESENTATION ( #497, #689 ) ;
#950 = EDGE_CURVE ( 'NONE', #112, #804, #447, .T. ) ;
#951 = VECTOR ( 'NONE', #677, 1000.000000000000000 ) ;
#952 = CARTESIAN_POINT ( 'NONE',  ( -26.69999999999999574, 0.000000000000000000, 9.058845726812000620 ) ) ;
#953 = PLANE ( 'NONE',  #207 ) ;
#954 = AXIS2_PLACEMENT_3D ( 'NONE', #131, #47, #695 ) ;
#955 = ORIENTED_EDGE ( 'NONE', *, *, #373, .F. ) ;
#956 = FACE_OUTER_BOUND ( 'NONE', #368, .T. ) ;
#957 = VERTEX_POINT ( 'NONE', #267 ) ;
#958 = CARTESIAN_POINT ( 'NONE',  ( -70.00000000000000000, 0.000000000000000000, 1.619075244245020060E-14 ) ) ;
#959 = CARTESIAN_POINT ( 'NONE',  ( 77.00000000000001421, 0.000000000000000000, 15.00000000000000533 ) ) ;
#960 = APPROVAL_PERSON_ORGANIZATION ( #310, #388, #323 ) ;
#961 = ORIENTED_EDGE ( 'NONE', *, *, #189, .T. ) ;
#962 = CARTESIAN_POINT ( 'NONE',  ( 30.00000000000000000, 30.00000000000000000, -3.081487911019577365E-30 ) ) ;
#963 = EDGE_CURVE ( 'NONE', #240, #655, #442, .T. ) ;
#964 = FACE_OUTER_BOUND ( 'NONE', #404, .T. ) ;
#965 = DIRECTION ( 'NONE',  ( 0.000000000000000000, -0.000000000000000000, -1.000000000000000000 ) ) ;
#966 = ORIENTED_EDGE ( 'NONE', *, *, #494, .T. ) ;
#967 = DIRECTION ( 'NONE',  ( 0.000000000000000000, -1.000000000000000000, 0.000000000000000000 ) ) ;
#968 = DIRECTION ( 'NONE',  ( -0.8660254037844388186, 0.000000000000000000, 0.4999999999999996669 ) ) ;
#969 = VECTOR ( 'NONE', #241, 1000.000000000000000 ) ;
#970 = VECTOR ( 'NONE', #216, 1000.000000000000000 ) ;
#971 = EDGE_CURVE ( 'NONE', #622, #434, #187, .T. ) ;
#972 = CARTESIAN_POINT ( 'NONE',  ( -23.99999999999999645, 0.000000000000000000, 10.61769145362398703 ) ) ;
#973 = VECTOR ( 'NONE', #149, 1000.000000000000000 ) ;
#974 = EDGE_LOOP ( 'NONE', ( #172, #538, #223, #753 ) ) ;
#975 = AXIS2_PLACEMENT_3D ( 'NONE', #972, #576, #171 ) ;
#976 = CARTESIAN_POINT ( 'NONE',  ( -30.00000000000000000, 0.000000000000000000, 1.102182119232617596E-14 ) ) ;
#977 = DIRECTION ( 'NONE',  ( -1.000000000000000000, -0.000000000000000000, -0.000000000000000000 ) ) ;
#978 = ORIENTED_EDGE ( 'NONE', *, *, #773, .T. ) ;
#979 = EDGE_CURVE ( 'NONE', #891, #505, #26, .T. ) ;
#980 = CARTESIAN_POINT ( 'NONE',  ( -70.00000000000001421, 30.00000000000000000, -57.99999999999998579 ) ) ;
#981 = VERTEX_POINT ( 'NONE', #828 ) ;
#982 = LINE ( 'NONE', #675, #126 ) ;
#983 = EDGE_CURVE ( 'NONE', #260, #426, #436, .T. ) ;
#984 = DIRECTION ( 'NONE',  ( 0.000000000000000000, 0.000000000000000000, -1.000000000000000000 ) ) ;
#985 = DIRECTION ( 'NONE',  ( -2.602085213965210642E-16, 0.000000000000000000, -1.000000000000000000 ) ) ;
#986 = VECTOR ( 'NONE', #150, 1000.000000000000000 ) ;
#987 = VECTOR ( 'NONE', #819, 1000.000000000000000 ) ;
#988 = ORIENTED_EDGE ( 'NONE', *, *, #347, .F. ) ;
#989 = LINE ( 'NONE', #270, #227 ) ;
#990 = DIRECTION ( 'NONE',  ( -0.8660254037844383745, 0.000000000000000000, 0.5000000000000003331 ) ) ;
#991 = ORIENTED_EDGE ( 'NONE', *, *, #64, .T. ) ;
#992 = ORIENTED_EDGE ( 'NONE', *, *, #342, .F. ) ;
#993 = LINE ( 'NONE', #599, #901 ) ;
#994 = EDGE_CURVE ( 'NONE', #427, #331, #993, .T. ) ;
#995 = ORIENTED_EDGE ( 'NONE', *, *, #32, .F. ) ;
#996 = FACE_OUTER_BOUND ( 'NONE', #457, .T. ) ;
#997 = DIRECTION ( 'NONE',  ( 1.836970198721030181E-16, -0.000000000000000000, 1.000000000000000000 ) ) ;
#998 = ORIENTED_EDGE ( 'NONE', *, *, #146, .T. ) ;
#999 = APPROVAL ( #145, 'UNSPECIFIED' ) ;
#1000 = VECTOR ( 'NONE', #968, 1000.000000000000114 ) ;
#1001 = EDGE_LOOP ( 'NONE', ( #370, #600, #903, #107 ) ) ;
#1002 = CARTESIAN_POINT ( 'NONE',  ( -29.99999999999999289, 3.469446951953614189E-15, 25.00000000000000355 ) ) ;
#1003 = DIRECTION ( 'NONE',  ( 0.000000000000000000, 0.000000000000000000, 1.000000000000000000 ) ) ;
#1004 = VERTEX_POINT ( 'NONE', #360 ) ;
#1005 = PLANE ( 'NONE',  #834 ) ;
#1006 =( LENGTH_UNIT ( ) NAMED_UNIT ( * ) SI_UNIT ( .MILLI., .METRE. ) );
#1007 = EDGE_CURVE ( 'NONE', #41, #843, #527, .T. ) ;
#1008 = ORIENTED_EDGE ( 'NONE', *, *, #950, .F. ) ;
#1009 = DIRECTION ( 'NONE',  ( -1.000000000000000000, 0.000000000000000000, -0.000000000000000000 ) ) ;
#1010 = DIRECTION ( 'NONE',  ( 2.602085213965210149E-16, 0.000000000000000000, 1.000000000000000000 ) ) ;
#1011 = CARTESIAN_POINT ( 'NONE',  ( 30.00000000000000355, 30.00000000000000000, 25.00000000000000355 ) ) ;
#1012 = ADVANCED_FACE ( 'NONE', ( #761 ), #384, .F. ) ;
#1013 = EDGE_LOOP ( 'NONE', ( #389, #1008, #659, #74 ) ) ;
#1014 = VECTOR ( 'NONE', #459, 1000.000000000000000 ) ;
#1015 = CARTESIAN_POINT ( 'NONE',  ( 30.00000000000000000, 1.354169492147274684E-30, -7.806255641895630347E-15 ) ) ;
#1016 = CARTESIAN_POINT ( 'NONE',  ( -26.69999999999999574, 0.000000000000000000, 9.058845726812000620 ) ) ;
#1017 = APPROVAL_STATUS ( 'not_yet_approved' ) ;
#1018 = DIRECTION ( 'NONE',  ( -4.625929269271486900E-16, -1.000000000000000000, 0.000000000000000000 ) ) ;
#1019 = ORGANIZATION ( 'UNSPECIFIED', 'UNSPECIFIED', '' ) ;
#1020 = LINE ( 'NONE', #292, #468 ) ;
#1021 = VECTOR ( 'NONE', #589, 1000.000000000000227 ) ;
#1022 = VERTEX_POINT ( 'NONE', #548 ) ;
#1023 = PLANE ( 'NONE',  #954 ) ;
#1024 = DATE_AND_TIME ( #221, #206 ) ;
#1025 = ORIENTED_EDGE ( 'NONE', *, *, #678, .T. ) ;
#1026 = EDGE_CURVE ( 'NONE', #1, #435, #693, .T. ) ;
#1027 = DIRECTION ( 'NONE',  ( 1.000000000000000000, 0.000000000000000000, -0.000000000000000000 ) ) ;
#1028 = CARTESIAN_POINT ( 'NONE',  ( 0.000000000000000000, 0.000000000000000000, 57.00000000000002132 ) ) ;
#1029 = DIRECTION ( 'NONE',  ( -0.8660254037844385966, 0.000000000000000000, -0.5000000000000001110 ) ) ;
#1030 = CARTESIAN_POINT ( 'NONE',  ( -23.99999999999999645, 0.000000000000000000, 10.61769145362398703 ) ) ;
#1031 = DIRECTION ( 'NONE',  ( -0.000000000000000000, 1.000000000000000000, -0.000000000000000000 ) ) ;
#1032 = DIRECTION ( 'NONE',  ( 0.4999999999999995004, 0.000000000000000000, -0.8660254037844390407 ) ) ;
#1033 = AXIS2_PLACEMENT_3D ( 'NONE', #1028, #789, #132 ) ;
#1034 = CARTESIAN_POINT ( 'NONE',  ( 26.69999999999999574, 0.000000000000000000, 5.941154273188011814 ) ) ;
#1035 = AXIS2_PLACEMENT_3D ( 'NONE', #738, #888, #656 ) ;
#1036 = ORIENTED_EDGE ( 'NONE', *, *, #158, .T. ) ;
#1037 = LINE ( 'NONE', #896, #574 ) ;
#1038 = CARTESIAN_POINT ( 'NONE',  ( -21.29999999999999716, 30.00000000000000000, 5.941154273188018919 ) ) ;
#1039 = VECTOR ( 'NONE', #454, 1000.000000000000000 ) ;
#1040 = APPROVAL_DATE_TIME ( #337, #388 ) ;
#1041 = ORIENTED_EDGE ( 'NONE', *, *, #884, .T. ) ;
#1042 = CARTESIAN_POINT ( 'NONE',  ( -60.00000000000001421, 30.00000000000000000, -57.99999999999998579 ) ) ;
#1043 = EDGE_CURVE ( 'NONE', #103, #435, #772, .T. ) ;
#1044 = LINE ( 'NONE', #651, #54 ) ;
#1045 = VERTEX_POINT ( 'NONE', #201 ) ;
#1046 = CARTESIAN_POINT ( 'NONE',  ( 10.59759526419164644, 30.00000000000000000, 18.35557343563124988 ) ) ;
#1047 = DIRECTION ( 'NONE',  ( 0.000000000000000000, 0.000000000000000000, 1.000000000000000000 ) ) ;
#1048 = ORIENTED_EDGE ( 'NONE', *, *, #6, .F. ) ;
#1049 = CARTESIAN_POINT ( 'NONE',  ( -21.29999999999999716, 0.000000000000000000, 9.058845726812000620 ) ) ;
#1050 = ADVANCED_FACE ( 'NONE', ( #553 ), #929, .F. ) ;
#1051 = ORIENTED_EDGE ( 'NONE', *, *, #640, .F. ) ;
#1052 = DIRECTION ( 'NONE',  ( -0.000000000000000000, 1.000000000000000000, -0.000000000000000000 ) ) ;
ENDSEC;
END-ISO-10303-21;
