ISO-10303-21;
HEADER;
FILE_DESCRIPTION (( 'STEP AP203' ),
    '1' );
FILE_NAME ('lack.STEP',
    '2026-06-26T14:32:33',
    ( '' ),
    ( '' ),
    'SwSTEP 2.0',
    'SolidWorks 2021',
    '' );
FILE_SCHEMA (( 'CONFIG_CONTROL_DESIGN' ));
ENDSEC;

DATA;
#1 = CARTESIAN_POINT ( 'NONE',  ( 49.99999999999999289, 40.00000000000000000, 30.00000000000000000 ) ) ;
#2 = VECTOR ( 'NONE', #585, 1000.000000000000000 ) ;
#3 = CARTESIAN_POINT ( 'NONE',  ( -60.00000000000000000, -6.162975822039154730E-30, -30.00000000000000000 ) ) ;
#4 = EDGE_CURVE ( 'NONE', #513, #234, #63, .T. ) ;
#5 = EDGE_LOOP ( 'NONE', ( #346, #481, #274, #443, #215, #478 ) ) ;
#6 = FACE_BOUND ( 'NONE', #464, .T. ) ;
#7 = EDGE_CURVE ( 'NONE', #248, #539, #329, .T. ) ;
#8 = EDGE_LOOP ( 'NONE', ( #395, #342, #176, #191 ) ) ;
#9 = CARTESIAN_POINT ( 'NONE',  ( -49.99999999999998579, 7.000000000000000000, 27.00000000000000000 ) ) ;
#10 = CARTESIAN_POINT ( 'NONE',  ( -60.00000000000003553, 100.0000000000000000, 30.00000000000000000 ) ) ;
#11 = VERTEX_POINT ( 'NONE', #574 ) ;
#12 = PERSON_AND_ORGANIZATION ( #356, #116 ) ;
#13 = LINE ( 'NONE', #347, #392 ) ;
#14 = VECTOR ( 'NONE', #515, 1000.000000000000000 ) ;
#15 = DIRECTION ( 'NONE',  ( -6.938893903907228378E-17, 1.000000000000000000, 0.000000000000000000 ) ) ;
#16 = ORIENTED_EDGE ( 'NONE', *, *, #183, .T. ) ;
#17 = EDGE_CURVE ( 'NONE', #422, #303, #382, .T. ) ;
#18 = SECURITY_CLASSIFICATION_LEVEL ( 'unclassified' ) ;
#19 = PLANE ( 'NONE',  #379 ) ;
#20 = DIRECTION ( 'NONE',  ( -1.000000000000000000, -1.734723475976806108E-16, 0.000000000000000000 ) ) ;
#21 = PERSON_AND_ORGANIZATION_ROLE ( 'creator' ) ;
#22 = CARTESIAN_POINT ( 'NONE',  ( 49.99999999999999289, 6.999999999999999112, 30.00000000000000000 ) ) ;
#23 = ORIENTED_EDGE ( 'NONE', *, *, #466, .T. ) ;
#24 = PERSON_AND_ORGANIZATION_ROLE ( 'design_owner' ) ;
#25 = DIRECTION ( 'NONE',  ( -1.734723475976807094E-16, -1.000000000000000000, -0.000000000000000000 ) ) ;
#26 = ADVANCED_FACE ( 'NONE', ( #572 ), #141, .F. ) ;
#27 = VERTEX_POINT ( 'NONE', #235 ) ;
#28 = VECTOR ( 'NONE', #289, 1000.000000000000000 ) ;
#29 = CARTESIAN_POINT ( 'NONE',  ( 60.00000000000000000, 2.204364238465234876E-14, -30.00000000000000000 ) ) ;
#30 = PLANE ( 'NONE',  #469 ) ;
#31 = ORIENTED_EDGE ( 'NONE', *, *, #54, .F. ) ;
#32 = EDGE_CURVE ( 'NONE', #248, #380, #385, .T. ) ;
#33 = PLANE ( 'NONE',  #87 ) ;
#34 = VERTEX_POINT ( 'NONE', #529 ) ;
#35 = LINE ( 'NONE', #88, #79 ) ;
#36 = EDGE_LOOP ( 'NONE', ( #152, #227, #551, #16 ) ) ;
#37 = AXIS2_PLACEMENT_3D ( 'NONE', #582, #65, #451 ) ;
#38 = LINE ( 'NONE', #514, #561 ) ;
#39 = VECTOR ( 'NONE', #59, 1000.000000000000000 ) ;
#40 = ADVANCED_FACE ( 'NONE', ( #625 ), #190, .F. ) ;
#41 = ORIENTED_EDGE ( 'NONE', *, *, #474, .F. ) ;
#42 = CARTESIAN_POINT ( 'NONE',  ( -49.99999999999999289, 40.00000000000000000, 30.00000000000000000 ) ) ;
#43 = DIRECTION ( 'NONE',  ( -1.734723475976806108E-16, 1.000000000000000000, 0.000000000000000000 ) ) ;
#44 = ORIENTED_EDGE ( 'NONE', *, *, #474, .T. ) ;
#45 = LINE ( 'NONE', #524, #189 ) ;
#46 = ORIENTED_EDGE ( 'NONE', *, *, #7, .F. ) ;
#47 = VECTOR ( 'NONE', #595, 1000.000000000000000 ) ;
#48 = DIRECTION ( 'NONE',  ( 0.000000000000000000, 1.000000000000000000, 0.000000000000000000 ) ) ;
#49 = PRODUCT ( 'lack', 'lack', '', ( #163 ) ) ;
#50 = ORIENTED_EDGE ( 'NONE', *, *, #201, .T. ) ;
#51 = EDGE_CURVE ( 'NONE', #586, #513, #393, .T. ) ;
#52 = DIRECTION ( 'NONE',  ( 0.000000000000000000, 1.000000000000000000, 0.000000000000000000 ) ) ;
#53 = PLANE ( 'NONE',  #613 ) ;
#54 = EDGE_CURVE ( 'NONE', #234, #204, #243, .T. ) ;
#55 = CARTESIAN_POINT ( 'NONE',  ( -50.00000000000000711, 52.00000000000000000, 27.00000000000000000 ) ) ;
#56 = ORIENTED_EDGE ( 'NONE', *, *, #153, .T. ) ;
#57 = VECTOR ( 'NONE', #48, 1000.000000000000000 ) ;
#58 = CC_DESIGN_DATE_AND_TIME_ASSIGNMENT ( #312, #405, ( #528 ) ) ;
#59 = DIRECTION ( 'NONE',  ( -0.000000000000000000, -1.000000000000000000, -0.000000000000000000 ) ) ;
#60 = ORIENTED_EDGE ( 'NONE', *, *, #535, .T. ) ;
#61 = DIRECTION ( 'NONE',  ( 0.000000000000000000, 0.000000000000000000, -1.000000000000000000 ) ) ;
#62 = DIRECTION ( 'NONE',  ( 1.000000000000000000, 0.000000000000000000, 0.000000000000000000 ) ) ;
#63 = LINE ( 'NONE', #445, #307 ) ;
#64 = APPROVAL_STATUS ( 'not_yet_approved' ) ;
#65 = DIRECTION ( 'NONE',  ( 8.673617379884037013E-18, 1.000000000000000000, -0.000000000000000000 ) ) ;
#66 = CARTESIAN_POINT ( 'NONE',  ( 49.99999999999999289, 100.0000000000000000, 30.00000000000000000 ) ) ;
#67 = ORIENTED_EDGE ( 'NONE', *, *, #32, .T. ) ;
#68 = COORDINATED_UNIVERSAL_TIME_OFFSET ( 9, 0, .AHEAD. ) ;
#69 = DIRECTION ( 'NONE',  ( -1.000000000000000000, 0.000000000000000000, -0.000000000000000000 ) ) ;
#70 = VECTOR ( 'NONE', #280, 1000.000000000000000 ) ;
#71 = LINE ( 'NONE', #502, #399 ) ;
#72 = CARTESIAN_POINT ( 'NONE',  ( -50.00000000000000711, 52.00000000000000000, 27.00000000000000000 ) ) ;
#73 = EDGE_CURVE ( 'NONE', #101, #565, #290, .T. ) ;
#74 = CARTESIAN_POINT ( 'NONE',  ( -49.99999999999998579, 7.000000000000000000, 30.00000000000000000 ) ) ;
#75 = COORDINATED_UNIVERSAL_TIME_OFFSET ( 9, 0, .AHEAD. ) ;
#76 = DIRECTION ( 'NONE',  ( 1.000000000000000000, 3.469446951953614189E-16, -0.000000000000000000 ) ) ;
#77 = APPROVAL ( #500, 'UNSPECIFIED' ) ;
#78 = VERTEX_POINT ( 'NONE', #483 ) ;
#79 = VECTOR ( 'NONE', #128, 1000.000000000000000 ) ;
#80 = DIRECTION ( 'NONE',  ( -0.000000000000000000, -0.000000000000000000, -1.000000000000000000 ) ) ;
#81 = DIRECTION ( 'NONE',  ( 0.000000000000000000, -1.000000000000000000, 0.000000000000000000 ) ) ;
#82 = ORIENTED_EDGE ( 'NONE', *, *, #409, .T. ) ;
#83 = LINE ( 'NONE', #173, #325 ) ;
#84 = CARTESIAN_POINT ( 'NONE',  ( 0.000000000000000000, 0.000000000000000000, -30.00000000000000000 ) ) ;
#85 = EDGE_CURVE ( 'NONE', #303, #78, #627, .T. ) ;
#86 = ORIENTED_EDGE ( 'NONE', *, *, #214, .T. ) ;
#87 = AXIS2_PLACEMENT_3D ( 'NONE', #223, #372, #610 ) ;
#88 = CARTESIAN_POINT ( 'NONE',  ( 49.99999999999999289, 6.999999999999999112, 27.00000000000000000 ) ) ;
#89 = DIRECTION ( 'NONE',  ( 0.000000000000000000, 1.000000000000000000, -0.000000000000000000 ) ) ;
#90 = EDGE_LOOP ( 'NONE', ( #441, #188, #619, #349 ) ) ;
#91 = DIRECTION ( 'NONE',  ( -1.000000000000000000, 0.000000000000000000, 0.000000000000000000 ) ) ;
#92 = ADVANCED_FACE ( 'NONE', ( #192 ), #53, .F. ) ;
#93 = ORIENTED_EDGE ( 'NONE', *, *, #363, .T. ) ;
#94 = DIRECTION ( 'NONE',  ( 1.000000000000000000, 0.000000000000000000, 0.000000000000000000 ) ) ;
#95 = ORIENTED_EDGE ( 'NONE', *, *, #624, .T. ) ;
#96 = VECTOR ( 'NONE', #320, 1000.000000000000000 ) ;
#97 = DIRECTION ( 'NONE',  ( -0.000000000000000000, -0.000000000000000000, -1.000000000000000000 ) ) ;
#98 = DIRECTION ( 'NONE',  ( 1.000000000000000000, -1.734723475976807094E-16, 0.000000000000000000 ) ) ;
#99 = CARTESIAN_POINT ( 'NONE',  ( -50.00000000000000711, 100.0000000000000000, 30.00000000000000000 ) ) ;
#100 = EDGE_CURVE ( 'NONE', #296, #366, #482, .T. ) ;
#101 = VERTEX_POINT ( 'NONE', #331 ) ;
#102 = LINE ( 'NONE', #403, #127 ) ;
#103 = ORIENTED_EDGE ( 'NONE', *, *, #85, .T. ) ;
#104 = VECTOR ( 'NONE', #472, 1000.000000000000000 ) ;
#105 = VECTOR ( 'NONE', #606, 1000.000000000000000 ) ;
#106 = CARTESIAN_POINT ( 'NONE',  ( -60.00000000000003553, 100.0000000000000000, 30.00000000000000000 ) ) ;
#107 = ORIENTED_EDGE ( 'NONE', *, *, #137, .F. ) ;
#108 = CARTESIAN_POINT ( 'NONE',  ( 0.000000000000000000, 0.000000000000000000, 30.00000000000000000 ) ) ;
#109 = EDGE_CURVE ( 'NONE', #380, #497, #436, .T. ) ;
#110 = LINE ( 'NONE', #259, #518 ) ;
#111 = EDGE_LOOP ( 'NONE', ( #322, #425, #568, #605 ) ) ;
#112 = PERSON_AND_ORGANIZATION_ROLE ( 'classification_officer' ) ;
#113 = DIRECTION ( 'NONE',  ( 0.000000000000000000, 0.000000000000000000, 1.000000000000000000 ) ) ;
#114 = DIRECTION ( 'NONE',  ( -1.000000000000000000, -0.000000000000000000, -0.000000000000000000 ) ) ;
#115 = AXIS2_PLACEMENT_3D ( 'NONE', #171, #365, #266 ) ;
#116 = ORGANIZATION ( 'UNSPECIFIED', 'UNSPECIFIED', '' ) ;
#117 = EDGE_CURVE ( 'NONE', #186, #296, #519, .T. ) ;
#118 = APPROVAL_DATE_TIME ( #252, #77 ) ;
#119 = FACE_OUTER_BOUND ( 'NONE', #150, .T. ) ;
#120 = EDGE_LOOP ( 'NONE', ( #386, #516, #462, #600 ) ) ;
#121 = LINE ( 'NONE', #29, #206 ) ;
#122 = APPROVAL_DATE_TIME ( #364, #384 ) ;
#123 = CARTESIAN_POINT ( 'NONE',  ( 49.99999999999999289, 45.00000000000000000, -30.00000000000000000 ) ) ;
#124 = CARTESIAN_POINT ( 'NONE',  ( -60.00000000000003553, 100.0000000000000000, -30.00000000000000000 ) ) ;
#125 = APPROVAL_STATUS ( 'not_yet_approved' ) ;
#126 = FACE_OUTER_BOUND ( 'NONE', #111, .T. ) ;
#127 = VECTOR ( 'NONE', #294, 1000.000000000000000 ) ;
#128 = DIRECTION ( 'NONE',  ( 0.000000000000000000, 0.000000000000000000, 1.000000000000000000 ) ) ;
#129 = EDGE_CURVE ( 'NONE', #172, #525, #45, .T. ) ;
#130 = ORIENTED_EDGE ( 'NONE', *, *, #147, .F. ) ;
#131 = PLANE ( 'NONE',  #430 ) ;
#132 = ORIENTED_EDGE ( 'NONE', *, *, #575, .F. ) ;
#133 = CARTESIAN_POINT ( 'NONE',  ( -60.00000000000003553, 100.0000000000000000, 30.00000000000000000 ) ) ;
#134 = ORIENTED_EDGE ( 'NONE', *, *, #4, .T. ) ;
#135 = VECTOR ( 'NONE', #52, 1000.000000000000000 ) ;
#136 =( GEOMETRIC_REPRESENTATION_CONTEXT ( 3 ) GLOBAL_UNCERTAINTY_ASSIGNED_CONTEXT ( ( #321 ) ) GLOBAL_UNIT_ASSIGNED_CONTEXT ( ( #263, #345, #538 ) ) REPRESENTATION_CONTEXT ( 'NONE', 'WORKASPACE' ) );
#137 = EDGE_CURVE ( 'NONE', #78, #534, #473, .T. ) ;
#138 = LINE ( 'NONE', #233, #488 ) ;
#139 = ORIENTED_EDGE ( 'NONE', *, *, #137, .T. ) ;
#140 = APPROVAL ( #125, 'UNSPECIFIED' ) ;
#141 = PLANE ( 'NONE',  #588 ) ;
#142 = EDGE_LOOP ( 'NONE', ( #82, #23, #330, #193, #584, #614 ) ) ;
#143 = DIRECTION ( 'NONE',  ( -0.000000000000000000, -0.000000000000000000, -1.000000000000000000 ) ) ;
#144 = VECTOR ( 'NONE', #491, 1000.000000000000000 ) ;
#145 = CARTESIAN_POINT ( 'NONE',  ( 49.99999999999999289, 45.00000000000000000, 27.00000000000000000 ) ) ;
#146 = LINE ( 'NONE', #55, #154 ) ;
#147 = EDGE_CURVE ( 'NONE', #179, #450, #138, .T. ) ;
#148 = DIRECTION ( 'NONE',  ( -1.000000000000000000, 0.000000000000000000, 0.000000000000000000 ) ) ;
#149 = LINE ( 'NONE', #340, #144 ) ;
#150 = EDGE_LOOP ( 'NONE', ( #202, #209, #326, #132 ) ) ;
#151 = CARTESIAN_POINT ( 'NONE',  ( 49.99999999999999289, 45.00000000000000000, 27.00000000000000000 ) ) ;
#152 = ORIENTED_EDGE ( 'NONE', *, *, #4, .F. ) ;
#153 = EDGE_CURVE ( 'NONE', #497, #184, #618, .T. ) ;
#154 = VECTOR ( 'NONE', #113, 1000.000000000000000 ) ;
#155 = PLANE ( 'NONE',  #228 ) ;
#156 = CARTESIAN_POINT ( 'NONE',  ( 60.00000000000000000, 2.204364238465234876E-14, 30.00000000000000000 ) ) ;
#157 = ORIENTED_EDGE ( 'NONE', *, *, #51, .T. ) ;
#158 = CARTESIAN_POINT ( 'NONE',  ( 60.00000000000000000, 2.204364238465234876E-14, 30.00000000000000000 ) ) ;
#159 = DIRECTION ( 'NONE',  ( -0.000000000000000000, -0.000000000000000000, -1.000000000000000000 ) ) ;
#160 = COORDINATED_UNIVERSAL_TIME_OFFSET ( 9, 0, .AHEAD. ) ;
#161 = DIRECTION ( 'NONE',  ( 6.938893903907228378E-17, -1.000000000000000000, 0.000000000000000000 ) ) ;
#162 = EDGE_CURVE ( 'NONE', #427, #586, #570, .T. ) ;
#163 = MECHANICAL_CONTEXT ( 'NONE', #390, 'mechanical' ) ;
#164 = PERSON_AND_ORGANIZATION ( #356, #116 ) ;
#165 = CARTESIAN_POINT ( 'NONE',  ( 60.00000000000000000, 2.204364238465234876E-14, 30.00000000000000000 ) ) ;
#166 = VECTOR ( 'NONE', #503, 1000.000000000000000 ) ;
#167 = APPROVAL_PERSON_ORGANIZATION ( #359, #77, #594 ) ;
#168 = ORIENTED_EDGE ( 'NONE', *, *, #454, .F. ) ;
#169 = DIRECTION ( 'NONE',  ( -0.000000000000000000, -0.000000000000000000, -1.000000000000000000 ) ) ;
#170 = PERSON_AND_ORGANIZATION_ROLE ( 'creator' ) ;
#171 = CARTESIAN_POINT ( 'NONE',  ( -60.00000000000003553, 100.0000000000000000, 30.00000000000000000 ) ) ;
#172 = VERTEX_POINT ( 'NONE', #592 ) ;
#173 = CARTESIAN_POINT ( 'NONE',  ( 49.99999999999999289, 0.000000000000000000, -30.00000000000000000 ) ) ;
#174 = COORDINATED_UNIVERSAL_TIME_OFFSET ( 9, 0, .AHEAD. ) ;
#175 = LINE ( 'NONE', #370, #166 ) ;
#176 = ORIENTED_EDGE ( 'NONE', *, *, #117, .T. ) ;
#177 = DIRECTION ( 'NONE',  ( -0.000000000000000000, -0.000000000000000000, -1.000000000000000000 ) ) ;
#178 = ADVANCED_FACE ( 'NONE', ( #444 ), #19, .T. ) ;
#179 = VERTEX_POINT ( 'NONE', #495 ) ;
#180 = CLOSED_SHELL ( 'NONE', ( #531, #305, #195, #324, #313, #293, #438, #332, #92, #368, #40, #26, #596, #268, #286, #547, #178 ) ) ;
#181 = APPROVAL_PERSON_ORGANIZATION ( #12, #384, #446 ) ;
#182 = DIRECTION ( 'NONE',  ( 1.000000000000000000, -0.000000000000000000, -0.000000000000000000 ) ) ;
#183 = EDGE_CURVE ( 'NONE', #179, #234, #146, .T. ) ;
#184 = VERTEX_POINT ( 'NONE', #394 ) ;
#185 = LINE ( 'NONE', #615, #104 ) ;
#186 = VERTEX_POINT ( 'NONE', #484 ) ;
#187 = CARTESIAN_POINT ( 'NONE',  ( -50.00000000000000711, 0.000000000000000000, -30.00000000000000000 ) ) ;
#188 = ORIENTED_EDGE ( 'NONE', *, *, #117, .F. ) ;
#189 = VECTOR ( 'NONE', #94, 1000.000000000000000 ) ;
#190 = PLANE ( 'NONE',  #527 ) ;
#191 = ORIENTED_EDGE ( 'NONE', *, *, #100, .T. ) ;
#192 = FACE_OUTER_BOUND ( 'NONE', #410, .T. ) ;
#193 = ORIENTED_EDGE ( 'NONE', *, *, #73, .T. ) ;
#194 = CARTESIAN_POINT ( 'NONE',  ( -60.00000000000000000, -6.162975822039154730E-30, -30.00000000000000000 ) ) ;
#195 = ADVANCED_FACE ( 'NONE', ( #253 ), #337, .F. ) ;
#196 = VECTOR ( 'NONE', #608, 1000.000000000000000 ) ;
#197 = DIRECTION ( 'NONE',  ( 1.734723475976807094E-16, 1.000000000000000000, 0.000000000000000000 ) ) ;
#198 = PLANE ( 'NONE',  #37 ) ;
#199 = ORIENTED_EDGE ( 'NONE', *, *, #162, .T. ) ;
#200 = DIRECTION ( 'NONE',  ( 0.000000000000000000, 0.000000000000000000, -1.000000000000000000 ) ) ;
#201 = EDGE_CURVE ( 'NONE', #525, #333, #396, .T. ) ;
#202 = ORIENTED_EDGE ( 'NONE', *, *, #428, .F. ) ;
#203 = CARTESIAN_POINT ( 'NONE',  ( -60.00000000000000000, -6.162975822039154730E-30, -30.00000000000000000 ) ) ;
#204 = VERTEX_POINT ( 'NONE', #99 ) ;
#205 = VECTOR ( 'NONE', #182, 1000.000000000000000 ) ;
#206 = VECTOR ( 'NONE', #15, 1000.000000000000000 ) ;
#207 = DIRECTION ( 'NONE',  ( 0.000000000000000000, 0.000000000000000000, -1.000000000000000000 ) ) ;
#208 = LINE ( 'NONE', #404, #440 ) ;
#209 = ORIENTED_EDGE ( 'NONE', *, *, #468, .T. ) ;
#210 = PERSON_AND_ORGANIZATION_ROLE ( 'design_supplier' ) ;
#211 = LINE ( 'NONE', #457, #237 ) ;
#212 = DIRECTION ( 'NONE',  ( 0.000000000000000000, 0.000000000000000000, 1.000000000000000000 ) ) ;
#213 = DIRECTION ( 'NONE',  ( -3.469446951953614189E-16, 1.000000000000000000, 0.000000000000000000 ) ) ;
#214 = EDGE_CURVE ( 'NONE', #296, #172, #439, .T. ) ;
#215 = ORIENTED_EDGE ( 'NONE', *, *, #492, .T. ) ;
#216 = PLANE ( 'NONE',  #601 ) ;
#217 = LINE ( 'NONE', #501, #47 ) ;
#218 = AXIS2_PLACEMENT_3D ( 'NONE', #108, #200, #249 ) ;
#219 = LOCAL_TIME ( 23, 32, 33.00000000000000000, #75 ) ;
#220 = EDGE_LOOP ( 'NONE', ( #225, #60, #67, #269 ) ) ;
#221 = PERSON_AND_ORGANIZATION ( #356, #116 ) ;
#222 = CARTESIAN_POINT ( 'NONE',  ( -60.00000000000003553, 100.0000000000000000, -30.00000000000000000 ) ) ;
#223 = CARTESIAN_POINT ( 'NONE',  ( -60.00000000000003553, 100.0000000000000000, 30.00000000000000000 ) ) ;
#224 = EDGE_CURVE ( 'NONE', #427, #34, #13, .T. ) ;
#225 = ORIENTED_EDGE ( 'NONE', *, *, #624, .F. ) ;
#226 = CARTESIAN_POINT ( 'NONE',  ( 49.99999999999999289, 52.00000000000000000, 27.00000000000000000 ) ) ;
#227 = ORIENTED_EDGE ( 'NONE', *, *, #402, .F. ) ;
#228 = AXIS2_PLACEMENT_3D ( 'NONE', #408, #76, #213 ) ;
#229 = AXIS2_PLACEMENT_3D ( 'NONE', #548, #212, #62 ) ;
#230 = DIRECTION ( 'NONE',  ( 1.000000000000000000, 0.000000000000000000, 0.000000000000000000 ) ) ;
#231 = EDGE_CURVE ( 'NONE', #563, #427, #389, .T. ) ;
#232 = ORIENTED_EDGE ( 'NONE', *, *, #85, .F. ) ;
#233 = CARTESIAN_POINT ( 'NONE',  ( -50.00000000000000711, 45.00000000000000000, 27.00000000000000000 ) ) ;
#234 = VERTEX_POINT ( 'NONE', #541 ) ;
#235 = CARTESIAN_POINT ( 'NONE',  ( -60.00000000000003553, 100.0000000000000000, 30.00000000000000000 ) ) ;
#236 = VERTEX_POINT ( 'NONE', #447 ) ;
#237 = VECTOR ( 'NONE', #25, 1000.000000000000000 ) ;
#238 = CC_DESIGN_APPROVAL ( #384, ( #528 ) ) ;
#239 = CARTESIAN_POINT ( 'NONE',  ( 49.99999999999999289, 45.00000000000000000, 30.00000000000000000 ) ) ;
#240 = ORIENTED_EDGE ( 'NONE', *, *, #607, .F. ) ;
#241 = EDGE_CURVE ( 'NONE', #11, #303, #102, .T. ) ;
#242 = CARTESIAN_POINT ( 'NONE',  ( -49.99999999999998579, 7.000000000000000000, 27.00000000000000000 ) ) ;
#243 = LINE ( 'NONE', #522, #135 ) ;
#244 = CARTESIAN_POINT ( 'NONE',  ( 49.99999999999998579, -6.162975822039154730E-30, 30.00000000000000000 ) ) ;
#245 = VECTOR ( 'NONE', #143, 1000.000000000000000 ) ;
#246 = ORIENTED_EDGE ( 'NONE', *, *, #492, .F. ) ;
#247 = CARTESIAN_POINT ( 'NONE',  ( 0.000000000000000000, 0.000000000000000000, 27.00000000000000000 ) ) ;
#248 = VERTEX_POINT ( 'NONE', #151 ) ;
#249 = DIRECTION ( 'NONE',  ( -1.000000000000000000, 0.000000000000000000, -0.000000000000000000 ) ) ;
#250 = DIRECTION ( 'NONE',  ( 1.734723475976806108E-16, -1.000000000000000000, 0.000000000000000000 ) ) ;
#251 = ORIENTED_EDGE ( 'NONE', *, *, #260, .T. ) ;
#252 = DATE_AND_TIME ( #350, #308 ) ;
#253 = FACE_OUTER_BOUND ( 'NONE', #371, .T. ) ;
#254 = LINE ( 'NONE', #311, #602 ) ;
#255 = ORIENTED_EDGE ( 'NONE', *, *, #583, .F. ) ;
#256 = PERSON_AND_ORGANIZATION ( #356, #116 ) ;
#257 = AXIS2_PLACEMENT_3D ( 'NONE', #511, #81, #264 ) ;
#258 = DIRECTION ( 'NONE',  ( -6.938893903907228378E-17, 1.000000000000000000, 0.000000000000000000 ) ) ;
#259 = CARTESIAN_POINT ( 'NONE',  ( -49.99999999999998579, -2.081668171172168198E-14, 30.00000000000000000 ) ) ;
#260 = EDGE_CURVE ( 'NONE', #333, #383, #291, .T. ) ;
#261 = CARTESIAN_POINT ( 'NONE',  ( 49.99999999999998579, -2.081668171172168198E-14, 27.00000000000000000 ) ) ;
#262 = ORIENTED_EDGE ( 'NONE', *, *, #129, .T. ) ;
#263 =( LENGTH_UNIT ( ) NAMED_UNIT ( * ) SI_UNIT ( .MILLI., .METRE. ) );
#264 = DIRECTION ( 'NONE',  ( 0.000000000000000000, -0.000000000000000000, -1.000000000000000000 ) ) ;
#265 = ORIENTED_EDGE ( 'NONE', *, *, #338, .F. ) ;
#266 = DIRECTION ( 'NONE',  ( 1.000000000000000000, 2.312964634635742464E-16, 0.000000000000000000 ) ) ;
#267 = VECTOR ( 'NONE', #433, 1000.000000000000000 ) ;
#268 = ADVANCED_FACE ( 'NONE', ( #536 ), #198, .T. ) ;
#269 = ORIENTED_EDGE ( 'NONE', *, *, #109, .T. ) ;
#270 = CARTESIAN_POINT ( 'NONE',  ( 49.99999999999999289, 52.00000000000000000, 30.00000000000000000 ) ) ;
#271 = ORIENTED_EDGE ( 'NONE', *, *, #419, .F. ) ;
#272 = CARTESIAN_POINT ( 'NONE',  ( -50.00000000000000711, 45.00000000000000000, -30.00000000000000000 ) ) ;
#273 = DESIGN_CONTEXT ( 'detailed design', #434, 'design' ) ;
#274 = ORIENTED_EDGE ( 'NONE', *, *, #51, .F. ) ;
#275 = CARTESIAN_POINT ( 'NONE',  ( 49.99999999999999289, 100.0000000000000000, -30.00000000000000000 ) ) ;
#276 = VECTOR ( 'NONE', #334, 1000.000000000000000 ) ;
#277 = ORIENTED_EDGE ( 'NONE', *, *, #109, .F. ) ;
#278 = LINE ( 'NONE', #418, #205 ) ;
#279 = EDGE_CURVE ( 'NONE', #366, #236, #149, .T. ) ;
#280 = DIRECTION ( 'NONE',  ( -1.000000000000000000, 8.673617379884037013E-18, -0.000000000000000000 ) ) ;
#281 = ORIENTED_EDGE ( 'NONE', *, *, #147, .T. ) ;
#282 = CARTESIAN_POINT ( 'NONE',  ( -60.00000000000000000, -6.162975822039154730E-30, -30.00000000000000000 ) ) ;
#283 = ORIENTED_EDGE ( 'NONE', *, *, #535, .F. ) ;
#284 = CARTESIAN_POINT ( 'NONE',  ( -49.99999999999998579, -8.673617379884029161E-15, -30.00000000000000000 ) ) ;
#285 = ORIENTED_EDGE ( 'NONE', *, *, #224, .T. ) ;
#286 = ADVANCED_FACE ( 'NONE', ( #487 ), #351, .T. ) ;
#287 = VECTOR ( 'NONE', #43, 1000.000000000000000 ) ;
#288 = PRODUCT_DEFINITION_SHAPE ( 'NONE', 'NONE',  #477 ) ;
#289 = DIRECTION ( 'NONE',  ( 1.000000000000000000, 1.836970198721029688E-16, 0.000000000000000000 ) ) ;
#290 = LINE ( 'NONE', #581, #391 ) ;
#291 = LINE ( 'NONE', #3, #510 ) ;
#292 = EDGE_LOOP ( 'NONE', ( #523, #504, #41, #609 ) ) ;
#293 = ADVANCED_FACE ( 'NONE', ( #442, #6 ), #398, .F. ) ;
#294 = DIRECTION ( 'NONE',  ( -0.000000000000000000, -0.000000000000000000, -1.000000000000000000 ) ) ;
#295 = VECTOR ( 'NONE', #355, 1000.000000000000000 ) ;
#296 = VERTEX_POINT ( 'NONE', #9 ) ;
#297 = DIRECTION ( 'NONE',  ( -1.000000000000000000, 0.000000000000000000, -0.000000000000000000 ) ) ;
#298 = PERSON_AND_ORGANIZATION ( #356, #116 ) ;
#299 = ORIENTED_EDGE ( 'NONE', *, *, #338, .T. ) ;
#300 = DIRECTION ( 'NONE',  ( -1.836970198721029688E-16, 1.000000000000000000, 0.000000000000000000 ) ) ;
#301 = ADVANCED_BREP_SHAPE_REPRESENTATION ( 'lack', ( #388, #229 ), #136 ) ;
#302 = CARTESIAN_POINT ( 'NONE',  ( 49.99999999999999289, 40.00000000000000000, -30.00000000000000000 ) ) ;
#303 = VERTEX_POINT ( 'NONE', #203 ) ;
#304 = DIRECTION ( 'NONE',  ( 1.000000000000000000, 1.836970198721029688E-16, 0.000000000000000000 ) ) ;
#305 = ADVANCED_FACE ( 'NONE', ( #587 ), #155, .F. ) ;
#306 = DATE_AND_TIME ( #597, #470 ) ;
#307 = VECTOR ( 'NONE', #479, 1000.000000000000000 ) ;
#308 = LOCAL_TIME ( 23, 32, 33.00000000000000000, #174 ) ;
#309 = LINE ( 'NONE', #261, #480 ) ;
#310 = DIRECTION ( 'NONE',  ( 1.000000000000000000, 0.000000000000000000, 0.000000000000000000 ) ) ;
#311 = CARTESIAN_POINT ( 'NONE',  ( -60.00000000000000000, -6.162975822039154730E-30, 30.00000000000000000 ) ) ;
#312 = DATE_AND_TIME ( #369, #219 ) ;
#313 = ADVANCED_FACE ( 'NONE', ( #119 ), #413, .F. ) ;
#314 = LINE ( 'NONE', #72, #344 ) ;
#315 = ORIENTED_EDGE ( 'NONE', *, *, #153, .F. ) ;
#316 = CARTESIAN_POINT ( 'NONE',  ( -50.00000000000000711, 100.0000000000000000, 30.00000000000000000 ) ) ;
#317 = DATE_TIME_ROLE ( 'creation_date' ) ;
#318 = CARTESIAN_POINT ( 'NONE',  ( -49.99999999999998579, 7.000000000000000000, 30.00000000000000000 ) ) ;
#319 = DIRECTION ( 'NONE',  ( 0.000000000000000000, 0.000000000000000000, -1.000000000000000000 ) ) ;
#320 = DIRECTION ( 'NONE',  ( 1.000000000000000000, 0.000000000000000000, 0.000000000000000000 ) ) ;
#321 = UNCERTAINTY_MEASURE_WITH_UNIT (LENGTH_MEASURE( 1.000000000000000082E-05 ), #263, 'distance_accuracy_value', 'NONE');
#322 = ORIENTED_EDGE ( 'NONE', *, *, #607, .T. ) ;
#323 = PLANE ( 'NONE',  #373 ) ;
#324 = ADVANCED_FACE ( 'NONE', ( #126 ), #604, .F. ) ;
#325 = VECTOR ( 'NONE', #465, 1000.000000000000000 ) ;
#326 = ORIENTED_EDGE ( 'NONE', *, *, #341, .T. ) ;
#327 = PRODUCT_DEFINITION_FORMATION_WITH_SPECIFIED_SOURCE ( 'ANY', '', #49, .NOT_KNOWN. ) ;
#328 = CC_DESIGN_PERSON_AND_ORGANIZATION_ASSIGNMENT ( #256, #112, ( #528 ) ) ;
#329 = LINE ( 'NONE', #145, #57 ) ;
#330 = ORIENTED_EDGE ( 'NONE', *, *, #381, .F. ) ;
#331 = CARTESIAN_POINT ( 'NONE',  ( 49.99999999999999289, 40.00000000000000000, 30.00000000000000000 ) ) ;
#332 = ADVANCED_FACE ( 'NONE', ( #360 ), #30, .F. ) ;
#333 = VERTEX_POINT ( 'NONE', #414 ) ;
#334 = DIRECTION ( 'NONE',  ( -0.000000000000000000, -1.000000000000000000, -0.000000000000000000 ) ) ;
#335 = VECTOR ( 'NONE', #258, 1000.000000000000000 ) ;
#336 = CARTESIAN_POINT ( 'NONE',  ( 49.99999999999998579, -6.162975822039154730E-30, 30.00000000000000000 ) ) ;
#337 = PLANE ( 'NONE',  #420 ) ;
#338 = EDGE_CURVE ( 'NONE', #34, #508, #461, .T. ) ;
#339 = EDGE_LOOP ( 'NONE', ( #157, #134, #417, #375, #556, #576, #361, #199 ) ) ;
#340 = CARTESIAN_POINT ( 'NONE',  ( -49.99999999999998579, -2.081668171172168198E-14, 30.00000000000000000 ) ) ;
#341 = EDGE_CURVE ( 'NONE', #184, #422, #175, .T. ) ;
#342 = ORIENTED_EDGE ( 'NONE', *, *, #466, .F. ) ;
#343 = DIRECTION ( 'NONE',  ( -0.000000000000000000, -0.000000000000000000, -1.000000000000000000 ) ) ;
#344 = VECTOR ( 'NONE', #114, 1000.000000000000000 ) ;
#345 =( NAMED_UNIT ( * ) PLANE_ANGLE_UNIT ( ) SI_UNIT ( $, .RADIAN. ) );
#346 = ORIENTED_EDGE ( 'NONE', *, *, #7, .T. ) ;
#347 = CARTESIAN_POINT ( 'NONE',  ( 59.99999999999999289, 100.0000000000000284, 30.00000000000000000 ) ) ;
#348 = FACE_OUTER_BOUND ( 'NONE', #401, .T. ) ;
#349 = ORIENTED_EDGE ( 'NONE', *, *, #129, .F. ) ;
#350 = CALENDAR_DATE ( 2026, 26, 6 ) ;
#351 = PLANE ( 'NONE',  #499 ) ;
#352 = EDGE_CURVE ( 'NONE', #539, #179, #314, .T. ) ;
#353 = LINE ( 'NONE', #10, #448 ) ;
#354 = CALENDAR_DATE ( 2026, 26, 6 ) ;
#355 = DIRECTION ( 'NONE',  ( -1.000000000000000000, 8.673617379884037013E-18, -0.000000000000000000 ) ) ;
#356 = PERSON ( 'UNSPECIFIED', 'UNSPECIFIED', 'UNSPECIFIED', ('UNSPECIFIED'), ('UNSPECIFIED'), ('UNSPECIFIED') ) ;
#357 = DIRECTION ( 'NONE',  ( -0.000000000000000000, -0.000000000000000000, -1.000000000000000000 ) ) ;
#358 = VECTOR ( 'NONE', #80, 1000.000000000000000 ) ;
#359 = PERSON_AND_ORGANIZATION ( #356, #116 ) ;
#360 = FACE_OUTER_BOUND ( 'NONE', #5, .T. ) ;
#361 = ORIENTED_EDGE ( 'NONE', *, *, #231, .T. ) ;
#362 = CARTESIAN_POINT ( 'NONE',  ( 49.99999999999999289, 100.0000000000000000, 30.00000000000000000 ) ) ;
#363 = EDGE_CURVE ( 'NONE', #415, #366, #598, .T. ) ;
#364 = DATE_AND_TIME ( #354, #432 ) ;
#365 = DIRECTION ( 'NONE',  ( 2.312964634635742464E-16, -1.000000000000000000, 0.000000000000000000 ) ) ;
#366 = VERTEX_POINT ( 'NONE', #74 ) ;
#367 = CARTESIAN_POINT ( 'NONE',  ( 0.000000000000000000, 40.00000000000000000, -30.00000000000000000 ) ) ;
#368 = ADVANCED_FACE ( 'NONE', ( #507 ), #559, .F. ) ;
#369 = CALENDAR_DATE ( 2026, 26, 6 ) ;
#370 = CARTESIAN_POINT ( 'NONE',  ( -60.00000000000003553, 100.0000000000000000, -30.00000000000000000 ) ) ;
#371 = EDGE_LOOP ( 'NONE', ( #103, #255, #262, #50, #251, #475, #377, #573 ) ) ;
#372 = DIRECTION ( 'NONE',  ( 2.312964634635742464E-16, -1.000000000000000000, 0.000000000000000000 ) ) ;
#373 = AXIS2_PLACEMENT_3D ( 'NONE', #84, #319, #416 ) ;
#374 = LINE ( 'NONE', #367, #96 ) ;
#375 = ORIENTED_EDGE ( 'NONE', *, *, #428, .T. ) ;
#376 = LINE ( 'NONE', #133, #14 ) ;
#377 = ORIENTED_EDGE ( 'NONE', *, *, #616, .F. ) ;
#378 = DIRECTION ( 'NONE',  ( 0.000000000000000000, 1.000000000000000000, 0.000000000000000000 ) ) ;
#379 = AXIS2_PLACEMENT_3D ( 'NONE', #579, #207, #69 ) ;
#380 = VERTEX_POINT ( 'NONE', #123 ) ;
#381 = EDGE_CURVE ( 'NONE', #101, #415, #211, .T. ) ;
#382 = LINE ( 'NONE', #282, #412 ) ;
#383 = VERTEX_POINT ( 'NONE', #406 ) ;
#384 = APPROVAL ( #64, 'UNSPECIFIED' ) ;
#385 = LINE ( 'NONE', #429, #245 ) ;
#386 = ORIENTED_EDGE ( 'NONE', *, *, #17, .T. ) ;
#387 = CARTESIAN_POINT ( 'NONE',  ( 0.000000000000000000, 45.00000000000000000, -30.00000000000000000 ) ) ;
#388 = MANIFOLD_SOLID_BREP ( '보스-돌출2', #180 ) ;
#389 = LINE ( 'NONE', #158, #335 ) ;
#390 = APPLICATION_CONTEXT ( 'configuration controlled 3d designs of mechanical parts and assemblies' ) ;
#391 = VECTOR ( 'NONE', #97, 1000.000000000000000 ) ;
#392 = VECTOR ( 'NONE', #343, 1000.000000000000000 ) ;
#393 = LINE ( 'NONE', #239, #276 ) ;
#394 = CARTESIAN_POINT ( 'NONE',  ( -50.00000000000000711, 100.0000000000000000, -30.00000000000000000 ) ) ;
#395 = ORIENTED_EDGE ( 'NONE', *, *, #363, .F. ) ;
#396 = LINE ( 'NONE', #244, #2 ) ;
#397 = ORIENTED_EDGE ( 'NONE', *, *, #17, .F. ) ;
#398 = PLANE ( 'NONE',  #218 ) ;
#399 = VECTOR ( 'NONE', #159, 1000.000000000000000 ) ;
#400 = CC_DESIGN_SECURITY_CLASSIFICATION ( #528, ( #327 ) ) ;
#401 = EDGE_LOOP ( 'NONE', ( #532, #626, #86, #494, #139, #543 ) ) ;
#402 = EDGE_CURVE ( 'NONE', #539, #513, #217, .T. ) ;
#403 = CARTESIAN_POINT ( 'NONE',  ( -60.00000000000000000, -6.162975822039154730E-30, 30.00000000000000000 ) ) ;
#404 = CARTESIAN_POINT ( 'NONE',  ( -60.00000000000000000, -6.162975822039154730E-30, 30.00000000000000000 ) ) ;
#405 = DATE_TIME_ROLE ( 'classification_date' ) ;
#406 = CARTESIAN_POINT ( 'NONE',  ( 60.00000000000000000, 2.204364238465234876E-14, -30.00000000000000000 ) ) ;
#407 = APPROVAL_DATE_TIME ( #506, #140 ) ;
#408 = CARTESIAN_POINT ( 'NONE',  ( -60.00000000000000000, -6.162975822039154730E-30, 30.00000000000000000 ) ) ;
#409 = EDGE_CURVE ( 'NONE', #525, #186, #309, .T. ) ;
#410 = EDGE_LOOP ( 'NONE', ( #31, #623, #281, #95, #56, #611 ) ) ;
#411 = LINE ( 'NONE', #603, #421 ) ;
#412 = VECTOR ( 'NONE', #577, 1000.000000000000000 ) ;
#413 = PLANE ( 'NONE',  #115 ) ;
#414 = CARTESIAN_POINT ( 'NONE',  ( 49.99999999999998579, -6.162975822039154730E-30, -30.00000000000000000 ) ) ;
#415 = VERTEX_POINT ( 'NONE', #22 ) ;
#416 = DIRECTION ( 'NONE',  ( -1.000000000000000000, 0.000000000000000000, -0.000000000000000000 ) ) ;
#417 = ORIENTED_EDGE ( 'NONE', *, *, #54, .T. ) ;
#418 = CARTESIAN_POINT ( 'NONE',  ( 49.99999999999999289, 40.00000000000000000, 30.00000000000000000 ) ) ;
#419 = EDGE_CURVE ( 'NONE', #565, #333, #185, .T. ) ;
#420 = AXIS2_PLACEMENT_3D ( 'NONE', #530, #300, #533 ) ;
#421 = VECTOR ( 'NONE', #169, 1000.000000000000000 ) ;
#422 = VERTEX_POINT ( 'NONE', #124 ) ;
#423 = CARTESIAN_POINT ( 'NONE',  ( -50.00000000000000711, 52.00000000000000000, 27.00000000000000000 ) ) ;
#424 = CC_DESIGN_PERSON_AND_ORGANIZATION_ASSIGNMENT ( #221, #170, ( #477 ) ) ;
#425 = ORIENTED_EDGE ( 'NONE', *, *, #224, .F. ) ;
#426 = DIRECTION ( 'NONE',  ( -0.000000000000000000, -1.000000000000000000, -0.000000000000000000 ) ) ;
#427 = VERTEX_POINT ( 'NONE', #567 ) ;
#428 = EDGE_CURVE ( 'NONE', #204, #27, #376, .T. ) ;
#429 = CARTESIAN_POINT ( 'NONE',  ( 49.99999999999999289, 45.00000000000000000, 30.00000000000000000 ) ) ;
#430 = AXIS2_PLACEMENT_3D ( 'NONE', #423, #593, #459 ) ;
#431 = ORIENTED_EDGE ( 'NONE', *, *, #599, .F. ) ;
#432 = LOCAL_TIME ( 23, 32, 33.00000000000000000, #160 ) ;
#433 = DIRECTION ( 'NONE',  ( 0.000000000000000000, 0.000000000000000000, 1.000000000000000000 ) ) ;
#434 = APPLICATION_CONTEXT ( 'configuration controlled 3d designs of mechanical parts and assemblies' ) ;
#435 = EDGE_LOOP ( 'NONE', ( #271, #168, #107, #232, #397, #520, #315, #277, #246, #265, #240, #490 ) ) ;
#436 = LINE ( 'NONE', #387, #620 ) ;
#437 = CARTESIAN_POINT ( 'NONE',  ( -50.00000000000000711, 45.00000000000000000, 30.00000000000000000 ) ) ;
#438 = ADVANCED_FACE ( 'NONE', ( #463 ), #323, .T. ) ;
#439 = LINE ( 'NONE', #498, #39 ) ;
#440 = VECTOR ( 'NONE', #496, 1000.000000000000000 ) ;
#441 = ORIENTED_EDGE ( 'NONE', *, *, #214, .F. ) ;
#442 = FACE_OUTER_BOUND ( 'NONE', #339, .T. ) ;
#443 = ORIENTED_EDGE ( 'NONE', *, *, #599, .T. ) ;
#444 = FACE_OUTER_BOUND ( 'NONE', #458, .T. ) ;
#445 = CARTESIAN_POINT ( 'NONE',  ( -50.00000000000000711, 52.00000000000000000, 30.00000000000000000 ) ) ;
#446 = APPROVAL_ROLE ( '' ) ;
#447 = CARTESIAN_POINT ( 'NONE',  ( -49.99999999999999289, 40.00000000000000000, 30.00000000000000000 ) ) ;
#448 = VECTOR ( 'NONE', #505, 1000.000000000000000 ) ;
#449 = APPLICATION_PROTOCOL_DEFINITION ( 'international standard', 'config_control_design', 1994, #434 ) ;
#450 = VERTEX_POINT ( 'NONE', #517 ) ;
#451 = DIRECTION ( 'NONE',  ( -1.000000000000000000, 8.673617379884037013E-18, 0.000000000000000000 ) ) ;
#452 = LINE ( 'NONE', #362, #105 ) ;
#453 = CALENDAR_DATE ( 2026, 26, 6 ) ;
#454 = EDGE_CURVE ( 'NONE', #534, #565, #374, .T. ) ;
#455 = DIRECTION ( 'NONE',  ( 9.912705577010298925E-16, 1.000000000000000000, 0.000000000000000000 ) ) ;
#456 = PERSON_AND_ORGANIZATION ( #356, #116 ) ;
#457 = CARTESIAN_POINT ( 'NONE',  ( 49.99999999999998579, -6.162975822039154730E-30, 30.00000000000000000 ) ) ;
#458 = EDGE_LOOP ( 'NONE', ( #130, #571, #46, #283 ) ) ;
#459 = DIRECTION ( 'NONE',  ( 0.000000000000000000, -0.000000000000000000, 1.000000000000000000 ) ) ;
#460 = CC_DESIGN_APPROVAL ( #140, ( #477 ) ) ;
#461 = LINE ( 'NONE', #222, #196 ) ;
#462 = ORIENTED_EDGE ( 'NONE', *, *, #566, .F. ) ;
#463 = FACE_OUTER_BOUND ( 'NONE', #435, .T. ) ;
#464 = EDGE_LOOP ( 'NONE', ( #471, #93, #486, #44 ) ) ;
#465 = DIRECTION ( 'NONE',  ( 0.000000000000000000, -1.000000000000000000, 0.000000000000000000 ) ) ;
#466 = EDGE_CURVE ( 'NONE', #186, #415, #35, .T. ) ;
#467 = CARTESIAN_POINT ( 'NONE',  ( 49.99999999999998579, -2.081668171172168198E-14, 27.00000000000000000 ) ) ;
#468 = EDGE_CURVE ( 'NONE', #204, #184, #557, .T. ) ;
#469 = AXIS2_PLACEMENT_3D ( 'NONE', #545, #310, #550 ) ;
#470 = LOCAL_TIME ( 23, 32, 33.00000000000000000, #591 ) ;
#471 = ORIENTED_EDGE ( 'NONE', *, *, #381, .T. ) ;
#472 = DIRECTION ( 'NONE',  ( -1.734723475976807094E-16, -1.000000000000000000, 0.000000000000000000 ) ) ;
#473 = LINE ( 'NONE', #284, #287 ) ;
#474 = EDGE_CURVE ( 'NONE', #236, #101, #278, .T. ) ;
#475 = ORIENTED_EDGE ( 'NONE', *, *, #558, .F. ) ;
#476 = CARTESIAN_POINT ( 'NONE',  ( -49.99999999999998579, 7.000000000000000000, 27.00000000000000000 ) ) ;
#477 = PRODUCT_DEFINITION ( 'UNKNOWN', '', #327, #273 ) ;
#478 = ORIENTED_EDGE ( 'NONE', *, *, #32, .F. ) ;
#479 = DIRECTION ( 'NONE',  ( -1.000000000000000000, -0.000000000000000000, -0.000000000000000000 ) ) ;
#480 = VECTOR ( 'NONE', #455, 1000.000000000000000 ) ;
#481 = ORIENTED_EDGE ( 'NONE', *, *, #402, .T. ) ;
#482 = LINE ( 'NONE', #242, #267 ) ;
#483 = CARTESIAN_POINT ( 'NONE',  ( -49.99999999999998579, 1.836970198721024856E-15, -30.00000000000000000 ) ) ;
#484 = CARTESIAN_POINT ( 'NONE',  ( 49.99999999999999289, 6.999999999999999112, 27.00000000000000000 ) ) ;
#485 = CC_DESIGN_PERSON_AND_ORGANIZATION_ASSIGNMENT ( #164, #21, ( #327 ) ) ;
#486 = ORIENTED_EDGE ( 'NONE', *, *, #279, .T. ) ;
#487 = FACE_OUTER_BOUND ( 'NONE', #90, .T. ) ;
#488 = VECTOR ( 'NONE', #426, 1000.000000000000000 ) ;
#489 = CC_DESIGN_APPROVAL ( #77, ( #327 ) ) ;
#490 = ORIENTED_EDGE ( 'NONE', *, *, #260, .F. ) ;
#491 = DIRECTION ( 'NONE',  ( -1.734723475976806108E-16, 1.000000000000000000, 0.000000000000000000 ) ) ;
#492 = EDGE_CURVE ( 'NONE', #508, #380, #83, .T. ) ;
#493 = PERSON_AND_ORGANIZATION ( #356, #116 ) ;
#494 = ORIENTED_EDGE ( 'NONE', *, *, #583, .T. ) ;
#495 = CARTESIAN_POINT ( 'NONE',  ( -50.00000000000000711, 52.00000000000000000, 27.00000000000000000 ) ) ;
#496 = DIRECTION ( 'NONE',  ( 3.469446951953614189E-16, -1.000000000000000000, -0.000000000000000000 ) ) ;
#497 = VERTEX_POINT ( 'NONE', #272 ) ;
#498 = CARTESIAN_POINT ( 'NONE',  ( -49.99999999999998579, -2.081668171172168198E-14, 27.00000000000000000 ) ) ;
#499 = AXIS2_PLACEMENT_3D ( 'NONE', #247, #61, #297 ) ;
#500 = APPROVAL_STATUS ( 'not_yet_approved' ) ;
#501 = CARTESIAN_POINT ( 'NONE',  ( 49.99999999999999289, 52.00000000000000000, 27.00000000000000000 ) ) ;
#502 = CARTESIAN_POINT ( 'NONE',  ( 60.00000000000000000, 2.204364238465234876E-14, 30.00000000000000000 ) ) ;
#503 = DIRECTION ( 'NONE',  ( -1.000000000000000000, -2.312964634635742464E-16, -0.000000000000000000 ) ) ;
#504 = ORIENTED_EDGE ( 'NONE', *, *, #73, .F. ) ;
#505 = DIRECTION ( 'NONE',  ( -0.000000000000000000, -0.000000000000000000, -1.000000000000000000 ) ) ;
#506 = DATE_AND_TIME ( #453, #580 ) ;
#507 = FACE_OUTER_BOUND ( 'NONE', #220, .T. ) ;
#508 = VERTEX_POINT ( 'NONE', #275 ) ;
#509 = LINE ( 'NONE', #42, #358 ) ;
#510 = VECTOR ( 'NONE', #304, 1000.000000000000000 ) ;
#511 = CARTESIAN_POINT ( 'NONE',  ( 49.99999999999999289, 45.00000000000000000, 30.00000000000000000 ) ) ;
#512 = EDGE_CURVE ( 'NONE', #236, #534, #509, .T. ) ;
#513 = VERTEX_POINT ( 'NONE', #270 ) ;
#514 = CARTESIAN_POINT ( 'NONE',  ( -50.00000000000000711, 45.00000000000000000, 27.00000000000000000 ) ) ;
#515 = DIRECTION ( 'NONE',  ( -1.000000000000000000, -2.312964634635742464E-16, -0.000000000000000000 ) ) ;
#516 = ORIENTED_EDGE ( 'NONE', *, *, #241, .F. ) ;
#517 = CARTESIAN_POINT ( 'NONE',  ( -50.00000000000000711, 45.00000000000000000, 27.00000000000000000 ) ) ;
#518 = VECTOR ( 'NONE', #357, 1000.000000000000000 ) ;
#519 = LINE ( 'NONE', #476, #70 ) ;
#520 = ORIENTED_EDGE ( 'NONE', *, *, #341, .F. ) ;
#521 = CC_DESIGN_PERSON_AND_ORGANIZATION_ASSIGNMENT ( #298, #24, ( #49 ) ) ;
#522 = CARTESIAN_POINT ( 'NONE',  ( -50.00000000000000711, 45.00000000000000000, 30.00000000000000000 ) ) ;
#523 = ORIENTED_EDGE ( 'NONE', *, *, #454, .T. ) ;
#524 = CARTESIAN_POINT ( 'NONE',  ( -49.99999999999998579, -2.081668171172168198E-14, 27.00000000000000000 ) ) ;
#525 = VERTEX_POINT ( 'NONE', #467 ) ;
#526 = DIRECTION ( 'NONE',  ( 0.000000000000000000, 0.000000000000000000, 1.000000000000000000 ) ) ;
#527 = AXIS2_PLACEMENT_3D ( 'NONE', #336, #98, #197 ) ;
#528 = SECURITY_CLASSIFICATION ( '', '', #18 ) ;
#529 = CARTESIAN_POINT ( 'NONE',  ( 59.99999999999999289, 100.0000000000000284, -30.00000000000000000 ) ) ;
#530 = CARTESIAN_POINT ( 'NONE',  ( -60.00000000000000000, -6.162975822039154730E-30, 30.00000000000000000 ) ) ;
#531 = ADVANCED_FACE ( 'NONE', ( #612 ), #33, .F. ) ;
#532 = ORIENTED_EDGE ( 'NONE', *, *, #279, .F. ) ;
#533 = DIRECTION ( 'NONE',  ( -1.000000000000000000, -1.836970198721029688E-16, 0.000000000000000000 ) ) ;
#534 = VERTEX_POINT ( 'NONE', #560 ) ;
#535 = EDGE_CURVE ( 'NONE', #450, #248, #38, .T. ) ;
#536 = FACE_OUTER_BOUND ( 'NONE', #8, .T. ) ;
#537 = AXIS2_PLACEMENT_3D ( 'NONE', #165, #555, #161 ) ;
#538 =( NAMED_UNIT ( * ) SI_UNIT ( $, .STERADIAN. ) SOLID_ANGLE_UNIT ( ) );
#539 = VERTEX_POINT ( 'NONE', #226 ) ;
#540 = CC_DESIGN_PERSON_AND_ORGANIZATION_ASSIGNMENT ( #456, #210, ( #327 ) ) ;
#541 = CARTESIAN_POINT ( 'NONE',  ( -50.00000000000000711, 52.00000000000000000, 30.00000000000000000 ) ) ;
#542 = DIRECTION ( 'NONE',  ( 1.000000000000000000, 1.836970198721029688E-16, 0.000000000000000000 ) ) ;
#543 = ORIENTED_EDGE ( 'NONE', *, *, #512, .F. ) ;
#544 = DIRECTION ( 'NONE',  ( -1.000000000000000000, -2.312964634635742464E-16, -0.000000000000000000 ) ) ;
#545 = CARTESIAN_POINT ( 'NONE',  ( 49.99999999999999289, 45.00000000000000000, 30.00000000000000000 ) ) ;
#546 = VECTOR ( 'NONE', #177, 1000.000000000000000 ) ;
#547 = ADVANCED_FACE ( 'NONE', ( #564 ), #131, .T. ) ;
#548 = CARTESIAN_POINT ( 'NONE',  ( 0.000000000000000000, 0.000000000000000000, 0.000000000000000000 ) ) ;
#549 = SHAPE_DEFINITION_REPRESENTATION ( #288, #301 ) ;
#550 = DIRECTION ( 'NONE',  ( 0.000000000000000000, 0.000000000000000000, -1.000000000000000000 ) ) ;
#551 = ORIENTED_EDGE ( 'NONE', *, *, #352, .T. ) ;
#552 = CC_DESIGN_DATE_AND_TIME_ASSIGNMENT ( #306, #317, ( #477 ) ) ;
#553 = CARTESIAN_POINT ( 'NONE',  ( -49.99999999999998579, -2.081668171172168198E-14, 30.00000000000000000 ) ) ;
#554 = APPROVAL_ROLE ( '' ) ;
#555 = DIRECTION ( 'NONE',  ( -1.000000000000000000, -6.938893903907228378E-17, 0.000000000000000000 ) ) ;
#556 = ORIENTED_EDGE ( 'NONE', *, *, #566, .T. ) ;
#557 = LINE ( 'NONE', #316, #546 ) ;
#558 = EDGE_CURVE ( 'NONE', #563, #383, #71, .T. ) ;
#559 = PLANE ( 'NONE',  #257 ) ;
#560 = CARTESIAN_POINT ( 'NONE',  ( -49.99999999999999289, 40.00000000000000000, -30.00000000000000000 ) ) ;
#561 = VECTOR ( 'NONE', #230, 1000.000000000000000 ) ;
#562 = PRODUCT_RELATED_PRODUCT_CATEGORY ( 'detail', '', ( #49 ) ) ;
#563 = VERTEX_POINT ( 'NONE', #156 ) ;
#564 = FACE_OUTER_BOUND ( 'NONE', #36, .T. ) ;
#565 = VERTEX_POINT ( 'NONE', #302 ) ;
#566 = EDGE_CURVE ( 'NONE', #27, #11, #208, .T. ) ;
#567 = CARTESIAN_POINT ( 'NONE',  ( 59.99999999999999289, 100.0000000000000284, 30.00000000000000000 ) ) ;
#568 = ORIENTED_EDGE ( 'NONE', *, *, #231, .F. ) ;
#569 = VECTOR ( 'NONE', #378, 1000.000000000000000 ) ;
#570 = LINE ( 'NONE', #106, #578 ) ;
#571 = ORIENTED_EDGE ( 'NONE', *, *, #352, .F. ) ;
#572 = FACE_OUTER_BOUND ( 'NONE', #292, .T. ) ;
#573 = ORIENTED_EDGE ( 'NONE', *, *, #241, .T. ) ;
#574 = CARTESIAN_POINT ( 'NONE',  ( -60.00000000000000000, -6.162975822039154730E-30, 30.00000000000000000 ) ) ;
#575 = EDGE_CURVE ( 'NONE', #27, #422, #353, .T. ) ;
#576 = ORIENTED_EDGE ( 'NONE', *, *, #616, .T. ) ;
#577 = DIRECTION ( 'NONE',  ( 3.469446951953614189E-16, -1.000000000000000000, -0.000000000000000000 ) ) ;
#578 = VECTOR ( 'NONE', #544, 1000.000000000000000 ) ;
#579 = CARTESIAN_POINT ( 'NONE',  ( 0.000000000000000000, 0.000000000000000000, 27.00000000000000000 ) ) ;
#580 = LOCAL_TIME ( 23, 32, 33.00000000000000000, #68 ) ;
#581 = CARTESIAN_POINT ( 'NONE',  ( 49.99999999999999289, 40.00000000000000000, 30.00000000000000000 ) ) ;
#582 = CARTESIAN_POINT ( 'NONE',  ( -49.99999999999998579, 7.000000000000000000, 27.00000000000000000 ) ) ;
#583 = EDGE_CURVE ( 'NONE', #172, #78, #110, .T. ) ;
#584 = ORIENTED_EDGE ( 'NONE', *, *, #419, .T. ) ;
#585 = DIRECTION ( 'NONE',  ( -0.000000000000000000, -0.000000000000000000, -1.000000000000000000 ) ) ;
#586 = VERTEX_POINT ( 'NONE', #66 ) ;
#587 = FACE_OUTER_BOUND ( 'NONE', #120, .T. ) ;
#588 = AXIS2_PLACEMENT_3D ( 'NONE', #1, #89, #526 ) ;
#589 = APPLICATION_PROTOCOL_DEFINITION ( 'international standard', 'config_control_design', 1994, #390 ) ;
#590 = ORIENTED_EDGE ( 'NONE', *, *, #162, .F. ) ;
#591 = COORDINATED_UNIVERSAL_TIME_OFFSET ( 9, 0, .AHEAD. ) ;
#592 = CARTESIAN_POINT ( 'NONE',  ( -49.99999999999998579, -2.081668171172168198E-14, 27.00000000000000000 ) ) ;
#593 = DIRECTION ( 'NONE',  ( 0.000000000000000000, 1.000000000000000000, 0.000000000000000000 ) ) ;
#594 = APPROVAL_ROLE ( '' ) ;
#595 = DIRECTION ( 'NONE',  ( 0.000000000000000000, 0.000000000000000000, 1.000000000000000000 ) ) ;
#596 = ADVANCED_FACE ( 'NONE', ( #348 ), #216, .F. ) ;
#597 = CALENDAR_DATE ( 2026, 26, 6 ) ;
#598 = LINE ( 'NONE', #318, #295 ) ;
#599 = EDGE_CURVE ( 'NONE', #586, #508, #452, .T. ) ;
#600 = ORIENTED_EDGE ( 'NONE', *, *, #575, .T. ) ;
#601 = AXIS2_PLACEMENT_3D ( 'NONE', #553, #20, #250 ) ;
#602 = VECTOR ( 'NONE', #542, 1000.000000000000000 ) ;
#603 = CARTESIAN_POINT ( 'NONE',  ( -50.00000000000000711, 45.00000000000000000, 30.00000000000000000 ) ) ;
#604 = PLANE ( 'NONE',  #537 ) ;
#605 = ORIENTED_EDGE ( 'NONE', *, *, #558, .T. ) ;
#606 = DIRECTION ( 'NONE',  ( -0.000000000000000000, -0.000000000000000000, -1.000000000000000000 ) ) ;
#607 = EDGE_CURVE ( 'NONE', #383, #34, #121, .T. ) ;
#608 = DIRECTION ( 'NONE',  ( -1.000000000000000000, -2.312964634635742464E-16, -0.000000000000000000 ) ) ;
#609 = ORIENTED_EDGE ( 'NONE', *, *, #512, .T. ) ;
#610 = DIRECTION ( 'NONE',  ( 1.000000000000000000, 2.312964634635742464E-16, 0.000000000000000000 ) ) ;
#611 = ORIENTED_EDGE ( 'NONE', *, *, #468, .F. ) ;
#612 = FACE_OUTER_BOUND ( 'NONE', #617, .T. ) ;
#613 = AXIS2_PLACEMENT_3D ( 'NONE', #437, #148, #621 ) ;
#614 = ORIENTED_EDGE ( 'NONE', *, *, #201, .F. ) ;
#615 = CARTESIAN_POINT ( 'NONE',  ( 49.99999999999998579, -8.673617379884033894E-15, -30.00000000000000000 ) ) ;
#616 = EDGE_CURVE ( 'NONE', #11, #563, #254, .T. ) ;
#617 = EDGE_LOOP ( 'NONE', ( #299, #431, #590, #285 ) ) ;
#618 = LINE ( 'NONE', #187, #569 ) ;
#619 = ORIENTED_EDGE ( 'NONE', *, *, #409, .F. ) ;
#620 = VECTOR ( 'NONE', #91, 1000.000000000000000 ) ;
#621 = DIRECTION ( 'NONE',  ( 0.000000000000000000, 0.000000000000000000, 1.000000000000000000 ) ) ;
#622 = APPROVAL_PERSON_ORGANIZATION ( #493, #140, #554 ) ;
#623 = ORIENTED_EDGE ( 'NONE', *, *, #183, .F. ) ;
#624 = EDGE_CURVE ( 'NONE', #450, #497, #411, .T. ) ;
#625 = FACE_OUTER_BOUND ( 'NONE', #142, .T. ) ;
#626 = ORIENTED_EDGE ( 'NONE', *, *, #100, .F. ) ;
#627 = LINE ( 'NONE', #194, #28 ) ;
ENDSEC;
END-ISO-10303-21;
