ISO-10303-21;
HEADER;
FILE_DESCRIPTION (( 'STEP AP203' ),
    '1' );
FILE_NAME ('pallet.STEP',
    '2026-06-26T14:34:13',
    ( '' ),
    ( '' ),
    'SwSTEP 2.0',
    'SolidWorks 2021',
    '' );
FILE_SCHEMA (( 'CONFIG_CONTROL_DESIGN' ));
ENDSEC;

DATA;
#1 = APPROVAL_ROLE ( '' ) ;
#2 = EDGE_CURVE ( 'NONE', #70, #365, #180, .T. ) ;
#3 = VERTEX_POINT ( 'NONE', #54 ) ;
#4 = EDGE_CURVE ( 'NONE', #580, #388, #379, .T. ) ;
#5 = FACE_OUTER_BOUND ( 'NONE', #445, .T. ) ;
#6 = FACE_OUTER_BOUND ( 'NONE', #357, .T. ) ;
#7 = EDGE_CURVE ( 'NONE', #530, #499, #387, .T. ) ;
#8 = VERTEX_POINT ( 'NONE', #524 ) ;
#9 = CARTESIAN_POINT ( 'NONE',  ( 43.00000000000000000, 25.00000000000000000, 42.99999999999999289 ) ) ;
#10 = SHAPE_DEFINITION_REPRESENTATION ( #329, #250 ) ;
#11 = SECURITY_CLASSIFICATION ( '', '', #16 ) ;
#12 = LINE ( 'NONE', #517, #147 ) ;
#13 = CARTESIAN_POINT ( 'NONE',  ( -44.99999999999999289, 0.000000000000000000, 45.00000000000000000 ) ) ;
#14 = EDGE_CURVE ( 'NONE', #629, #637, #570, .T. ) ;
#15 = ORIENTED_EDGE ( 'NONE', *, *, #451, .T. ) ;
#16 = SECURITY_CLASSIFICATION_LEVEL ( 'unclassified' ) ;
#17 = ORIENTED_EDGE ( 'NONE', *, *, #428, .T. ) ;
#18 = DIRECTION ( 'NONE',  ( 1.541976423090495387E-16, 0.000000000000000000, 1.000000000000000000 ) ) ;
#19 = ORIENTED_EDGE ( 'NONE', *, *, #419, .T. ) ;
#20 = DIRECTION ( 'NONE',  ( 1.692413147294445970E-16, 0.000000000000000000, -1.000000000000000000 ) ) ;
#21 = AXIS2_PLACEMENT_3D ( 'NONE', #190, #348, #230 ) ;
#22 = VECTOR ( 'NONE', #269, 1000.000000000000000 ) ;
#23 = EDGE_CURVE ( 'NONE', #388, #288, #12, .T. ) ;
#24 = EDGE_LOOP ( 'NONE', ( #614, #228, #45, #41 ) ) ;
#25 = APPLICATION_PROTOCOL_DEFINITION ( 'international standard', 'config_control_design', 1994, #206 ) ;
#26 = DIRECTION ( 'NONE',  ( -0.000000000000000000, 1.000000000000000000, 0.000000000000000000 ) ) ;
#27 = DIRECTION ( 'NONE',  ( -8.068481283613057027E-17, 0.000000000000000000, -1.000000000000000000 ) ) ;
#28 = EDGE_CURVE ( 'NONE', #567, #77, #423, .T. ) ;
#29 = DIRECTION ( 'NONE',  ( 1.000000000000000000, 0.000000000000000000, -0.000000000000000000 ) ) ;
#30 = VERTEX_POINT ( 'NONE', #275 ) ;
#31 = VECTOR ( 'NONE', #20, 1000.000000000000000 ) ;
#32 = VECTOR ( 'NONE', #296, 1000.000000000000000 ) ;
#33 = LINE ( 'NONE', #399, #231 ) ;
#34 = DIRECTION ( 'NONE',  ( -1.000000000000000000, 0.000000000000000000, 1.836970198721029688E-16 ) ) ;
#35 = ORIENTED_EDGE ( 'NONE', *, *, #4, .T. ) ;
#36 = ORIENTED_EDGE ( 'NONE', *, *, #97, .T. ) ;
#37 = LINE ( 'NONE', #248, #427 ) ;
#38 = PERSON_AND_ORGANIZATION_ROLE ( 'creator' ) ;
#39 = ADVANCED_FACE ( 'NONE', ( #424, #617, #172 ), #383, .F. ) ;
#40 = PERSON_AND_ORGANIZATION ( #316, #584 ) ;
#41 = ORIENTED_EDGE ( 'NONE', *, *, #4, .F. ) ;
#42 = LINE ( 'NONE', #595, #32 ) ;
#43 = VECTOR ( 'NONE', #303, 1000.000000000000000 ) ;
#44 = LINE ( 'NONE', #641, #642 ) ;
#45 = ORIENTED_EDGE ( 'NONE', *, *, #23, .F. ) ;
#46 = ORIENTED_EDGE ( 'NONE', *, *, #14, .T. ) ;
#47 = CARTESIAN_POINT ( 'NONE',  ( 40.00000000000000711, -5.697340647455879248E-62, 45.00000000000000000 ) ) ;
#48 = EDGE_LOOP ( 'NONE', ( #598, #307, #254, #184 ) ) ;
#49 = DIRECTION ( 'NONE',  ( 1.000000000000000000, 0.000000000000000000, -1.541976423090495387E-16 ) ) ;
#50 = MECHANICAL_CONTEXT ( 'NONE', #206, 'mechanical' ) ;
#51 = LINE ( 'NONE', #268, #458 ) ;
#52 = AXIS2_PLACEMENT_3D ( 'NONE', #286, #402, #591 ) ;
#53 = PLANE ( 'NONE',  #351 ) ;
#54 = CARTESIAN_POINT ( 'NONE',  ( -39.99999999999999289, 7.000000000000000000, 45.00000000000001421 ) ) ;
#55 = PLANE ( 'NONE',  #600 ) ;
#56 = APPROVAL_DATE_TIME ( #277, #166 ) ;
#57 = EDGE_CURVE ( 'NONE', #494, #388, #483, .T. ) ;
#58 = LINE ( 'NONE', #9, #60 ) ;
#59 = PRODUCT_RELATED_PRODUCT_CATEGORY ( 'detail', '', ( #569 ) ) ;
#60 = VECTOR ( 'NONE', #223, 1000.000000000000000 ) ;
#61 = LOCAL_TIME ( 23, 34, 13.00000000000000000, #362 ) ;
#62 = ORIENTED_EDGE ( 'NONE', *, *, #356, .F. ) ;
#63 = PERSON_AND_ORGANIZATION_ROLE ( 'classification_officer' ) ;
#64 = DATE_AND_TIME ( #384, #280 ) ;
#65 = VERTEX_POINT ( 'NONE', #246 ) ;
#66 = DIRECTION ( 'NONE',  ( -1.000000000000000000, 0.000000000000000000, 1.836970198721029688E-16 ) ) ;
#67 = ORIENTED_EDGE ( 'NONE', *, *, #226, .F. ) ;
#68 = DIRECTION ( 'NONE',  ( -1.000000000000000000, 0.000000000000000000, 8.068481283613057027E-17 ) ) ;
#69 = ADVANCED_FACE ( 'NONE', ( #349 ), #72, .T. ) ;
#70 = VERTEX_POINT ( 'NONE', #345 ) ;
#71 = CARTESIAN_POINT ( 'NONE',  ( 43.00000000000000711, 25.00000000000000000, 1.999999999999983569 ) ) ;
#72 = PLANE ( 'NONE',  #375 ) ;
#73 = DIRECTION ( 'NONE',  ( 0.000000000000000000, -0.000000000000000000, 1.000000000000000000 ) ) ;
#74 = ORIENTED_EDGE ( 'NONE', *, *, #518, .F. ) ;
#75 = VECTOR ( 'NONE', #587, 1000.000000000000000 ) ;
#76 = APPROVAL_PERSON_ORGANIZATION ( #137, #392, #1 ) ;
#77 = VERTEX_POINT ( 'NONE', #192 ) ;
#78 = DIRECTION ( 'NONE',  ( -0.000000000000000000, -1.000000000000000000, -0.000000000000000000 ) ) ;
#79 = EDGE_CURVE ( 'NONE', #435, #494, #443, .T. ) ;
#80 = ORIENTED_EDGE ( 'NONE', *, *, #436, .F. ) ;
#81 = FACE_OUTER_BOUND ( 'NONE', #526, .T. ) ;
#82 = AXIS2_PLACEMENT_3D ( 'NONE', #219, #511, #516 ) ;
#83 = DIRECTION ( 'NONE',  ( 1.836970198721030427E-16, 0.000000000000000000, 1.000000000000000000 ) ) ;
#84 = ORIENTED_EDGE ( 'NONE', *, *, #271, .F. ) ;
#85 = ORIENTED_EDGE ( 'NONE', *, *, #363, .T. ) ;
#86 = CARTESIAN_POINT ( 'NONE',  ( -42.99999999999999289, 30.00000000000000355, 43.00000000000000000 ) ) ;
#87 = ORIENTED_EDGE ( 'NONE', *, *, #470, .T. ) ;
#88 = DIRECTION ( 'NONE',  ( -1.000000000000000000, 0.000000000000000000, 1.836970198721029688E-16 ) ) ;
#89 = DIRECTION ( 'NONE',  ( -1.000000000000000000, 0.000000000000000000, 1.541976423090495387E-16 ) ) ;
#90 = LINE ( 'NONE', #495, #343 ) ;
#91 = ORIENTED_EDGE ( 'NONE', *, *, #28, .F. ) ;
#92 = AXIS2_PLACEMENT_3D ( 'NONE', #643, #347, #83 ) ;
#93 = CARTESIAN_POINT ( 'NONE',  ( 8.266365894244635122E-15, 7.000000000000000000, 45.00000000000000711 ) ) ;
#94 = PERSON_AND_ORGANIZATION ( #316, #584 ) ;
#95 = ORIENTED_EDGE ( 'NONE', *, *, #79, .T. ) ;
#96 = CARTESIAN_POINT ( 'NONE',  ( 40.00000000000000000, -5.697340647455879248E-62, -7.347880794884116778E-15 ) ) ;
#97 = EDGE_CURVE ( 'NONE', #335, #256, #342, .T. ) ;
#98 = ORIENTED_EDGE ( 'NONE', *, *, #318, .T. ) ;
#99 = PERSON_AND_ORGANIZATION ( #316, #584 ) ;
#100 = DIRECTION ( 'NONE',  ( 0.000000000000000000, 0.000000000000000000, 1.000000000000000000 ) ) ;
#101 = ORIENTED_EDGE ( 'NONE', *, *, #255, .T. ) ;
#102 = DIRECTION ( 'NONE',  ( 0.000000000000000000, -1.000000000000000000, 0.000000000000000000 ) ) ;
#103 = ADVANCED_FACE ( 'NONE', ( #398 ), #631, .F. ) ;
#104 = DIRECTION ( 'NONE',  ( -1.000000000000000000, 0.000000000000000000, 1.836970198721029934E-16 ) ) ;
#105 = VERTEX_POINT ( 'NONE', #188 ) ;
#106 = VERTEX_POINT ( 'NONE', #434 ) ;
#107 = VECTOR ( 'NONE', #468, 1000.000000000000000 ) ;
#108 =( GEOMETRIC_REPRESENTATION_CONTEXT ( 3 ) GLOBAL_UNCERTAINTY_ASSIGNED_CONTEXT ( ( #395 ) ) GLOBAL_UNIT_ASSIGNED_CONTEXT ( ( #298, #389, #527 ) ) REPRESENTATION_CONTEXT ( 'NONE', 'WORKASPACE' ) );
#109 = CARTESIAN_POINT ( 'NONE',  ( 0.000000000000000000, 25.00000000000000000, 0.000000000000000000 ) ) ;
#110 = EDGE_LOOP ( 'NONE', ( #491, #95, #535, #87 ) ) ;
#111 = CARTESIAN_POINT ( 'NONE',  ( 43.00000000000000711, 30.00000000000000355, 1.999999999999983569 ) ) ;
#112 = LINE ( 'NONE', #221, #22 ) ;
#113 = APPROVAL_STATUS ( 'not_yet_approved' ) ;
#114 = EDGE_CURVE ( 'NONE', #435, #510, #628, .T. ) ;
#115 = DIRECTION ( 'NONE',  ( -1.000000000000000000, 0.000000000000000000, 0.000000000000000000 ) ) ;
#116 = LINE ( 'NONE', #155, #482 ) ;
#117 = CARTESIAN_POINT ( 'NONE',  ( 10.00000000000000888, 23.00000000000000000, 45.00000000000000711 ) ) ;
#118 = EDGE_LOOP ( 'NONE', ( #285, #160, #417, #120 ) ) ;
#119 = ADVANCED_FACE ( 'NONE', ( #301 ), #487, .T. ) ;
#120 = ORIENTED_EDGE ( 'NONE', *, *, #547, .F. ) ;
#121 = DIRECTION ( 'NONE',  ( -0.000000000000000000, -1.000000000000000000, -0.000000000000000000 ) ) ;
#122 = DIRECTION ( 'NONE',  ( 6.792721752314501023E-48, 1.000000000000000000, 3.697785493223492838E-32 ) ) ;
#123 = PRODUCT_DEFINITION ( 'UNKNOWN', '', #149, #191 ) ;
#124 = FACE_OUTER_BOUND ( 'NONE', #48, .T. ) ;
#125 = ORIENTED_EDGE ( 'NONE', *, *, #639, .T. ) ;
#126 = DIRECTION ( 'NONE',  ( 0.000000000000000000, -0.000000000000000000, -1.000000000000000000 ) ) ;
#127 = VECTOR ( 'NONE', #346, 1000.000000000000000 ) ;
#128 = AXIS2_PLACEMENT_3D ( 'NONE', #582, #129, #152 ) ;
#129 = DIRECTION ( 'NONE',  ( 0.000000000000000000, 0.000000000000000000, 1.000000000000000000 ) ) ;
#130 = EDGE_CURVE ( 'NONE', #365, #512, #202, .T. ) ;
#131 = CARTESIAN_POINT ( 'NONE',  ( 45.00000000000000000, 25.00000000000000000, -1.653273178848926709E-14 ) ) ;
#132 = CARTESIAN_POINT ( 'NONE',  ( 8.266365894244635122E-15, 7.000000000000000000, 45.00000000000000711 ) ) ;
#133 = VECTOR ( 'NONE', #558, 1000.000000000000000 ) ;
#134 = DIRECTION ( 'NONE',  ( 1.692413147294445230E-16, 0.000000000000000000, 1.000000000000000000 ) ) ;
#135 = CARTESIAN_POINT ( 'NONE',  ( -9.999999999999991118, 23.00000000000000000, 45.00000000000000711 ) ) ;
#136 = ORIENTED_EDGE ( 'NONE', *, *, #428, .F. ) ;
#137 = PERSON_AND_ORGANIZATION ( #316, #584 ) ;
#138 = FACE_OUTER_BOUND ( 'NONE', #203, .T. ) ;
#139 = LINE ( 'NONE', #450, #75 ) ;
#140 = CC_DESIGN_PERSON_AND_ORGANIZATION_ASSIGNMENT ( #270, #63, ( #11 ) ) ;
#141 = CARTESIAN_POINT ( 'NONE',  ( -43.00000000000000000, 25.00000000000000000, 1.999999999999983569 ) ) ;
#142 = APPROVAL_ROLE ( '' ) ;
#143 = CARTESIAN_POINT ( 'NONE',  ( 40.00000000000000711, 7.000000000000000000, 45.00000000000000000 ) ) ;
#144 = CARTESIAN_POINT ( 'NONE',  ( -39.99999999999999289, 7.000000000000000000, 45.00000000000001421 ) ) ;
#145 = EDGE_LOOP ( 'NONE', ( #408, #369, #150, #352 ) ) ;
#146 = CARTESIAN_POINT ( 'NONE',  ( 0.000000000000000000, 30.00000000000000355, 0.000000000000000000 ) ) ;
#147 = VECTOR ( 'NONE', #66, 1000.000000000000000 ) ;
#148 = ADVANCED_FACE ( 'NONE', ( #205, #407 ), #597, .T. ) ;
#149 = PRODUCT_DEFINITION_FORMATION_WITH_SPECIFIED_SOURCE ( 'ANY', '', #569, .NOT_KNOWN. ) ;
#150 = ORIENTED_EDGE ( 'NONE', *, *, #28, .T. ) ;
#151 = LINE ( 'NONE', #260, #133 ) ;
#152 = DIRECTION ( 'NONE',  ( 1.000000000000000000, 0.000000000000000000, 0.000000000000000000 ) ) ;
#153 = EDGE_CURVE ( 'NONE', #256, #65, #498, .T. ) ;
#154 = PLANE ( 'NONE',  #403 ) ;
#155 = CARTESIAN_POINT ( 'NONE',  ( -39.99999999999999289, -5.697340647455879248E-62, 45.00000000000001421 ) ) ;
#156 = ORIENTED_EDGE ( 'NONE', *, *, #114, .T. ) ;
#157 = DIRECTION ( 'NONE',  ( -1.692413147294445230E-16, 0.000000000000000000, -1.000000000000000000 ) ) ;
#158 = CARTESIAN_POINT ( 'NONE',  ( 10.00000000000000888, 23.00000000000000000, 45.00000000000000711 ) ) ;
#159 = ADVANCED_FACE ( 'NONE', ( #5 ), #174, .F. ) ;
#160 = ORIENTED_EDGE ( 'NONE', *, *, #153, .F. ) ;
#161 = COORDINATED_UNIVERSAL_TIME_OFFSET ( 9, 0, .AHEAD. ) ;
#162 = CARTESIAN_POINT ( 'NONE',  ( 40.00000000000000711, -5.697340647455879248E-62, 45.00000000000000000 ) ) ;
#163 = PLANE ( 'NONE',  #409 ) ;
#164 = VECTOR ( 'NONE', #364, 1000.000000000000000 ) ;
#165 = CC_DESIGN_APPROVAL ( #392, ( #123 ) ) ;
#166 = APPROVAL ( #113, 'UNSPECIFIED' ) ;
#167 = ORIENTED_EDGE ( 'NONE', *, *, #208, .T. ) ;
#168 = DIRECTION ( 'NONE',  ( -1.541976423090495387E-16, 0.000000000000000000, -1.000000000000000000 ) ) ;
#169 = ORIENTED_EDGE ( 'NONE', *, *, #130, .F. ) ;
#170 = VERTEX_POINT ( 'NONE', #613 ) ;
#171 = CARTESIAN_POINT ( 'NONE',  ( 9.999999999999994671, -2.168404344971008868E-15, -1.836970198721027222E-15 ) ) ;
#172 = FACE_BOUND ( 'NONE', #264, .T. ) ;
#173 = ORIENTED_EDGE ( 'NONE', *, *, #547, .T. ) ;
#174 = PLANE ( 'NONE',  #82 ) ;
#175 = EDGE_CURVE ( 'NONE', #499, #557, #609, .T. ) ;
#176 = DIRECTION ( 'NONE',  ( 1.836970198721029934E-16, -0.000000000000000000, 1.000000000000000000 ) ) ;
#177 = VECTOR ( 'NONE', #593, 1000.000000000000000 ) ;
#178 = ORIENTED_EDGE ( 'NONE', *, *, #554, .T. ) ;
#179 = EDGE_LOOP ( 'NONE', ( #173, #215, #514, #313 ) ) ;
#180 = LINE ( 'NONE', #282, #572 ) ;
#181 = ORIENTED_EDGE ( 'NONE', *, *, #7, .T. ) ;
#182 = EDGE_CURVE ( 'NONE', #414, #70, #523, .T. ) ;
#183 = CARTESIAN_POINT ( 'NONE',  ( 8.266365894244635122E-15, 23.00000000000000000, 45.00000000000000711 ) ) ;
#184 = ORIENTED_EDGE ( 'NONE', *, *, #195, .T. ) ;
#185 = CARTESIAN_POINT ( 'NONE',  ( -42.99999999999999289, 30.00000000000000355, 43.00000000000000000 ) ) ;
#186 = AXIS2_PLACEMENT_3D ( 'NONE', #227, #176, #575 ) ;
#187 = VECTOR ( 'NONE', #213, 1000.000000000000000 ) ;
#188 = CARTESIAN_POINT ( 'NONE',  ( -40.00000000000000000, 23.00000000000000000, 7.347880794884121511E-15 ) ) ;
#189 = CARTESIAN_POINT ( 'NONE',  ( 45.00000000000000711, 30.00000000000000355, 44.99999999999998579 ) ) ;
#190 = CARTESIAN_POINT ( 'NONE',  ( 10.00000000000000355, -2.168404344971008868E-15, 45.00000000000000711 ) ) ;
#191 = DESIGN_CONTEXT ( 'detailed design', #390, 'design' ) ;
#192 = CARTESIAN_POINT ( 'NONE',  ( 40.00000000000000000, 23.00000000000000000, 44.99999999999998579 ) ) ;
#193 = CARTESIAN_POINT ( 'NONE',  ( -45.00000000000000000, 30.00000000000000355, 0.000000000000000000 ) ) ;
#194 = LINE ( 'NONE', #457, #107 ) ;
#195 = EDGE_CURVE ( 'NONE', #170, #420, #413, .T. ) ;
#196 = CARTESIAN_POINT ( 'NONE',  ( 43.00000000000000000, 25.00000000000000000, 42.99999999999999289 ) ) ;
#197 = EDGE_LOOP ( 'NONE', ( #15, #207, #257, #17 ) ) ;
#198 = VERTEX_POINT ( 'NONE', #71 ) ;
#199 = DIRECTION ( 'NONE',  ( 0.000000000000000000, -0.000000000000000000, -1.000000000000000000 ) ) ;
#200 = ORIENTED_EDGE ( 'NONE', *, *, #130, .T. ) ;
#201 = COORDINATED_UNIVERSAL_TIME_OFFSET ( 9, 0, .AHEAD. ) ;
#202 = LINE ( 'NONE', #209, #177 ) ;
#203 = EDGE_LOOP ( 'NONE', ( #36, #484, #169, #456 ) ) ;
#204 = ORIENTED_EDGE ( 'NONE', *, *, #249, .F. ) ;
#205 = FACE_OUTER_BOUND ( 'NONE', #508, .T. ) ;
#206 = APPLICATION_CONTEXT ( 'configuration controlled 3d designs of mechanical parts and assemblies' ) ;
#207 = ORIENTED_EDGE ( 'NONE', *, *, #373, .F. ) ;
#208 = EDGE_CURVE ( 'NONE', #414, #65, #238, .T. ) ;
#209 = CARTESIAN_POINT ( 'NONE',  ( 45.00000000000000711, 30.00000000000000355, 44.99999999999998579 ) ) ;
#210 = VECTOR ( 'NONE', #323, 1000.000000000000000 ) ;
#211 = LOCAL_TIME ( 23, 34, 13.00000000000000000, #201 ) ;
#212 = VERTEX_POINT ( 'NONE', #474 ) ;
#213 = DIRECTION ( 'NONE',  ( -0.000000000000000000, -1.000000000000000000, -0.000000000000000000 ) ) ;
#214 = DIRECTION ( 'NONE',  ( -1.836970198721030427E-16, -0.000000000000000000, -1.000000000000000000 ) ) ;
#215 = ORIENTED_EDGE ( 'NONE', *, *, #506, .F. ) ;
#216 = DIRECTION ( 'NONE',  ( -1.000000000000000000, 0.000000000000000000, 1.836970198721029688E-16 ) ) ;
#217 = CARTESIAN_POINT ( 'NONE',  ( -9.999999999999998224, 7.000000000000002665, 44.99999999999999289 ) ) ;
#218 = LINE ( 'NONE', #568, #385 ) ;
#219 = CARTESIAN_POINT ( 'NONE',  ( -9.999999999999996447, 2.168404344971011235E-15, 45.00000000000000711 ) ) ;
#220 = PLANE ( 'NONE',  #465 ) ;
#221 = CARTESIAN_POINT ( 'NONE',  ( -44.99999999999999289, 25.00000000000000000, 45.00000000000000000 ) ) ;
#222 = ORIENTED_EDGE ( 'NONE', *, *, #518, .T. ) ;
#223 = DIRECTION ( 'NONE',  ( 1.692413147294445970E-16, 0.000000000000000000, -1.000000000000000000 ) ) ;
#224 = DIRECTION ( 'NONE',  ( -1.692413147294445723E-16, 0.000000000000000000, 1.000000000000000000 ) ) ;
#225 = DATE_TIME_ROLE ( 'classification_date' ) ;
#226 = EDGE_CURVE ( 'NONE', #77, #530, #232, .T. ) ;
#227 = CARTESIAN_POINT ( 'NONE',  ( -45.00000000000000000, 25.00000000000000000, 0.000000000000000000 ) ) ;
#228 = ORIENTED_EDGE ( 'NONE', *, *, #451, .F. ) ;
#229 = PERSON_AND_ORGANIZATION ( #316, #584 ) ;
#230 = DIRECTION ( 'NONE',  ( 2.168404344971010347E-16, 1.000000000000000000, 0.000000000000000000 ) ) ;
#231 = VECTOR ( 'NONE', #134, 1000.000000000000000 ) ;
#232 = LINE ( 'NONE', #236, #612 ) ;
#233 = ADVANCED_FACE ( 'NONE', ( #81 ), #295, .T. ) ;
#234 = CARTESIAN_POINT ( 'NONE',  ( 10.00000000000000711, 7.000000000000000000, 45.00000000000000711 ) ) ;
#235 = EDGE_LOOP ( 'NONE', ( #522, #333, #46, #300 ) ) ;
#236 = CARTESIAN_POINT ( 'NONE',  ( 8.266365894244635122E-15, 23.00000000000000000, 45.00000000000000711 ) ) ;
#237 = CC_DESIGN_PERSON_AND_ORGANIZATION_ASSIGNMENT ( #261, #601, ( #149 ) ) ;
#238 = LINE ( 'NONE', #293, #127 ) ;
#239 = VECTOR ( 'NONE', #394, 1000.000000000000000 ) ;
#240 = VECTOR ( 'NONE', #463, 1000.000000000000000 ) ;
#241 = ORIENTED_EDGE ( 'NONE', *, *, #281, .F. ) ;
#242 = LINE ( 'NONE', #539, #551 ) ;
#243 = DIRECTION ( 'NONE',  ( 0.000000000000000000, -0.000000000000000000, 1.000000000000000000 ) ) ;
#244 = ORIENTED_EDGE ( 'NONE', *, *, #356, .T. ) ;
#245 = EDGE_CURVE ( 'NONE', #30, #557, #37, .T. ) ;
#246 = CARTESIAN_POINT ( 'NONE',  ( -45.00000000000000000, 0.000000000000000000, 0.000000000000000000 ) ) ;
#247 = ORIENTED_EDGE ( 'NONE', *, *, #284, .T. ) ;
#248 = CARTESIAN_POINT ( 'NONE',  ( 3.305791252793057100E-46, 7.000000000000000000, 1.799588940035433181E-30 ) ) ;
#249 = EDGE_CURVE ( 'NONE', #471, #499, #151, .T. ) ;
#250 = ADVANCED_BREP_SHAPE_REPRESENTATION ( 'pallet', ( #624, #128 ), #108 ) ;
#251 = CARTESIAN_POINT ( 'NONE',  ( -10.00000000000000355, 7.000000000000000000, 1.836970198721032350E-15 ) ) ;
#252 = AXIS2_PLACEMENT_3D ( 'NONE', #646, #305, #559 ) ;
#253 = LOCAL_TIME ( 23, 34, 13.00000000000000000, #161 ) ;
#254 = ORIENTED_EDGE ( 'NONE', *, *, #441, .T. ) ;
#255 = EDGE_CURVE ( 'NONE', #647, #8, #490, .T. ) ;
#256 = VERTEX_POINT ( 'NONE', #361 ) ;
#257 = ORIENTED_EDGE ( 'NONE', *, *, #470, .F. ) ;
#258 = DIRECTION ( 'NONE',  ( 0.000000000000000000, -1.000000000000000000, 0.000000000000000000 ) ) ;
#259 = ORIENTED_EDGE ( 'NONE', *, *, #208, .F. ) ;
#260 = CARTESIAN_POINT ( 'NONE',  ( 4.392626733163376485E-46, 23.00000000000000000, 2.391234618951192035E-30 ) ) ;
#261 = PERSON_AND_ORGANIZATION ( #316, #584 ) ;
#262 = DIRECTION ( 'NONE',  ( -0.000000000000000000, -1.000000000000000000, -0.000000000000000000 ) ) ;
#263 = CARTESIAN_POINT ( 'NONE',  ( 43.00000000000000000, 30.00000000000000355, 42.99999999999999289 ) ) ;
#264 = EDGE_LOOP ( 'NONE', ( #290, #473, #340, #381 ) ) ;
#265 = APPLICATION_PROTOCOL_DEFINITION ( 'international standard', 'config_control_design', 1994, #390 ) ;
#266 = DIRECTION ( 'NONE',  ( -1.000000000000000000, 0.000000000000000000, 1.836970198721029688E-16 ) ) ;
#267 = AXIS2_PLACEMENT_3D ( 'NONE', #131, #89, #633 ) ;
#268 = CARTESIAN_POINT ( 'NONE',  ( 45.00000000000000000, 25.00000000000000000, -1.653273178848926709E-14 ) ) ;
#269 = DIRECTION ( 'NONE',  ( -0.000000000000000000, -1.000000000000000000, -0.000000000000000000 ) ) ;
#270 = PERSON_AND_ORGANIZATION ( #316, #584 ) ;
#271 = EDGE_CURVE ( 'NONE', #435, #580, #90, .T. ) ;
#272 = DIRECTION ( 'NONE',  ( 1.000000000000000000, 0.000000000000000000, -1.541976423090495387E-16 ) ) ;
#273 = DIRECTION ( 'NONE',  ( -1.000000000000000000, -8.440504662897598587E-64, 1.836970198721030427E-16 ) ) ;
#274 = CC_DESIGN_DATE_AND_TIME_ASSIGNMENT ( #64, #225, ( #11 ) ) ;
#275 = CARTESIAN_POINT ( 'NONE',  ( 40.00000000000000000, 7.000000000000000000, -7.347880794884116778E-15 ) ) ;
#276 = ORIENTED_EDGE ( 'NONE', *, *, #441, .F. ) ;
#277 = DATE_AND_TIME ( #371, #253 ) ;
#278 = VECTOR ( 'NONE', #311, 1000.000000000000000 ) ;
#279 = VECTOR ( 'NONE', #466, 1000.000000000000000 ) ;
#280 = LOCAL_TIME ( 23, 34, 13.00000000000000000, #615 ) ;
#281 = EDGE_CURVE ( 'NONE', #580, #105, #194, .T. ) ;
#282 = CARTESIAN_POINT ( 'NONE',  ( -44.99999999999999289, 30.00000000000000355, 45.00000000000000000 ) ) ;
#283 = DIRECTION ( 'NONE',  ( -0.000000000000000000, 1.000000000000000000, 0.000000000000000000 ) ) ;
#284 = EDGE_CURVE ( 'NONE', #420, #198, #58, .T. ) ;
#285 = ORIENTED_EDGE ( 'NONE', *, *, #419, .F. ) ;
#286 = CARTESIAN_POINT ( 'NONE',  ( -44.99999999999999289, 25.00000000000000000, 45.00000000000000000 ) ) ;
#287 = CARTESIAN_POINT ( 'NONE',  ( -45.00000000000000000, 30.00000000000000355, 0.000000000000000000 ) ) ;
#288 = VERTEX_POINT ( 'NONE', #370 ) ;
#289 = CARTESIAN_POINT ( 'NONE',  ( 43.00000000000000000, 30.00000000000000355, 42.99999999999999289 ) ) ;
#290 = ORIENTED_EDGE ( 'NONE', *, *, #175, .T. ) ;
#291 = ADVANCED_FACE ( 'NONE', ( #503 ), #53, .F. ) ;
#292 = AXIS2_PLACEMENT_3D ( 'NONE', #93, #258, #199 ) ;
#293 = CARTESIAN_POINT ( 'NONE',  ( -45.00000000000000000, 25.00000000000000000, 0.000000000000000000 ) ) ;
#294 = FACE_OUTER_BOUND ( 'NONE', #235, .T. ) ;
#295 = PLANE ( 'NONE',  #21 ) ;
#296 = DIRECTION ( 'NONE',  ( 1.000000000000000000, 0.000000000000000000, -1.541976423090495387E-16 ) ) ;
#297 = EDGE_CURVE ( 'NONE', #567, #30, #218, .T. ) ;
#298 =( LENGTH_UNIT ( ) NAMED_UNIT ( * ) SI_UNIT ( .MILLI., .METRE. ) );
#299 = LINE ( 'NONE', #86, #43 ) ;
#300 = ORIENTED_EDGE ( 'NONE', *, *, #327, .T. ) ;
#301 = FACE_OUTER_BOUND ( 'NONE', #555, .T. ) ;
#302 = ORIENTED_EDGE ( 'NONE', *, *, #500, .T. ) ;
#303 = DIRECTION ( 'NONE',  ( 1.000000000000000000, 0.000000000000000000, -8.068481283613057027E-17 ) ) ;
#304 = ORIENTED_EDGE ( 'NONE', *, *, #486, .F. ) ;
#305 = DIRECTION ( 'NONE',  ( 0.000000000000000000, -1.000000000000000000, 0.000000000000000000 ) ) ;
#306 = ORIENTED_EDGE ( 'NONE', *, *, #226, .T. ) ;
#307 = ORIENTED_EDGE ( 'NONE', *, *, #571, .F. ) ;
#308 = VECTOR ( 'NONE', #579, 1000.000000000000000 ) ;
#309 = APPROVAL_PERSON_ORGANIZATION ( #94, #397, #142 ) ;
#310 = LINE ( 'NONE', #496, #429 ) ;
#311 = DIRECTION ( 'NONE',  ( 1.692413147294445230E-16, 0.000000000000000000, 1.000000000000000000 ) ) ;
#312 = APPROVAL_DATE_TIME ( #406, #397 ) ;
#313 = ORIENTED_EDGE ( 'NONE', *, *, #486, .T. ) ;
#314 = EDGE_LOOP ( 'NONE', ( #560, #259, #74, #341 ) ) ;
#315 = DIRECTION ( 'NONE',  ( 0.000000000000000000, -0.000000000000000000, -1.000000000000000000 ) ) ;
#316 = PERSON ( 'UNSPECIFIED', 'UNSPECIFIED', 'UNSPECIFIED', ('UNSPECIFIED'), ('UNSPECIFIED'), ('UNSPECIFIED') ) ;
#317 = FACE_OUTER_BOUND ( 'NONE', #621, .T. ) ;
#318 = EDGE_CURVE ( 'NONE', #629, #198, #608, .T. ) ;
#319 = CARTESIAN_POINT ( 'NONE',  ( -45.00000000000000000, 0.000000000000000000, 0.000000000000000000 ) ) ;
#320 = FACE_OUTER_BOUND ( 'NONE', #145, .T. ) ;
#321 = EDGE_LOOP ( 'NONE', ( #577, #136, #596, #594 ) ) ;
#322 = DIRECTION ( 'NONE',  ( -1.000000000000000000, -0.000000000000000000, 1.836970198721029934E-16 ) ) ;
#323 = DIRECTION ( 'NONE',  ( 6.792721752314501023E-48, 1.000000000000000000, 3.697785493223492838E-32 ) ) ;
#324 = CARTESIAN_POINT ( 'NONE',  ( -43.00000000000000000, 30.00000000000000355, 1.999999999999983569 ) ) ;
#325 = DIRECTION ( 'NONE',  ( -2.168404344971010101E-16, -1.000000000000000000, 2.855086672654478517E-33 ) ) ;
#326 = APPROVAL_ROLE ( '' ) ;
#327 = EDGE_CURVE ( 'NONE', #637, #647, #509, .T. ) ;
#328 = ORIENTED_EDGE ( 'NONE', *, *, #57, .F. ) ;
#329 = PRODUCT_DEFINITION_SHAPE ( 'NONE', 'NONE',  #123 ) ;
#330 = AXIS2_PLACEMENT_3D ( 'NONE', #386, #626, #29 ) ;
#331 = VECTOR ( 'NONE', #216, 1000.000000000000000 ) ;
#332 = ADVANCED_FACE ( 'NONE', ( #294 ), #585, .T. ) ;
#333 = ORIENTED_EDGE ( 'NONE', *, *, #318, .F. ) ;
#334 = FACE_BOUND ( 'NONE', #562, .T. ) ;
#335 = VERTEX_POINT ( 'NONE', #338 ) ;
#336 = CARTESIAN_POINT ( 'NONE',  ( -10.00000000000000533, 2.168404344971011235E-15, 1.836970198721032350E-15 ) ) ;
#337 = EDGE_LOOP ( 'NONE', ( #204, #80, #306, #181 ) ) ;
#338 = CARTESIAN_POINT ( 'NONE',  ( 45.00000000000000711, 0.000000000000000000, 44.99999999999998579 ) ) ;
#339 = DIRECTION ( 'NONE',  ( 0.000000000000000000, -1.000000000000000000, 0.000000000000000000 ) ) ;
#340 = ORIENTED_EDGE ( 'NONE', *, *, #578, .T. ) ;
#341 = ORIENTED_EDGE ( 'NONE', *, *, #623, .T. ) ;
#342 = LINE ( 'NONE', #533, #455 ) ;
#343 = VECTOR ( 'NONE', #638, 1000.000000000000000 ) ;
#344 = VECTOR ( 'NONE', #541, 1000.000000000000000 ) ;
#345 = CARTESIAN_POINT ( 'NONE',  ( -44.99999999999999289, 30.00000000000000355, 45.00000000000000000 ) ) ;
#346 = DIRECTION ( 'NONE',  ( -0.000000000000000000, -1.000000000000000000, -0.000000000000000000 ) ) ;
#347 = DIRECTION ( 'NONE',  ( -1.000000000000000000, -8.440504662897598587E-64, 1.836970198721030427E-16 ) ) ;
#348 = DIRECTION ( 'NONE',  ( 1.000000000000000000, -2.168404344971010347E-16, -1.836970198721030181E-16 ) ) ;
#349 = FACE_OUTER_BOUND ( 'NONE', #337, .T. ) ;
#350 = CC_DESIGN_PERSON_AND_ORGANIZATION_ASSIGNMENT ( #590, #552, ( #569 ) ) ;
#351 = AXIS2_PLACEMENT_3D ( 'NONE', #382, #49, #168 ) ;
#352 = ORIENTED_EDGE ( 'NONE', *, *, #436, .T. ) ;
#353 = COORDINATED_UNIVERSAL_TIME_OFFSET ( 9, 0, .AHEAD. ) ;
#354 = CARTESIAN_POINT ( 'NONE',  ( 9.999999999999998224, 7.000000000000000000, -1.836970198721027617E-15 ) ) ;
#355 = CARTESIAN_POINT ( 'NONE',  ( 40.00000000000000711, 23.00000000000000000, 45.00000000000000000 ) ) ;
#356 = EDGE_CURVE ( 'NONE', #170, #629, #581, .T. ) ;
#357 = EDGE_LOOP ( 'NONE', ( #604, #479, #244, #98 ) ) ;
#358 = ORIENTED_EDGE ( 'NONE', *, *, #182, .T. ) ;
#359 = PLANE ( 'NONE',  #267 ) ;
#360 = ORIENTED_EDGE ( 'NONE', *, *, #571, .T. ) ;
#361 = CARTESIAN_POINT ( 'NONE',  ( 45.00000000000000000, 0.000000000000000000, -1.653273178848926709E-14 ) ) ;
#362 = COORDINATED_UNIVERSAL_TIME_OFFSET ( 9, 0, .AHEAD. ) ;
#363 = EDGE_CURVE ( 'NONE', #212, #557, #536, .T. ) ;
#364 = DIRECTION ( 'NONE',  ( -1.836970198721030427E-16, -0.000000000000000000, -1.000000000000000000 ) ) ;
#365 = VERTEX_POINT ( 'NONE', #189 ) ;
#366 = CARTESIAN_POINT ( 'NONE',  ( 45.00000000000000711, 25.00000000000000000, 44.99999999999998579 ) ) ;
#367 = DATE_AND_TIME ( #542, #444 ) ;
#368 = ADVANCED_FACE ( 'NONE', ( #124 ), #425, .T. ) ;
#369 = ORIENTED_EDGE ( 'NONE', *, *, #297, .F. ) ;
#370 = CARTESIAN_POINT ( 'NONE',  ( -40.00000000000000000, 7.000000000000000000, 7.347880794884119933E-15 ) ) ;
#371 = CALENDAR_DATE ( 2026, 26, 6 ) ;
#372 = DIRECTION ( 'NONE',  ( -0.000000000000000000, -1.000000000000000000, -0.000000000000000000 ) ) ;
#373 = EDGE_CURVE ( 'NONE', #510, #105, #437, .T. ) ;
#374 = PLANE ( 'NONE',  #439 ) ;
#375 = AXIS2_PLACEMENT_3D ( 'NONE', #528, #339, #126 ) ;
#376 = DIRECTION ( 'NONE',  ( -1.836970198721030427E-16, -0.000000000000000000, -1.000000000000000000 ) ) ;
#377 = FACE_OUTER_BOUND ( 'NONE', #321, .T. ) ;
#378 = ADVANCED_FACE ( 'NONE', ( #440, #469, #334 ), #520, .F. ) ;
#379 = LINE ( 'NONE', #336, #279 ) ;
#380 = CARTESIAN_POINT ( 'NONE',  ( -40.00000000000000000, -5.697340647455879248E-62, 7.347880794884119933E-15 ) ) ;
#381 = ORIENTED_EDGE ( 'NONE', *, *, #249, .T. ) ;
#382 = CARTESIAN_POINT ( 'NONE',  ( -45.00000000000000000, 25.00000000000000000, 0.000000000000000000 ) ) ;
#383 = PLANE ( 'NONE',  #186 ) ;
#384 = CALENDAR_DATE ( 2026, 26, 6 ) ;
#385 = VECTOR ( 'NONE', #214, 1000.000000000000000 ) ;
#386 = CARTESIAN_POINT ( 'NONE',  ( 43.00000000000000711, 30.00000000000000355, 1.999999999999983569 ) ) ;
#387 = LINE ( 'NONE', #117, #563 ) ;
#388 = VERTEX_POINT ( 'NONE', #251 ) ;
#389 =( NAMED_UNIT ( * ) PLANE_ANGLE_UNIT ( ) SI_UNIT ( $, .RADIAN. ) );
#390 = APPLICATION_CONTEXT ( 'configuration controlled 3d designs of mechanical parts and assemblies' ) ;
#391 = DIRECTION ( 'NONE',  ( -1.836970198721030427E-16, -0.000000000000000000, -1.000000000000000000 ) ) ;
#392 = APPROVAL ( #603, 'UNSPECIFIED' ) ;
#393 = VECTOR ( 'NONE', #104, 1000.000000000000000 ) ;
#394 = DIRECTION ( 'NONE',  ( -1.836970198721030427E-16, -0.000000000000000000, -1.000000000000000000 ) ) ;
#395 = UNCERTAINTY_MEASURE_WITH_UNIT (LENGTH_MEASURE( 1.000000000000000082E-05 ), #298, 'distance_accuracy_value', 'NONE');
#396 = FACE_OUTER_BOUND ( 'NONE', #197, .T. ) ;
#397 = APPROVAL ( #405, 'UNSPECIFIED' ) ;
#398 = FACE_OUTER_BOUND ( 'NONE', #118, .T. ) ;
#399 = CARTESIAN_POINT ( 'NONE',  ( -43.00000000000000000, 30.00000000000000355, 1.999999999999983569 ) ) ;
#400 = ADVANCED_FACE ( 'NONE', ( #644 ), #543, .F. ) ;
#401 = VECTOR ( 'NONE', #121, 1000.000000000000000 ) ;
#402 = DIRECTION ( 'NONE',  ( -1.541976423090495387E-16, 0.000000000000000000, -1.000000000000000000 ) ) ;
#403 = AXIS2_PLACEMENT_3D ( 'NONE', #426, #102, #315 ) ;
#404 = ORIENTED_EDGE ( 'NONE', *, *, #2, .T. ) ;
#405 = APPROVAL_STATUS ( 'not_yet_approved' ) ;
#406 = DATE_AND_TIME ( #546, #61 ) ;
#407 = FACE_BOUND ( 'NONE', #625, .T. ) ;
#408 = ORIENTED_EDGE ( 'NONE', *, *, #578, .F. ) ;
#409 = AXIS2_PLACEMENT_3D ( 'NONE', #449, #605, #157 ) ;
#410 = EDGE_CURVE ( 'NONE', #198, #647, #44, .T. ) ;
#411 = CARTESIAN_POINT ( 'NONE',  ( 8.266365894244635122E-15, 7.000000000000000000, 45.00000000000000711 ) ) ;
#412 = CARTESIAN_POINT ( 'NONE',  ( -39.99999999999999289, 23.00000000000000000, 45.00000000000001421 ) ) ;
#413 = LINE ( 'NONE', #565, #401 ) ;
#414 = VERTEX_POINT ( 'NONE', #193 ) ;
#415 = LINE ( 'NONE', #501, #393 ) ;
#416 = ORIENTED_EDGE ( 'NONE', *, *, #500, .F. ) ;
#417 = ORIENTED_EDGE ( 'NONE', *, *, #97, .F. ) ;
#418 = LINE ( 'NONE', #96, #422 ) ;
#419 = EDGE_CURVE ( 'NONE', #65, #489, #139, .T. ) ;
#420 = VERTEX_POINT ( 'NONE', #196 ) ;
#421 = AXIS2_PLACEMENT_3D ( 'NONE', #185, #27, #68 ) ;
#422 = VECTOR ( 'NONE', #122, 1000.000000000000000 ) ;
#423 = LINE ( 'NONE', #162, #210 ) ;
#424 = FACE_BOUND ( 'NONE', #24, .T. ) ;
#425 = PLANE ( 'NONE',  #421 ) ;
#426 = CARTESIAN_POINT ( 'NONE',  ( 8.266365894244635122E-15, 7.000000000000000000, 45.00000000000000711 ) ) ;
#427 = VECTOR ( 'NONE', #88, 1000.000000000000000 ) ;
#428 = EDGE_CURVE ( 'NONE', #3, #288, #645, .T. ) ;
#429 = VECTOR ( 'NONE', #262, 1000.000000000000000 ) ;
#430 = ORIENTED_EDGE ( 'NONE', *, *, #297, .T. ) ;
#431 = DIRECTION ( 'NONE',  ( -2.168404344971010101E-16, -1.000000000000000000, 2.855086672654478517E-33 ) ) ;
#432 = EDGE_CURVE ( 'NONE', #567, #212, #550, .T. ) ;
#433 = CARTESIAN_POINT ( 'NONE',  ( -39.99999999999999289, 23.00000000000000000, 45.00000000000001421 ) ) ;
#434 = CARTESIAN_POINT ( 'NONE',  ( -42.99999999999999289, 30.00000000000000355, 43.00000000000000000 ) ) ;
#435 = VERTEX_POINT ( 'NONE', #135 ) ;
#436 = EDGE_CURVE ( 'NONE', #77, #471, #538, .T. ) ;
#437 = LINE ( 'NONE', #433, #239 ) ;
#438 = DIRECTION ( 'NONE',  ( -1.541976423090495387E-16, -0.000000000000000000, -1.000000000000000000 ) ) ;
#439 = AXIS2_PLACEMENT_3D ( 'NONE', #109, #283, #73 ) ;
#440 = FACE_BOUND ( 'NONE', #110, .T. ) ;
#441 = EDGE_CURVE ( 'NONE', #106, #170, #299, .T. ) ;
#442 = ORIENTED_EDGE ( 'NONE', *, *, #554, .F. ) ;
#443 = LINE ( 'NONE', #477, #630 ) ;
#444 = LOCAL_TIME ( 23, 34, 13.00000000000000000, #353 ) ;
#445 = EDGE_LOOP ( 'NONE', ( #35, #328, #548, #648 ) ) ;
#446 = EDGE_LOOP ( 'NONE', ( #576, #634, #505, #430 ) ) ;
#447 = PLANE ( 'NONE',  #92 ) ;
#448 = ORIENTED_EDGE ( 'NONE', *, *, #175, .F. ) ;
#449 = CARTESIAN_POINT ( 'NONE',  ( -43.00000000000000000, 30.00000000000000355, 1.999999999999983569 ) ) ;
#450 = CARTESIAN_POINT ( 'NONE',  ( -45.00000000000000000, 0.000000000000000000, 0.000000000000000000 ) ) ;
#451 = EDGE_CURVE ( 'NONE', #288, #105, #488, .T. ) ;
#452 = DATE_TIME_ROLE ( 'creation_date' ) ;
#453 = ORIENTED_EDGE ( 'NONE', *, *, #182, .F. ) ;
#454 = CARTESIAN_POINT ( 'NONE',  ( 45.00000000000000000, 30.00000000000000355, -1.653273178848926709E-14 ) ) ;
#455 = VECTOR ( 'NONE', #438, 1000.000000000000000 ) ;
#456 = ORIENTED_EDGE ( 'NONE', *, *, #506, .T. ) ;
#457 = CARTESIAN_POINT ( 'NONE',  ( 4.392626733163376485E-46, 23.00000000000000000, 2.391234618951192035E-30 ) ) ;
#458 = VECTOR ( 'NONE', #372, 1000.000000000000000 ) ;
#459 = DIRECTION ( 'NONE',  ( 1.836970198721030427E-16, 0.000000000000000000, 1.000000000000000000 ) ) ;
#460 = DIRECTION ( 'NONE',  ( 6.792721752314501023E-48, 1.000000000000000000, 3.697785493223492838E-32 ) ) ;
#461 = CARTESIAN_POINT ( 'NONE',  ( -43.00000000000000000, 30.00000000000000355, 1.999999999999983569 ) ) ;
#462 = CC_DESIGN_PERSON_AND_ORGANIZATION_ASSIGNMENT ( #40, #38, ( #123 ) ) ;
#463 = DIRECTION ( 'NONE',  ( 6.792721752314501023E-48, 1.000000000000000000, 3.697785493223492838E-32 ) ) ;
#464 = CLOSED_SHELL ( 'NONE', ( #378, #39, #291, #544, #103, #119, #540, #616, #159, #233, #400, #627, #69, #148, #332, #606, #368, #478, #531 ) ) ;
#465 = AXIS2_PLACEMENT_3D ( 'NONE', #263, #651, #224 ) ;
#466 = DIRECTION ( 'NONE',  ( -2.168404344971010101E-16, -1.000000000000000000, 2.855086672654478517E-33 ) ) ;
#467 = LINE ( 'NONE', #561, #493 ) ;
#468 = DIRECTION ( 'NONE',  ( -1.000000000000000000, 0.000000000000000000, 1.836970198721029688E-16 ) ) ;
#469 = FACE_OUTER_BOUND ( 'NONE', #179, .T. ) ;
#470 = EDGE_CURVE ( 'NONE', #3, #510, #116, .T. ) ;
#471 = VERTEX_POINT ( 'NONE', #556 ) ;
#472 = FACE_OUTER_BOUND ( 'NONE', #529, .T. ) ;
#473 = ORIENTED_EDGE ( 'NONE', *, *, #245, .F. ) ;
#474 = CARTESIAN_POINT ( 'NONE',  ( 10.00000000000000711, 7.000000000000000000, 45.00000000000000711 ) ) ;
#475 = CARTESIAN_POINT ( 'NONE',  ( -43.00000000000000000, 25.00000000000000000, 1.999999999999983569 ) ) ;
#476 = VECTOR ( 'NONE', #115, 1000.000000000000000 ) ;
#477 = CARTESIAN_POINT ( 'NONE',  ( -9.999999999999996447, 2.168404344971011235E-15, 45.00000000000000711 ) ) ;
#478 = ADVANCED_FACE ( 'NONE', ( #6 ), #220, .T. ) ;
#479 = ORIENTED_EDGE ( 'NONE', *, *, #195, .F. ) ;
#480 = ORIENTED_EDGE ( 'NONE', *, *, #255, .F. ) ;
#481 = CARTESIAN_POINT ( 'NONE',  ( -9.999999999999994671, 7.000000000000000000, 45.00000000000000711 ) ) ;
#482 = VECTOR ( 'NONE', #460, 1000.000000000000000 ) ;
#483 = LINE ( 'NONE', #481, #583 ) ;
#484 = ORIENTED_EDGE ( 'NONE', *, *, #623, .F. ) ;
#485 = APPROVAL_DATE_TIME ( #367, #392 ) ;
#486 = EDGE_CURVE ( 'NONE', #70, #489, #112, .T. ) ;
#487 = PLANE ( 'NONE',  #252 ) ;
#488 = LINE ( 'NONE', #380, #240 ) ;
#489 = VERTEX_POINT ( 'NONE', #13 ) ;
#490 = LINE ( 'NONE', #141, #278 ) ;
#491 = ORIENTED_EDGE ( 'NONE', *, *, #114, .F. ) ;
#492 = VECTOR ( 'NONE', #564, 1000.000000000000000 ) ;
#493 = VECTOR ( 'NONE', #325, 1000.000000000000000 ) ;
#494 = VERTEX_POINT ( 'NONE', #217 ) ;
#495 = CARTESIAN_POINT ( 'NONE',  ( -9.999999999999991118, 23.00000000000000000, 45.00000000000000711 ) ) ;
#496 = CARTESIAN_POINT ( 'NONE',  ( -42.99999999999999289, 30.00000000000000355, 43.00000000000000000 ) ) ;
#497 = CALENDAR_DATE ( 2026, 26, 6 ) ;
#498 = LINE ( 'NONE', #319, #532 ) ;
#499 = VERTEX_POINT ( 'NONE', #513 ) ;
#500 = EDGE_CURVE ( 'NONE', #530, #212, #467, .T. ) ;
#501 = CARTESIAN_POINT ( 'NONE',  ( 45.00000000000000000, 30.00000000000000355, -1.653273178848926709E-14 ) ) ;
#502 = ORIENTED_EDGE ( 'NONE', *, *, #327, .F. ) ;
#503 = FACE_OUTER_BOUND ( 'NONE', #619, .T. ) ;
#504 = AXIS2_PLACEMENT_3D ( 'NONE', #146, #553, #100 ) ;
#505 = ORIENTED_EDGE ( 'NONE', *, *, #432, .F. ) ;
#506 = EDGE_CURVE ( 'NONE', #365, #335, #507, .T. ) ;
#507 = LINE ( 'NONE', #366, #187 ) ;
#508 = EDGE_LOOP ( 'NONE', ( #222, #358, #404, #200 ) ) ;
#509 = LINE ( 'NONE', #461, #549 ) ;
#510 = VERTEX_POINT ( 'NONE', #412 ) ;
#511 = DIRECTION ( 'NONE',  ( 1.000000000000000000, -2.168404344971010347E-16, -1.836970198721030181E-16 ) ) ;
#512 = VERTEX_POINT ( 'NONE', #454 ) ;
#513 = CARTESIAN_POINT ( 'NONE',  ( 10.00000000000000178, 23.00000000000000000, -1.010333609296566392E-14 ) ) ;
#514 = ORIENTED_EDGE ( 'NONE', *, *, #2, .F. ) ;
#515 = VECTOR ( 'NONE', #18, 1000.000000000000000 ) ;
#516 = DIRECTION ( 'NONE',  ( 2.168404344971010347E-16, 1.000000000000000000, 0.000000000000000000 ) ) ;
#517 = CARTESIAN_POINT ( 'NONE',  ( 3.305791252793057100E-46, 7.000000000000000000, 1.799588940035433181E-30 ) ) ;
#518 = EDGE_CURVE ( 'NONE', #512, #414, #415, .T. ) ;
#519 = ORIENTED_EDGE ( 'NONE', *, *, #373, .T. ) ;
#520 = PLANE ( 'NONE',  #52 ) ;
#521 = PERSON_AND_ORGANIZATION_ROLE ( 'design_supplier' ) ;
#522 = ORIENTED_EDGE ( 'NONE', *, *, #410, .F. ) ;
#523 = LINE ( 'NONE', #287, #515 ) ;
#524 = CARTESIAN_POINT ( 'NONE',  ( -43.00000000000000000, 25.00000000000000000, 43.00000000000000000 ) ) ;
#525 = CC_DESIGN_PERSON_AND_ORGANIZATION_ASSIGNMENT ( #99, #521, ( #149 ) ) ;
#526 = EDGE_LOOP ( 'NONE', ( #448, #602, #302, #85 ) ) ;
#527 =( NAMED_UNIT ( * ) SI_UNIT ( $, .STERADIAN. ) SOLID_ANGLE_UNIT ( ) );
#528 = CARTESIAN_POINT ( 'NONE',  ( 8.266365894244635122E-15, 23.00000000000000000, 45.00000000000000711 ) ) ;
#529 = EDGE_LOOP ( 'NONE', ( #480, #502, #178, #360 ) ) ;
#530 = VERTEX_POINT ( 'NONE', #158 ) ;
#531 = ADVANCED_FACE ( 'NONE', ( #317 ), #374, .T. ) ;
#532 = VECTOR ( 'NONE', #322, 1000.000000000000000 ) ;
#533 = CARTESIAN_POINT ( 'NONE',  ( 45.00000000000000000, 0.000000000000000000, -1.653273178848926709E-14 ) ) ;
#534 = CC_DESIGN_APPROVAL ( #397, ( #149 ) ) ;
#535 = ORIENTED_EDGE ( 'NONE', *, *, #592, .T. ) ;
#536 = LINE ( 'NONE', #234, #308 ) ;
#537 = DIRECTION ( 'NONE',  ( -1.000000000000000000, 0.000000000000000000, 1.836970198721029688E-16 ) ) ;
#538 = LINE ( 'NONE', #355, #344 ) ;
#539 = CARTESIAN_POINT ( 'NONE',  ( -42.99999999999999289, 25.00000000000000000, 43.00000000000000000 ) ) ;
#540 = ADVANCED_FACE ( 'NONE', ( #396 ), #447, .F. ) ;
#541 = DIRECTION ( 'NONE',  ( -1.836970198721030427E-16, -0.000000000000000000, -1.000000000000000000 ) ) ;
#542 = CALENDAR_DATE ( 2026, 26, 6 ) ;
#543 = PLANE ( 'NONE',  #292 ) ;
#544 = ADVANCED_FACE ( 'NONE', ( #138 ), #359, .F. ) ;
#545 = DATE_AND_TIME ( #497, #211 ) ;
#546 = CALENDAR_DATE ( 2026, 26, 6 ) ;
#547 = EDGE_CURVE ( 'NONE', #489, #335, #42, .T. ) ;
#548 = ORIENTED_EDGE ( 'NONE', *, *, #79, .F. ) ;
#549 = VECTOR ( 'NONE', #78, 1000.000000000000000 ) ;
#550 = LINE ( 'NONE', #132, #589 ) ;
#551 = VECTOR ( 'NONE', #635, 1000.000000000000000 ) ;
#552 = PERSON_AND_ORGANIZATION_ROLE ( 'design_owner' ) ;
#553 = DIRECTION ( 'NONE',  ( 0.000000000000000000, 1.000000000000000000, -0.000000000000000000 ) ) ;
#554 = EDGE_CURVE ( 'NONE', #637, #106, #33, .T. ) ;
#555 = EDGE_LOOP ( 'NONE', ( #241, #84, #156, #519 ) ) ;
#556 = CARTESIAN_POINT ( 'NONE',  ( 40.00000000000000000, 23.00000000000000000, -7.347880794884115200E-15 ) ) ;
#557 = VERTEX_POINT ( 'NONE', #354 ) ;
#558 = DIRECTION ( 'NONE',  ( -1.000000000000000000, 0.000000000000000000, 1.836970198721029688E-16 ) ) ;
#559 = DIRECTION ( 'NONE',  ( 0.000000000000000000, -0.000000000000000000, -1.000000000000000000 ) ) ;
#560 = ORIENTED_EDGE ( 'NONE', *, *, #153, .T. ) ;
#561 = CARTESIAN_POINT ( 'NONE',  ( 10.00000000000000355, -2.168404344971008868E-15, 45.00000000000000711 ) ) ;
#562 = EDGE_LOOP ( 'NONE', ( #416, #67, #91, #586 ) ) ;
#563 = VECTOR ( 'NONE', #376, 1000.000000000000000 ) ;
#564 = DIRECTION ( 'NONE',  ( -0.000000000000000000, -1.000000000000000000, -0.000000000000000000 ) ) ;
#565 = CARTESIAN_POINT ( 'NONE',  ( 43.00000000000000000, 30.00000000000000355, 42.99999999999999289 ) ) ;
#566 = CARTESIAN_POINT ( 'NONE',  ( 43.00000000000000711, 30.00000000000000355, 1.999999999999983569 ) ) ;
#567 = VERTEX_POINT ( 'NONE', #143 ) ;
#568 = CARTESIAN_POINT ( 'NONE',  ( 40.00000000000000711, 7.000000000000000000, 45.00000000000000000 ) ) ;
#569 = PRODUCT ( 'pallet', 'pallet', '', ( #50 ) ) ;
#570 = LINE ( 'NONE', #610, #476 ) ;
#571 = EDGE_CURVE ( 'NONE', #106, #8, #310, .T. ) ;
#572 = VECTOR ( 'NONE', #272, 1000.000000000000000 ) ;
#573 = DIRECTION ( 'NONE',  ( -2.168404344971010101E-16, -1.000000000000000000, 2.855086672654478517E-33 ) ) ;
#574 = CC_DESIGN_SECURITY_CLASSIFICATION ( #11, ( #149 ) ) ;
#575 = DIRECTION ( 'NONE',  ( 1.000000000000000000, 0.000000000000000000, -1.836970198721029934E-16 ) ) ;
#576 = ORIENTED_EDGE ( 'NONE', *, *, #245, .T. ) ;
#577 = ORIENTED_EDGE ( 'NONE', *, *, #23, .T. ) ;
#578 = EDGE_CURVE ( 'NONE', #30, #471, #418, .T. ) ;
#579 = DIRECTION ( 'NONE',  ( -1.836970198721030427E-16, -0.000000000000000000, -1.000000000000000000 ) ) ;
#580 = VERTEX_POINT ( 'NONE', #649 ) ;
#581 = LINE ( 'NONE', #289, #31 ) ;
#582 = CARTESIAN_POINT ( 'NONE',  ( 0.000000000000000000, 0.000000000000000000, 0.000000000000000000 ) ) ;
#583 = VECTOR ( 'NONE', #391, 1000.000000000000000 ) ;
#584 = ORGANIZATION ( 'UNSPECIFIED', 'UNSPECIFIED', '' ) ;
#585 = PLANE ( 'NONE',  #330 ) ;
#586 = ORIENTED_EDGE ( 'NONE', *, *, #432, .T. ) ;
#587 = DIRECTION ( 'NONE',  ( 1.541976423090495387E-16, 0.000000000000000000, 1.000000000000000000 ) ) ;
#588 = ORIENTED_EDGE ( 'NONE', *, *, #410, .T. ) ;
#589 = VECTOR ( 'NONE', #34, 1000.000000000000000 ) ;
#590 = PERSON_AND_ORGANIZATION ( #316, #584 ) ;
#591 = DIRECTION ( 'NONE',  ( -1.000000000000000000, 0.000000000000000000, 1.541976423090495387E-16 ) ) ;
#592 = EDGE_CURVE ( 'NONE', #494, #3, #611, .T. ) ;
#593 = DIRECTION ( 'NONE',  ( -1.541976423090495387E-16, 0.000000000000000000, -1.000000000000000000 ) ) ;
#594 = ORIENTED_EDGE ( 'NONE', *, *, #57, .T. ) ;
#595 = CARTESIAN_POINT ( 'NONE',  ( -44.99999999999999289, 0.000000000000000000, 45.00000000000000000 ) ) ;
#596 = ORIENTED_EDGE ( 'NONE', *, *, #592, .F. ) ;
#597 = PLANE ( 'NONE',  #504 ) ;
#598 = ORIENTED_EDGE ( 'NONE', *, *, #639, .F. ) ;
#599 = VECTOR ( 'NONE', #266, 1000.000000000000000 ) ;
#600 = AXIS2_PLACEMENT_3D ( 'NONE', #47, #273, #459 ) ;
#601 = PERSON_AND_ORGANIZATION_ROLE ( 'creator' ) ;
#602 = ORIENTED_EDGE ( 'NONE', *, *, #7, .F. ) ;
#603 = APPROVAL_STATUS ( 'not_yet_approved' ) ;
#604 = ORIENTED_EDGE ( 'NONE', *, *, #284, .F. ) ;
#605 = DIRECTION ( 'NONE',  ( 1.000000000000000000, 0.000000000000000000, -1.692413147294445230E-16 ) ) ;
#606 = ADVANCED_FACE ( 'NONE', ( #472 ), #163, .T. ) ;
#607 = ORIENTED_EDGE ( 'NONE', *, *, #14, .F. ) ;
#608 = LINE ( 'NONE', #111, #492 ) ;
#609 = LINE ( 'NONE', #171, #620 ) ;
#610 = CARTESIAN_POINT ( 'NONE',  ( 43.00000000000000711, 30.00000000000000355, 1.999999999999983569 ) ) ;
#611 = LINE ( 'NONE', #411, #331 ) ;
#612 = VECTOR ( 'NONE', #537, 1000.000000000000000 ) ;
#613 = CARTESIAN_POINT ( 'NONE',  ( 43.00000000000000000, 30.00000000000000355, 42.99999999999999289 ) ) ;
#614 = ORIENTED_EDGE ( 'NONE', *, *, #281, .T. ) ;
#615 = COORDINATED_UNIVERSAL_TIME_OFFSET ( 9, 0, .AHEAD. ) ;
#616 = ADVANCED_FACE ( 'NONE', ( #377 ), #154, .F. ) ;
#617 = FACE_OUTER_BOUND ( 'NONE', #314, .T. ) ;
#618 = CC_DESIGN_DATE_AND_TIME_ASSIGNMENT ( #545, #452, ( #123 ) ) ;
#619 = EDGE_LOOP ( 'NONE', ( #19, #304, #453, #167 ) ) ;
#620 = VECTOR ( 'NONE', #573, 1000.000000000000000 ) ;
#621 = EDGE_LOOP ( 'NONE', ( #588, #101, #125, #247 ) ) ;
#622 = APPROVAL_PERSON_ORGANIZATION ( #229, #166, #326 ) ;
#623 = EDGE_CURVE ( 'NONE', #512, #256, #51, .T. ) ;
#624 = MANIFOLD_SOLID_BREP ( '보스-돌출2', #464 ) ;
#625 = EDGE_LOOP ( 'NONE', ( #442, #607, #62, #276 ) ) ;
#626 = DIRECTION ( 'NONE',  ( 0.000000000000000000, -0.000000000000000000, 1.000000000000000000 ) ) ;
#627 = ADVANCED_FACE ( 'NONE', ( #320 ), #55, .T. ) ;
#628 = LINE ( 'NONE', #183, #599 ) ;
#629 = VERTEX_POINT ( 'NONE', #566 ) ;
#630 = VECTOR ( 'NONE', #431, 1000.000000000000000 ) ;
#631 = PLANE ( 'NONE',  #650 ) ;
#632 = CC_DESIGN_APPROVAL ( #166, ( #11 ) ) ;
#633 = DIRECTION ( 'NONE',  ( 1.541976423090495387E-16, 0.000000000000000000, 1.000000000000000000 ) ) ;
#634 = ORIENTED_EDGE ( 'NONE', *, *, #363, .F. ) ;
#635 = DIRECTION ( 'NONE',  ( 1.000000000000000000, 0.000000000000000000, -8.068481283613057027E-17 ) ) ;
#636 = DIRECTION ( 'NONE',  ( -1.000000000000000000, 0.000000000000000000, 0.000000000000000000 ) ) ;
#637 = VERTEX_POINT ( 'NONE', #324 ) ;
#638 = DIRECTION ( 'NONE',  ( -1.836970198721030427E-16, -0.000000000000000000, -1.000000000000000000 ) ) ;
#639 = EDGE_CURVE ( 'NONE', #8, #420, #242, .T. ) ;
#640 = CARTESIAN_POINT ( 'NONE',  ( 0.000000000000000000, 0.000000000000000000, 0.000000000000000000 ) ) ;
#641 = CARTESIAN_POINT ( 'NONE',  ( 43.00000000000000711, 25.00000000000000000, 1.999999999999983569 ) ) ;
#642 = VECTOR ( 'NONE', #636, 1000.000000000000000 ) ;
#643 = CARTESIAN_POINT ( 'NONE',  ( -39.99999999999999289, -5.697340647455879248E-62, 45.00000000000001421 ) ) ;
#644 = FACE_OUTER_BOUND ( 'NONE', #446, .T. ) ;
#645 = LINE ( 'NONE', #144, #164 ) ;
#646 = CARTESIAN_POINT ( 'NONE',  ( 8.266365894244635122E-15, 23.00000000000000000, 45.00000000000000711 ) ) ;
#647 = VERTEX_POINT ( 'NONE', #475 ) ;
#648 = ORIENTED_EDGE ( 'NONE', *, *, #271, .T. ) ;
#649 = CARTESIAN_POINT ( 'NONE',  ( -10.00000000000000178, 23.00000000000000000, -6.429395695523603956E-15 ) ) ;
#650 = AXIS2_PLACEMENT_3D ( 'NONE', #640, #26, #243 ) ;
#651 = DIRECTION ( 'NONE',  ( -1.000000000000000000, 0.000000000000000000, -1.692413147294445723E-16 ) ) ;
ENDSEC;
END-ISO-10303-21;
